%TF.GenerationSoftware,KiCad,Pcbnew,(5.1.7-0-10_14)*%
%TF.CreationDate,2021-06-01T07:16:10-04:00*%
%TF.ProjectId,VCF,5643462e-6b69-4636-9164-5f7063625858,rev?*%
%TF.SameCoordinates,Original*%
%TF.FileFunction,Soldermask,Bot*%
%TF.FilePolarity,Negative*%
%FSLAX46Y46*%
G04 Gerber Fmt 4.6, Leading zero omitted, Abs format (unit mm)*
G04 Created by KiCad (PCBNEW (5.1.7-0-10_14)) date 2021-06-01 07:16:10*
%MOMM*%
%LPD*%
G01*
G04 APERTURE LIST*
%ADD10O,1.600000X1.600000*%
%ADD11R,1.600000X1.600000*%
%ADD12O,2.800000X2.200000*%
%ADD13C,1.800000*%
%ADD14C,1.440000*%
%ADD15R,1.500000X1.050000*%
%ADD16O,1.500000X1.050000*%
%ADD17R,1.050000X1.500000*%
%ADD18O,1.050000X1.500000*%
%ADD19C,3.600000*%
%ADD20O,1.500000X2.300000*%
%ADD21O,1.700000X1.700000*%
%ADD22R,1.700000X1.700000*%
%ADD23O,2.300000X1.500000*%
%ADD24R,1.800000X1.800000*%
G04 APERTURE END LIST*
D10*
%TO.C,U103*%
X125500000Y-136200000D03*
X107720000Y-128580000D03*
X122960000Y-136200000D03*
X110260000Y-128580000D03*
X120420000Y-136200000D03*
X112800000Y-128580000D03*
X117880000Y-136200000D03*
X115340000Y-128580000D03*
X115340000Y-136200000D03*
X117880000Y-128580000D03*
X112800000Y-136200000D03*
X120420000Y-128580000D03*
X110260000Y-136200000D03*
X122960000Y-128580000D03*
X107720000Y-136200000D03*
D11*
X125500000Y-128580000D03*
%TD*%
D12*
%TO.C,RV105*%
X121150000Y-89900000D03*
X109850000Y-89900000D03*
D13*
X118000000Y-97400000D03*
X115500000Y-97400000D03*
X113000000Y-97400000D03*
%TD*%
D14*
%TO.C,RV104*%
X102800000Y-173880000D03*
X102800000Y-171340000D03*
X102800000Y-168800000D03*
%TD*%
D12*
%TO.C,RV103*%
X129100000Y-75000000D03*
X117800000Y-75000000D03*
D13*
X125950000Y-82500000D03*
X123450000Y-82500000D03*
X120950000Y-82500000D03*
%TD*%
D12*
%TO.C,RV102*%
X113200000Y-75000000D03*
X101900000Y-75000000D03*
D13*
X110050000Y-82500000D03*
X107550000Y-82500000D03*
X105050000Y-82500000D03*
%TD*%
D12*
%TO.C,RV101*%
X121150000Y-115500000D03*
X109850000Y-115500000D03*
D13*
X118000000Y-123000000D03*
X115500000Y-123000000D03*
X113000000Y-123000000D03*
%TD*%
D15*
%TO.C,Q104*%
X104600000Y-101460000D03*
D16*
X104600000Y-104000000D03*
X104600000Y-102730000D03*
%TD*%
D17*
%TO.C,Q103*%
X127500000Y-119500000D03*
D18*
X124960000Y-119500000D03*
X126230000Y-119500000D03*
%TD*%
D17*
%TO.C,Q101*%
X124960000Y-115300000D03*
D18*
X127500000Y-115300000D03*
X126230000Y-115300000D03*
%TD*%
D19*
%TO.C,J106*%
X115600000Y-170100000D03*
D20*
X110800000Y-170100000D03*
X119000000Y-170100000D03*
X121200000Y-170100000D03*
%TD*%
D21*
%TO.C,J105*%
X101900000Y-120460000D03*
X104440000Y-120460000D03*
X101900000Y-117920000D03*
X104440000Y-117920000D03*
X101900000Y-115380000D03*
X104440000Y-115380000D03*
X101900000Y-112840000D03*
X104440000Y-112840000D03*
X101900000Y-110300000D03*
D22*
X104440000Y-110300000D03*
%TD*%
D19*
%TO.C,J104*%
X126200000Y-158200000D03*
D23*
X126200000Y-153400000D03*
X126200000Y-161600000D03*
X126200000Y-163800000D03*
%TD*%
D19*
%TO.C,J103*%
X115500000Y-158200000D03*
D23*
X115500000Y-153400000D03*
X115500000Y-161600000D03*
X115500000Y-163800000D03*
%TD*%
D19*
%TO.C,J102*%
X115500000Y-147400000D03*
D20*
X110700000Y-147400000D03*
X118900000Y-147400000D03*
X121100000Y-147400000D03*
%TD*%
D19*
%TO.C,J101*%
X104800000Y-158200000D03*
D23*
X104800000Y-153400000D03*
X104800000Y-161600000D03*
X104800000Y-163800000D03*
%TD*%
D13*
%TO.C,D102*%
X128100000Y-95300000D03*
D24*
X125560000Y-95300000D03*
%TD*%
D13*
%TO.C,D101*%
X105440000Y-95300000D03*
D24*
X102900000Y-95300000D03*
%TD*%
M02*
