%TF.GenerationSoftware,KiCad,Pcbnew,(5.1.7-0-10_14)*%
%TF.CreationDate,2021-06-01T07:16:10-04:00*%
%TF.ProjectId,VCF,5643462e-6b69-4636-9164-5f7063625858,rev?*%
%TF.SameCoordinates,Original*%
%TF.FileFunction,Paste,Top*%
%TF.FilePolarity,Positive*%
%FSLAX46Y46*%
G04 Gerber Fmt 4.6, Leading zero omitted, Abs format (unit mm)*
G04 Created by KiCad (PCBNEW (5.1.7-0-10_14)) date 2021-06-01 07:16:10*
%MOMM*%
%LPD*%
G01*
G04 APERTURE LIST*
%ADD10R,1.500000X0.400000*%
G04 APERTURE END LIST*
%TO.C,U105*%
G36*
G01*
X128400000Y-102945000D02*
X128400000Y-102645000D01*
G75*
G02*
X128550000Y-102495000I150000J0D01*
G01*
X130200000Y-102495000D01*
G75*
G02*
X130350000Y-102645000I0J-150000D01*
G01*
X130350000Y-102945000D01*
G75*
G02*
X130200000Y-103095000I-150000J0D01*
G01*
X128550000Y-103095000D01*
G75*
G02*
X128400000Y-102945000I0J150000D01*
G01*
G37*
G36*
G01*
X128400000Y-104215000D02*
X128400000Y-103915000D01*
G75*
G02*
X128550000Y-103765000I150000J0D01*
G01*
X130200000Y-103765000D01*
G75*
G02*
X130350000Y-103915000I0J-150000D01*
G01*
X130350000Y-104215000D01*
G75*
G02*
X130200000Y-104365000I-150000J0D01*
G01*
X128550000Y-104365000D01*
G75*
G02*
X128400000Y-104215000I0J150000D01*
G01*
G37*
G36*
G01*
X128400000Y-105485000D02*
X128400000Y-105185000D01*
G75*
G02*
X128550000Y-105035000I150000J0D01*
G01*
X130200000Y-105035000D01*
G75*
G02*
X130350000Y-105185000I0J-150000D01*
G01*
X130350000Y-105485000D01*
G75*
G02*
X130200000Y-105635000I-150000J0D01*
G01*
X128550000Y-105635000D01*
G75*
G02*
X128400000Y-105485000I0J150000D01*
G01*
G37*
G36*
G01*
X128400000Y-106755000D02*
X128400000Y-106455000D01*
G75*
G02*
X128550000Y-106305000I150000J0D01*
G01*
X130200000Y-106305000D01*
G75*
G02*
X130350000Y-106455000I0J-150000D01*
G01*
X130350000Y-106755000D01*
G75*
G02*
X130200000Y-106905000I-150000J0D01*
G01*
X128550000Y-106905000D01*
G75*
G02*
X128400000Y-106755000I0J150000D01*
G01*
G37*
G36*
G01*
X123450000Y-106755000D02*
X123450000Y-106455000D01*
G75*
G02*
X123600000Y-106305000I150000J0D01*
G01*
X125250000Y-106305000D01*
G75*
G02*
X125400000Y-106455000I0J-150000D01*
G01*
X125400000Y-106755000D01*
G75*
G02*
X125250000Y-106905000I-150000J0D01*
G01*
X123600000Y-106905000D01*
G75*
G02*
X123450000Y-106755000I0J150000D01*
G01*
G37*
G36*
G01*
X123450000Y-105485000D02*
X123450000Y-105185000D01*
G75*
G02*
X123600000Y-105035000I150000J0D01*
G01*
X125250000Y-105035000D01*
G75*
G02*
X125400000Y-105185000I0J-150000D01*
G01*
X125400000Y-105485000D01*
G75*
G02*
X125250000Y-105635000I-150000J0D01*
G01*
X123600000Y-105635000D01*
G75*
G02*
X123450000Y-105485000I0J150000D01*
G01*
G37*
G36*
G01*
X123450000Y-104215000D02*
X123450000Y-103915000D01*
G75*
G02*
X123600000Y-103765000I150000J0D01*
G01*
X125250000Y-103765000D01*
G75*
G02*
X125400000Y-103915000I0J-150000D01*
G01*
X125400000Y-104215000D01*
G75*
G02*
X125250000Y-104365000I-150000J0D01*
G01*
X123600000Y-104365000D01*
G75*
G02*
X123450000Y-104215000I0J150000D01*
G01*
G37*
G36*
G01*
X123450000Y-102945000D02*
X123450000Y-102645000D01*
G75*
G02*
X123600000Y-102495000I150000J0D01*
G01*
X125250000Y-102495000D01*
G75*
G02*
X125400000Y-102645000I0J-150000D01*
G01*
X125400000Y-102945000D01*
G75*
G02*
X125250000Y-103095000I-150000J0D01*
G01*
X123600000Y-103095000D01*
G75*
G02*
X123450000Y-102945000I0J150000D01*
G01*
G37*
%TD*%
%TO.C,U104*%
G36*
G01*
X105500000Y-139445000D02*
X105500000Y-139145000D01*
G75*
G02*
X105650000Y-138995000I150000J0D01*
G01*
X107300000Y-138995000D01*
G75*
G02*
X107450000Y-139145000I0J-150000D01*
G01*
X107450000Y-139445000D01*
G75*
G02*
X107300000Y-139595000I-150000J0D01*
G01*
X105650000Y-139595000D01*
G75*
G02*
X105500000Y-139445000I0J150000D01*
G01*
G37*
G36*
G01*
X105500000Y-140715000D02*
X105500000Y-140415000D01*
G75*
G02*
X105650000Y-140265000I150000J0D01*
G01*
X107300000Y-140265000D01*
G75*
G02*
X107450000Y-140415000I0J-150000D01*
G01*
X107450000Y-140715000D01*
G75*
G02*
X107300000Y-140865000I-150000J0D01*
G01*
X105650000Y-140865000D01*
G75*
G02*
X105500000Y-140715000I0J150000D01*
G01*
G37*
G36*
G01*
X105500000Y-141985000D02*
X105500000Y-141685000D01*
G75*
G02*
X105650000Y-141535000I150000J0D01*
G01*
X107300000Y-141535000D01*
G75*
G02*
X107450000Y-141685000I0J-150000D01*
G01*
X107450000Y-141985000D01*
G75*
G02*
X107300000Y-142135000I-150000J0D01*
G01*
X105650000Y-142135000D01*
G75*
G02*
X105500000Y-141985000I0J150000D01*
G01*
G37*
G36*
G01*
X105500000Y-143255000D02*
X105500000Y-142955000D01*
G75*
G02*
X105650000Y-142805000I150000J0D01*
G01*
X107300000Y-142805000D01*
G75*
G02*
X107450000Y-142955000I0J-150000D01*
G01*
X107450000Y-143255000D01*
G75*
G02*
X107300000Y-143405000I-150000J0D01*
G01*
X105650000Y-143405000D01*
G75*
G02*
X105500000Y-143255000I0J150000D01*
G01*
G37*
G36*
G01*
X100550000Y-143255000D02*
X100550000Y-142955000D01*
G75*
G02*
X100700000Y-142805000I150000J0D01*
G01*
X102350000Y-142805000D01*
G75*
G02*
X102500000Y-142955000I0J-150000D01*
G01*
X102500000Y-143255000D01*
G75*
G02*
X102350000Y-143405000I-150000J0D01*
G01*
X100700000Y-143405000D01*
G75*
G02*
X100550000Y-143255000I0J150000D01*
G01*
G37*
G36*
G01*
X100550000Y-141985000D02*
X100550000Y-141685000D01*
G75*
G02*
X100700000Y-141535000I150000J0D01*
G01*
X102350000Y-141535000D01*
G75*
G02*
X102500000Y-141685000I0J-150000D01*
G01*
X102500000Y-141985000D01*
G75*
G02*
X102350000Y-142135000I-150000J0D01*
G01*
X100700000Y-142135000D01*
G75*
G02*
X100550000Y-141985000I0J150000D01*
G01*
G37*
G36*
G01*
X100550000Y-140715000D02*
X100550000Y-140415000D01*
G75*
G02*
X100700000Y-140265000I150000J0D01*
G01*
X102350000Y-140265000D01*
G75*
G02*
X102500000Y-140415000I0J-150000D01*
G01*
X102500000Y-140715000D01*
G75*
G02*
X102350000Y-140865000I-150000J0D01*
G01*
X100700000Y-140865000D01*
G75*
G02*
X100550000Y-140715000I0J150000D01*
G01*
G37*
G36*
G01*
X100550000Y-139445000D02*
X100550000Y-139145000D01*
G75*
G02*
X100700000Y-138995000I150000J0D01*
G01*
X102350000Y-138995000D01*
G75*
G02*
X102500000Y-139145000I0J-150000D01*
G01*
X102500000Y-139445000D01*
G75*
G02*
X102350000Y-139595000I-150000J0D01*
G01*
X100700000Y-139595000D01*
G75*
G02*
X100550000Y-139445000I0J150000D01*
G01*
G37*
%TD*%
%TO.C,U102*%
G36*
G01*
X128325000Y-85880000D02*
X128325000Y-85580000D01*
G75*
G02*
X128475000Y-85430000I150000J0D01*
G01*
X130125000Y-85430000D01*
G75*
G02*
X130275000Y-85580000I0J-150000D01*
G01*
X130275000Y-85880000D01*
G75*
G02*
X130125000Y-86030000I-150000J0D01*
G01*
X128475000Y-86030000D01*
G75*
G02*
X128325000Y-85880000I0J150000D01*
G01*
G37*
G36*
G01*
X128325000Y-87150000D02*
X128325000Y-86850000D01*
G75*
G02*
X128475000Y-86700000I150000J0D01*
G01*
X130125000Y-86700000D01*
G75*
G02*
X130275000Y-86850000I0J-150000D01*
G01*
X130275000Y-87150000D01*
G75*
G02*
X130125000Y-87300000I-150000J0D01*
G01*
X128475000Y-87300000D01*
G75*
G02*
X128325000Y-87150000I0J150000D01*
G01*
G37*
G36*
G01*
X128325000Y-88420000D02*
X128325000Y-88120000D01*
G75*
G02*
X128475000Y-87970000I150000J0D01*
G01*
X130125000Y-87970000D01*
G75*
G02*
X130275000Y-88120000I0J-150000D01*
G01*
X130275000Y-88420000D01*
G75*
G02*
X130125000Y-88570000I-150000J0D01*
G01*
X128475000Y-88570000D01*
G75*
G02*
X128325000Y-88420000I0J150000D01*
G01*
G37*
G36*
G01*
X128325000Y-89690000D02*
X128325000Y-89390000D01*
G75*
G02*
X128475000Y-89240000I150000J0D01*
G01*
X130125000Y-89240000D01*
G75*
G02*
X130275000Y-89390000I0J-150000D01*
G01*
X130275000Y-89690000D01*
G75*
G02*
X130125000Y-89840000I-150000J0D01*
G01*
X128475000Y-89840000D01*
G75*
G02*
X128325000Y-89690000I0J150000D01*
G01*
G37*
G36*
G01*
X123375000Y-89690000D02*
X123375000Y-89390000D01*
G75*
G02*
X123525000Y-89240000I150000J0D01*
G01*
X125175000Y-89240000D01*
G75*
G02*
X125325000Y-89390000I0J-150000D01*
G01*
X125325000Y-89690000D01*
G75*
G02*
X125175000Y-89840000I-150000J0D01*
G01*
X123525000Y-89840000D01*
G75*
G02*
X123375000Y-89690000I0J150000D01*
G01*
G37*
G36*
G01*
X123375000Y-88420000D02*
X123375000Y-88120000D01*
G75*
G02*
X123525000Y-87970000I150000J0D01*
G01*
X125175000Y-87970000D01*
G75*
G02*
X125325000Y-88120000I0J-150000D01*
G01*
X125325000Y-88420000D01*
G75*
G02*
X125175000Y-88570000I-150000J0D01*
G01*
X123525000Y-88570000D01*
G75*
G02*
X123375000Y-88420000I0J150000D01*
G01*
G37*
G36*
G01*
X123375000Y-87150000D02*
X123375000Y-86850000D01*
G75*
G02*
X123525000Y-86700000I150000J0D01*
G01*
X125175000Y-86700000D01*
G75*
G02*
X125325000Y-86850000I0J-150000D01*
G01*
X125325000Y-87150000D01*
G75*
G02*
X125175000Y-87300000I-150000J0D01*
G01*
X123525000Y-87300000D01*
G75*
G02*
X123375000Y-87150000I0J150000D01*
G01*
G37*
G36*
G01*
X123375000Y-85880000D02*
X123375000Y-85580000D01*
G75*
G02*
X123525000Y-85430000I150000J0D01*
G01*
X125175000Y-85430000D01*
G75*
G02*
X125325000Y-85580000I0J-150000D01*
G01*
X125325000Y-85880000D01*
G75*
G02*
X125175000Y-86030000I-150000J0D01*
G01*
X123525000Y-86030000D01*
G75*
G02*
X123375000Y-85880000I0J150000D01*
G01*
G37*
%TD*%
%TO.C,U101*%
G36*
G01*
X105425000Y-86050000D02*
X105425000Y-85750000D01*
G75*
G02*
X105575000Y-85600000I150000J0D01*
G01*
X107225000Y-85600000D01*
G75*
G02*
X107375000Y-85750000I0J-150000D01*
G01*
X107375000Y-86050000D01*
G75*
G02*
X107225000Y-86200000I-150000J0D01*
G01*
X105575000Y-86200000D01*
G75*
G02*
X105425000Y-86050000I0J150000D01*
G01*
G37*
G36*
G01*
X105425000Y-87320000D02*
X105425000Y-87020000D01*
G75*
G02*
X105575000Y-86870000I150000J0D01*
G01*
X107225000Y-86870000D01*
G75*
G02*
X107375000Y-87020000I0J-150000D01*
G01*
X107375000Y-87320000D01*
G75*
G02*
X107225000Y-87470000I-150000J0D01*
G01*
X105575000Y-87470000D01*
G75*
G02*
X105425000Y-87320000I0J150000D01*
G01*
G37*
G36*
G01*
X105425000Y-88590000D02*
X105425000Y-88290000D01*
G75*
G02*
X105575000Y-88140000I150000J0D01*
G01*
X107225000Y-88140000D01*
G75*
G02*
X107375000Y-88290000I0J-150000D01*
G01*
X107375000Y-88590000D01*
G75*
G02*
X107225000Y-88740000I-150000J0D01*
G01*
X105575000Y-88740000D01*
G75*
G02*
X105425000Y-88590000I0J150000D01*
G01*
G37*
G36*
G01*
X105425000Y-89860000D02*
X105425000Y-89560000D01*
G75*
G02*
X105575000Y-89410000I150000J0D01*
G01*
X107225000Y-89410000D01*
G75*
G02*
X107375000Y-89560000I0J-150000D01*
G01*
X107375000Y-89860000D01*
G75*
G02*
X107225000Y-90010000I-150000J0D01*
G01*
X105575000Y-90010000D01*
G75*
G02*
X105425000Y-89860000I0J150000D01*
G01*
G37*
G36*
G01*
X100475000Y-89860000D02*
X100475000Y-89560000D01*
G75*
G02*
X100625000Y-89410000I150000J0D01*
G01*
X102275000Y-89410000D01*
G75*
G02*
X102425000Y-89560000I0J-150000D01*
G01*
X102425000Y-89860000D01*
G75*
G02*
X102275000Y-90010000I-150000J0D01*
G01*
X100625000Y-90010000D01*
G75*
G02*
X100475000Y-89860000I0J150000D01*
G01*
G37*
G36*
G01*
X100475000Y-88590000D02*
X100475000Y-88290000D01*
G75*
G02*
X100625000Y-88140000I150000J0D01*
G01*
X102275000Y-88140000D01*
G75*
G02*
X102425000Y-88290000I0J-150000D01*
G01*
X102425000Y-88590000D01*
G75*
G02*
X102275000Y-88740000I-150000J0D01*
G01*
X100625000Y-88740000D01*
G75*
G02*
X100475000Y-88590000I0J150000D01*
G01*
G37*
G36*
G01*
X100475000Y-87320000D02*
X100475000Y-87020000D01*
G75*
G02*
X100625000Y-86870000I150000J0D01*
G01*
X102275000Y-86870000D01*
G75*
G02*
X102425000Y-87020000I0J-150000D01*
G01*
X102425000Y-87320000D01*
G75*
G02*
X102275000Y-87470000I-150000J0D01*
G01*
X100625000Y-87470000D01*
G75*
G02*
X100475000Y-87320000I0J150000D01*
G01*
G37*
G36*
G01*
X100475000Y-86050000D02*
X100475000Y-85750000D01*
G75*
G02*
X100625000Y-85600000I150000J0D01*
G01*
X102275000Y-85600000D01*
G75*
G02*
X102425000Y-85750000I0J-150000D01*
G01*
X102425000Y-86050000D01*
G75*
G02*
X102275000Y-86200000I-150000J0D01*
G01*
X100625000Y-86200000D01*
G75*
G02*
X100475000Y-86050000I0J150000D01*
G01*
G37*
%TD*%
%TO.C,R130*%
G36*
G01*
X108450000Y-166485000D02*
X108450000Y-166115000D01*
G75*
G02*
X108585000Y-165980000I135000J0D01*
G01*
X108855000Y-165980000D01*
G75*
G02*
X108990000Y-166115000I0J-135000D01*
G01*
X108990000Y-166485000D01*
G75*
G02*
X108855000Y-166620000I-135000J0D01*
G01*
X108585000Y-166620000D01*
G75*
G02*
X108450000Y-166485000I0J135000D01*
G01*
G37*
G36*
G01*
X107430000Y-166485000D02*
X107430000Y-166115000D01*
G75*
G02*
X107565000Y-165980000I135000J0D01*
G01*
X107835000Y-165980000D01*
G75*
G02*
X107970000Y-166115000I0J-135000D01*
G01*
X107970000Y-166485000D01*
G75*
G02*
X107835000Y-166620000I-135000J0D01*
G01*
X107565000Y-166620000D01*
G75*
G02*
X107430000Y-166485000I0J135000D01*
G01*
G37*
%TD*%
%TO.C,R129*%
G36*
G01*
X108630000Y-101485000D02*
X108630000Y-101115000D01*
G75*
G02*
X108765000Y-100980000I135000J0D01*
G01*
X109035000Y-100980000D01*
G75*
G02*
X109170000Y-101115000I0J-135000D01*
G01*
X109170000Y-101485000D01*
G75*
G02*
X109035000Y-101620000I-135000J0D01*
G01*
X108765000Y-101620000D01*
G75*
G02*
X108630000Y-101485000I0J135000D01*
G01*
G37*
G36*
G01*
X107610000Y-101485000D02*
X107610000Y-101115000D01*
G75*
G02*
X107745000Y-100980000I135000J0D01*
G01*
X108015000Y-100980000D01*
G75*
G02*
X108150000Y-101115000I0J-135000D01*
G01*
X108150000Y-101485000D01*
G75*
G02*
X108015000Y-101620000I-135000J0D01*
G01*
X107745000Y-101620000D01*
G75*
G02*
X107610000Y-101485000I0J135000D01*
G01*
G37*
%TD*%
%TO.C,R128*%
G36*
G01*
X108170000Y-104015000D02*
X108170000Y-104385000D01*
G75*
G02*
X108035000Y-104520000I-135000J0D01*
G01*
X107765000Y-104520000D01*
G75*
G02*
X107630000Y-104385000I0J135000D01*
G01*
X107630000Y-104015000D01*
G75*
G02*
X107765000Y-103880000I135000J0D01*
G01*
X108035000Y-103880000D01*
G75*
G02*
X108170000Y-104015000I0J-135000D01*
G01*
G37*
G36*
G01*
X109190000Y-104015000D02*
X109190000Y-104385000D01*
G75*
G02*
X109055000Y-104520000I-135000J0D01*
G01*
X108785000Y-104520000D01*
G75*
G02*
X108650000Y-104385000I0J135000D01*
G01*
X108650000Y-104015000D01*
G75*
G02*
X108785000Y-103880000I135000J0D01*
G01*
X109055000Y-103880000D01*
G75*
G02*
X109190000Y-104015000I0J-135000D01*
G01*
G37*
%TD*%
%TO.C,R127*%
G36*
G01*
X108170000Y-102715000D02*
X108170000Y-103085000D01*
G75*
G02*
X108035000Y-103220000I-135000J0D01*
G01*
X107765000Y-103220000D01*
G75*
G02*
X107630000Y-103085000I0J135000D01*
G01*
X107630000Y-102715000D01*
G75*
G02*
X107765000Y-102580000I135000J0D01*
G01*
X108035000Y-102580000D01*
G75*
G02*
X108170000Y-102715000I0J-135000D01*
G01*
G37*
G36*
G01*
X109190000Y-102715000D02*
X109190000Y-103085000D01*
G75*
G02*
X109055000Y-103220000I-135000J0D01*
G01*
X108785000Y-103220000D01*
G75*
G02*
X108650000Y-103085000I0J135000D01*
G01*
X108650000Y-102715000D01*
G75*
G02*
X108785000Y-102580000I135000J0D01*
G01*
X109055000Y-102580000D01*
G75*
G02*
X109190000Y-102715000I0J-135000D01*
G01*
G37*
%TD*%
%TO.C,R126*%
G36*
G01*
X115630000Y-100685000D02*
X115630000Y-100315000D01*
G75*
G02*
X115765000Y-100180000I135000J0D01*
G01*
X116035000Y-100180000D01*
G75*
G02*
X116170000Y-100315000I0J-135000D01*
G01*
X116170000Y-100685000D01*
G75*
G02*
X116035000Y-100820000I-135000J0D01*
G01*
X115765000Y-100820000D01*
G75*
G02*
X115630000Y-100685000I0J135000D01*
G01*
G37*
G36*
G01*
X114610000Y-100685000D02*
X114610000Y-100315000D01*
G75*
G02*
X114745000Y-100180000I135000J0D01*
G01*
X115015000Y-100180000D01*
G75*
G02*
X115150000Y-100315000I0J-135000D01*
G01*
X115150000Y-100685000D01*
G75*
G02*
X115015000Y-100820000I-135000J0D01*
G01*
X114745000Y-100820000D01*
G75*
G02*
X114610000Y-100685000I0J135000D01*
G01*
G37*
%TD*%
%TO.C,R125*%
G36*
G01*
X129140000Y-146885000D02*
X129140000Y-146515000D01*
G75*
G02*
X129275000Y-146380000I135000J0D01*
G01*
X129545000Y-146380000D01*
G75*
G02*
X129680000Y-146515000I0J-135000D01*
G01*
X129680000Y-146885000D01*
G75*
G02*
X129545000Y-147020000I-135000J0D01*
G01*
X129275000Y-147020000D01*
G75*
G02*
X129140000Y-146885000I0J135000D01*
G01*
G37*
G36*
G01*
X128120000Y-146885000D02*
X128120000Y-146515000D01*
G75*
G02*
X128255000Y-146380000I135000J0D01*
G01*
X128525000Y-146380000D01*
G75*
G02*
X128660000Y-146515000I0J-135000D01*
G01*
X128660000Y-146885000D01*
G75*
G02*
X128525000Y-147020000I-135000J0D01*
G01*
X128255000Y-147020000D01*
G75*
G02*
X128120000Y-146885000I0J135000D01*
G01*
G37*
%TD*%
%TO.C,R124*%
G36*
G01*
X115630000Y-99485000D02*
X115630000Y-99115000D01*
G75*
G02*
X115765000Y-98980000I135000J0D01*
G01*
X116035000Y-98980000D01*
G75*
G02*
X116170000Y-99115000I0J-135000D01*
G01*
X116170000Y-99485000D01*
G75*
G02*
X116035000Y-99620000I-135000J0D01*
G01*
X115765000Y-99620000D01*
G75*
G02*
X115630000Y-99485000I0J135000D01*
G01*
G37*
G36*
G01*
X114610000Y-99485000D02*
X114610000Y-99115000D01*
G75*
G02*
X114745000Y-98980000I135000J0D01*
G01*
X115015000Y-98980000D01*
G75*
G02*
X115150000Y-99115000I0J-135000D01*
G01*
X115150000Y-99485000D01*
G75*
G02*
X115015000Y-99620000I-135000J0D01*
G01*
X114745000Y-99620000D01*
G75*
G02*
X114610000Y-99485000I0J135000D01*
G01*
G37*
%TD*%
%TO.C,R123*%
G36*
G01*
X125530000Y-126985000D02*
X125530000Y-126615000D01*
G75*
G02*
X125665000Y-126480000I135000J0D01*
G01*
X125935000Y-126480000D01*
G75*
G02*
X126070000Y-126615000I0J-135000D01*
G01*
X126070000Y-126985000D01*
G75*
G02*
X125935000Y-127120000I-135000J0D01*
G01*
X125665000Y-127120000D01*
G75*
G02*
X125530000Y-126985000I0J135000D01*
G01*
G37*
G36*
G01*
X124510000Y-126985000D02*
X124510000Y-126615000D01*
G75*
G02*
X124645000Y-126480000I135000J0D01*
G01*
X124915000Y-126480000D01*
G75*
G02*
X125050000Y-126615000I0J-135000D01*
G01*
X125050000Y-126985000D01*
G75*
G02*
X124915000Y-127120000I-135000J0D01*
G01*
X124645000Y-127120000D01*
G75*
G02*
X124510000Y-126985000I0J135000D01*
G01*
G37*
%TD*%
%TO.C,R122*%
G36*
G01*
X117230000Y-126985000D02*
X117230000Y-126615000D01*
G75*
G02*
X117365000Y-126480000I135000J0D01*
G01*
X117635000Y-126480000D01*
G75*
G02*
X117770000Y-126615000I0J-135000D01*
G01*
X117770000Y-126985000D01*
G75*
G02*
X117635000Y-127120000I-135000J0D01*
G01*
X117365000Y-127120000D01*
G75*
G02*
X117230000Y-126985000I0J135000D01*
G01*
G37*
G36*
G01*
X116210000Y-126985000D02*
X116210000Y-126615000D01*
G75*
G02*
X116345000Y-126480000I135000J0D01*
G01*
X116615000Y-126480000D01*
G75*
G02*
X116750000Y-126615000I0J-135000D01*
G01*
X116750000Y-126985000D01*
G75*
G02*
X116615000Y-127120000I-135000J0D01*
G01*
X116345000Y-127120000D01*
G75*
G02*
X116210000Y-126985000I0J135000D01*
G01*
G37*
%TD*%
%TO.C,R121*%
G36*
G01*
X119930000Y-84485000D02*
X119930000Y-84115000D01*
G75*
G02*
X120065000Y-83980000I135000J0D01*
G01*
X120335000Y-83980000D01*
G75*
G02*
X120470000Y-84115000I0J-135000D01*
G01*
X120470000Y-84485000D01*
G75*
G02*
X120335000Y-84620000I-135000J0D01*
G01*
X120065000Y-84620000D01*
G75*
G02*
X119930000Y-84485000I0J135000D01*
G01*
G37*
G36*
G01*
X118910000Y-84485000D02*
X118910000Y-84115000D01*
G75*
G02*
X119045000Y-83980000I135000J0D01*
G01*
X119315000Y-83980000D01*
G75*
G02*
X119450000Y-84115000I0J-135000D01*
G01*
X119450000Y-84485000D01*
G75*
G02*
X119315000Y-84620000I-135000J0D01*
G01*
X119045000Y-84620000D01*
G75*
G02*
X118910000Y-84485000I0J135000D01*
G01*
G37*
%TD*%
%TO.C,R120*%
G36*
G01*
X121530000Y-126985000D02*
X121530000Y-126615000D01*
G75*
G02*
X121665000Y-126480000I135000J0D01*
G01*
X121935000Y-126480000D01*
G75*
G02*
X122070000Y-126615000I0J-135000D01*
G01*
X122070000Y-126985000D01*
G75*
G02*
X121935000Y-127120000I-135000J0D01*
G01*
X121665000Y-127120000D01*
G75*
G02*
X121530000Y-126985000I0J135000D01*
G01*
G37*
G36*
G01*
X120510000Y-126985000D02*
X120510000Y-126615000D01*
G75*
G02*
X120645000Y-126480000I135000J0D01*
G01*
X120915000Y-126480000D01*
G75*
G02*
X121050000Y-126615000I0J-135000D01*
G01*
X121050000Y-126985000D01*
G75*
G02*
X120915000Y-127120000I-135000J0D01*
G01*
X120645000Y-127120000D01*
G75*
G02*
X120510000Y-126985000I0J135000D01*
G01*
G37*
%TD*%
%TO.C,R119*%
G36*
G01*
X119330000Y-126985000D02*
X119330000Y-126615000D01*
G75*
G02*
X119465000Y-126480000I135000J0D01*
G01*
X119735000Y-126480000D01*
G75*
G02*
X119870000Y-126615000I0J-135000D01*
G01*
X119870000Y-126985000D01*
G75*
G02*
X119735000Y-127120000I-135000J0D01*
G01*
X119465000Y-127120000D01*
G75*
G02*
X119330000Y-126985000I0J135000D01*
G01*
G37*
G36*
G01*
X118310000Y-126985000D02*
X118310000Y-126615000D01*
G75*
G02*
X118445000Y-126480000I135000J0D01*
G01*
X118715000Y-126480000D01*
G75*
G02*
X118850000Y-126615000I0J-135000D01*
G01*
X118850000Y-126985000D01*
G75*
G02*
X118715000Y-127120000I-135000J0D01*
G01*
X118445000Y-127120000D01*
G75*
G02*
X118310000Y-126985000I0J135000D01*
G01*
G37*
%TD*%
%TO.C,R118*%
G36*
G01*
X101870000Y-128415000D02*
X101870000Y-128785000D01*
G75*
G02*
X101735000Y-128920000I-135000J0D01*
G01*
X101465000Y-128920000D01*
G75*
G02*
X101330000Y-128785000I0J135000D01*
G01*
X101330000Y-128415000D01*
G75*
G02*
X101465000Y-128280000I135000J0D01*
G01*
X101735000Y-128280000D01*
G75*
G02*
X101870000Y-128415000I0J-135000D01*
G01*
G37*
G36*
G01*
X102890000Y-128415000D02*
X102890000Y-128785000D01*
G75*
G02*
X102755000Y-128920000I-135000J0D01*
G01*
X102485000Y-128920000D01*
G75*
G02*
X102350000Y-128785000I0J135000D01*
G01*
X102350000Y-128415000D01*
G75*
G02*
X102485000Y-128280000I135000J0D01*
G01*
X102755000Y-128280000D01*
G75*
G02*
X102890000Y-128415000I0J-135000D01*
G01*
G37*
%TD*%
%TO.C,R117*%
G36*
G01*
X117450000Y-84115000D02*
X117450000Y-84485000D01*
G75*
G02*
X117315000Y-84620000I-135000J0D01*
G01*
X117045000Y-84620000D01*
G75*
G02*
X116910000Y-84485000I0J135000D01*
G01*
X116910000Y-84115000D01*
G75*
G02*
X117045000Y-83980000I135000J0D01*
G01*
X117315000Y-83980000D01*
G75*
G02*
X117450000Y-84115000I0J-135000D01*
G01*
G37*
G36*
G01*
X118470000Y-84115000D02*
X118470000Y-84485000D01*
G75*
G02*
X118335000Y-84620000I-135000J0D01*
G01*
X118065000Y-84620000D01*
G75*
G02*
X117930000Y-84485000I0J135000D01*
G01*
X117930000Y-84115000D01*
G75*
G02*
X118065000Y-83980000I135000J0D01*
G01*
X118335000Y-83980000D01*
G75*
G02*
X118470000Y-84115000I0J-135000D01*
G01*
G37*
%TD*%
%TO.C,R116*%
G36*
G01*
X115830000Y-84485000D02*
X115830000Y-84115000D01*
G75*
G02*
X115965000Y-83980000I135000J0D01*
G01*
X116235000Y-83980000D01*
G75*
G02*
X116370000Y-84115000I0J-135000D01*
G01*
X116370000Y-84485000D01*
G75*
G02*
X116235000Y-84620000I-135000J0D01*
G01*
X115965000Y-84620000D01*
G75*
G02*
X115830000Y-84485000I0J135000D01*
G01*
G37*
G36*
G01*
X114810000Y-84485000D02*
X114810000Y-84115000D01*
G75*
G02*
X114945000Y-83980000I135000J0D01*
G01*
X115215000Y-83980000D01*
G75*
G02*
X115350000Y-84115000I0J-135000D01*
G01*
X115350000Y-84485000D01*
G75*
G02*
X115215000Y-84620000I-135000J0D01*
G01*
X114945000Y-84620000D01*
G75*
G02*
X114810000Y-84485000I0J135000D01*
G01*
G37*
%TD*%
%TO.C,R115*%
G36*
G01*
X125730000Y-138085000D02*
X125730000Y-137715000D01*
G75*
G02*
X125865000Y-137580000I135000J0D01*
G01*
X126135000Y-137580000D01*
G75*
G02*
X126270000Y-137715000I0J-135000D01*
G01*
X126270000Y-138085000D01*
G75*
G02*
X126135000Y-138220000I-135000J0D01*
G01*
X125865000Y-138220000D01*
G75*
G02*
X125730000Y-138085000I0J135000D01*
G01*
G37*
G36*
G01*
X124710000Y-138085000D02*
X124710000Y-137715000D01*
G75*
G02*
X124845000Y-137580000I135000J0D01*
G01*
X125115000Y-137580000D01*
G75*
G02*
X125250000Y-137715000I0J-135000D01*
G01*
X125250000Y-138085000D01*
G75*
G02*
X125115000Y-138220000I-135000J0D01*
G01*
X124845000Y-138220000D01*
G75*
G02*
X124710000Y-138085000I0J135000D01*
G01*
G37*
%TD*%
%TO.C,R114*%
G36*
G01*
X102330000Y-127185000D02*
X102330000Y-126815000D01*
G75*
G02*
X102465000Y-126680000I135000J0D01*
G01*
X102735000Y-126680000D01*
G75*
G02*
X102870000Y-126815000I0J-135000D01*
G01*
X102870000Y-127185000D01*
G75*
G02*
X102735000Y-127320000I-135000J0D01*
G01*
X102465000Y-127320000D01*
G75*
G02*
X102330000Y-127185000I0J135000D01*
G01*
G37*
G36*
G01*
X101310000Y-127185000D02*
X101310000Y-126815000D01*
G75*
G02*
X101445000Y-126680000I135000J0D01*
G01*
X101715000Y-126680000D01*
G75*
G02*
X101850000Y-126815000I0J-135000D01*
G01*
X101850000Y-127185000D01*
G75*
G02*
X101715000Y-127320000I-135000J0D01*
G01*
X101445000Y-127320000D01*
G75*
G02*
X101310000Y-127185000I0J135000D01*
G01*
G37*
%TD*%
%TO.C,R113*%
G36*
G01*
X129230000Y-141985000D02*
X129230000Y-141615000D01*
G75*
G02*
X129365000Y-141480000I135000J0D01*
G01*
X129635000Y-141480000D01*
G75*
G02*
X129770000Y-141615000I0J-135000D01*
G01*
X129770000Y-141985000D01*
G75*
G02*
X129635000Y-142120000I-135000J0D01*
G01*
X129365000Y-142120000D01*
G75*
G02*
X129230000Y-141985000I0J135000D01*
G01*
G37*
G36*
G01*
X128210000Y-141985000D02*
X128210000Y-141615000D01*
G75*
G02*
X128345000Y-141480000I135000J0D01*
G01*
X128615000Y-141480000D01*
G75*
G02*
X128750000Y-141615000I0J-135000D01*
G01*
X128750000Y-141985000D01*
G75*
G02*
X128615000Y-142120000I-135000J0D01*
G01*
X128345000Y-142120000D01*
G75*
G02*
X128210000Y-141985000I0J135000D01*
G01*
G37*
%TD*%
%TO.C,R112*%
G36*
G01*
X101870000Y-130915000D02*
X101870000Y-131285000D01*
G75*
G02*
X101735000Y-131420000I-135000J0D01*
G01*
X101465000Y-131420000D01*
G75*
G02*
X101330000Y-131285000I0J135000D01*
G01*
X101330000Y-130915000D01*
G75*
G02*
X101465000Y-130780000I135000J0D01*
G01*
X101735000Y-130780000D01*
G75*
G02*
X101870000Y-130915000I0J-135000D01*
G01*
G37*
G36*
G01*
X102890000Y-130915000D02*
X102890000Y-131285000D01*
G75*
G02*
X102755000Y-131420000I-135000J0D01*
G01*
X102485000Y-131420000D01*
G75*
G02*
X102350000Y-131285000I0J135000D01*
G01*
X102350000Y-130915000D01*
G75*
G02*
X102485000Y-130780000I135000J0D01*
G01*
X102755000Y-130780000D01*
G75*
G02*
X102890000Y-130915000I0J-135000D01*
G01*
G37*
%TD*%
%TO.C,R111*%
G36*
G01*
X100950000Y-84315000D02*
X100950000Y-84685000D01*
G75*
G02*
X100815000Y-84820000I-135000J0D01*
G01*
X100545000Y-84820000D01*
G75*
G02*
X100410000Y-84685000I0J135000D01*
G01*
X100410000Y-84315000D01*
G75*
G02*
X100545000Y-84180000I135000J0D01*
G01*
X100815000Y-84180000D01*
G75*
G02*
X100950000Y-84315000I0J-135000D01*
G01*
G37*
G36*
G01*
X101970000Y-84315000D02*
X101970000Y-84685000D01*
G75*
G02*
X101835000Y-84820000I-135000J0D01*
G01*
X101565000Y-84820000D01*
G75*
G02*
X101430000Y-84685000I0J135000D01*
G01*
X101430000Y-84315000D01*
G75*
G02*
X101565000Y-84180000I135000J0D01*
G01*
X101835000Y-84180000D01*
G75*
G02*
X101970000Y-84315000I0J-135000D01*
G01*
G37*
%TD*%
%TO.C,R110*%
G36*
G01*
X127670000Y-90715000D02*
X127670000Y-91085000D01*
G75*
G02*
X127535000Y-91220000I-135000J0D01*
G01*
X127265000Y-91220000D01*
G75*
G02*
X127130000Y-91085000I0J135000D01*
G01*
X127130000Y-90715000D01*
G75*
G02*
X127265000Y-90580000I135000J0D01*
G01*
X127535000Y-90580000D01*
G75*
G02*
X127670000Y-90715000I0J-135000D01*
G01*
G37*
G36*
G01*
X128690000Y-90715000D02*
X128690000Y-91085000D01*
G75*
G02*
X128555000Y-91220000I-135000J0D01*
G01*
X128285000Y-91220000D01*
G75*
G02*
X128150000Y-91085000I0J135000D01*
G01*
X128150000Y-90715000D01*
G75*
G02*
X128285000Y-90580000I135000J0D01*
G01*
X128555000Y-90580000D01*
G75*
G02*
X128690000Y-90715000I0J-135000D01*
G01*
G37*
%TD*%
%TO.C,R109*%
G36*
G01*
X124085000Y-111270000D02*
X123715000Y-111270000D01*
G75*
G02*
X123580000Y-111135000I0J135000D01*
G01*
X123580000Y-110865000D01*
G75*
G02*
X123715000Y-110730000I135000J0D01*
G01*
X124085000Y-110730000D01*
G75*
G02*
X124220000Y-110865000I0J-135000D01*
G01*
X124220000Y-111135000D01*
G75*
G02*
X124085000Y-111270000I-135000J0D01*
G01*
G37*
G36*
G01*
X124085000Y-112290000D02*
X123715000Y-112290000D01*
G75*
G02*
X123580000Y-112155000I0J135000D01*
G01*
X123580000Y-111885000D01*
G75*
G02*
X123715000Y-111750000I135000J0D01*
G01*
X124085000Y-111750000D01*
G75*
G02*
X124220000Y-111885000I0J-135000D01*
G01*
X124220000Y-112155000D01*
G75*
G02*
X124085000Y-112290000I-135000J0D01*
G01*
G37*
%TD*%
%TO.C,R108*%
G36*
G01*
X108430000Y-168785000D02*
X108430000Y-168415000D01*
G75*
G02*
X108565000Y-168280000I135000J0D01*
G01*
X108835000Y-168280000D01*
G75*
G02*
X108970000Y-168415000I0J-135000D01*
G01*
X108970000Y-168785000D01*
G75*
G02*
X108835000Y-168920000I-135000J0D01*
G01*
X108565000Y-168920000D01*
G75*
G02*
X108430000Y-168785000I0J135000D01*
G01*
G37*
G36*
G01*
X107410000Y-168785000D02*
X107410000Y-168415000D01*
G75*
G02*
X107545000Y-168280000I135000J0D01*
G01*
X107815000Y-168280000D01*
G75*
G02*
X107950000Y-168415000I0J-135000D01*
G01*
X107950000Y-168785000D01*
G75*
G02*
X107815000Y-168920000I-135000J0D01*
G01*
X107545000Y-168920000D01*
G75*
G02*
X107410000Y-168785000I0J135000D01*
G01*
G37*
%TD*%
%TO.C,R107*%
G36*
G01*
X104850000Y-91285000D02*
X104850000Y-90915000D01*
G75*
G02*
X104985000Y-90780000I135000J0D01*
G01*
X105255000Y-90780000D01*
G75*
G02*
X105390000Y-90915000I0J-135000D01*
G01*
X105390000Y-91285000D01*
G75*
G02*
X105255000Y-91420000I-135000J0D01*
G01*
X104985000Y-91420000D01*
G75*
G02*
X104850000Y-91285000I0J135000D01*
G01*
G37*
G36*
G01*
X103830000Y-91285000D02*
X103830000Y-90915000D01*
G75*
G02*
X103965000Y-90780000I135000J0D01*
G01*
X104235000Y-90780000D01*
G75*
G02*
X104370000Y-90915000I0J-135000D01*
G01*
X104370000Y-91285000D01*
G75*
G02*
X104235000Y-91420000I-135000J0D01*
G01*
X103965000Y-91420000D01*
G75*
G02*
X103830000Y-91285000I0J135000D01*
G01*
G37*
%TD*%
%TO.C,R106*%
G36*
G01*
X111350000Y-84115000D02*
X111350000Y-84485000D01*
G75*
G02*
X111215000Y-84620000I-135000J0D01*
G01*
X110945000Y-84620000D01*
G75*
G02*
X110810000Y-84485000I0J135000D01*
G01*
X110810000Y-84115000D01*
G75*
G02*
X110945000Y-83980000I135000J0D01*
G01*
X111215000Y-83980000D01*
G75*
G02*
X111350000Y-84115000I0J-135000D01*
G01*
G37*
G36*
G01*
X112370000Y-84115000D02*
X112370000Y-84485000D01*
G75*
G02*
X112235000Y-84620000I-135000J0D01*
G01*
X111965000Y-84620000D01*
G75*
G02*
X111830000Y-84485000I0J135000D01*
G01*
X111830000Y-84115000D01*
G75*
G02*
X111965000Y-83980000I135000J0D01*
G01*
X112235000Y-83980000D01*
G75*
G02*
X112370000Y-84115000I0J-135000D01*
G01*
G37*
%TD*%
%TO.C,R105*%
G36*
G01*
X113350000Y-84115000D02*
X113350000Y-84485000D01*
G75*
G02*
X113215000Y-84620000I-135000J0D01*
G01*
X112945000Y-84620000D01*
G75*
G02*
X112810000Y-84485000I0J135000D01*
G01*
X112810000Y-84115000D01*
G75*
G02*
X112945000Y-83980000I135000J0D01*
G01*
X113215000Y-83980000D01*
G75*
G02*
X113350000Y-84115000I0J-135000D01*
G01*
G37*
G36*
G01*
X114370000Y-84115000D02*
X114370000Y-84485000D01*
G75*
G02*
X114235000Y-84620000I-135000J0D01*
G01*
X113965000Y-84620000D01*
G75*
G02*
X113830000Y-84485000I0J135000D01*
G01*
X113830000Y-84115000D01*
G75*
G02*
X113965000Y-83980000I135000J0D01*
G01*
X114235000Y-83980000D01*
G75*
G02*
X114370000Y-84115000I0J-135000D01*
G01*
G37*
%TD*%
%TO.C,R104*%
G36*
G01*
X106450000Y-90915000D02*
X106450000Y-91285000D01*
G75*
G02*
X106315000Y-91420000I-135000J0D01*
G01*
X106045000Y-91420000D01*
G75*
G02*
X105910000Y-91285000I0J135000D01*
G01*
X105910000Y-90915000D01*
G75*
G02*
X106045000Y-90780000I135000J0D01*
G01*
X106315000Y-90780000D01*
G75*
G02*
X106450000Y-90915000I0J-135000D01*
G01*
G37*
G36*
G01*
X107470000Y-90915000D02*
X107470000Y-91285000D01*
G75*
G02*
X107335000Y-91420000I-135000J0D01*
G01*
X107065000Y-91420000D01*
G75*
G02*
X106930000Y-91285000I0J135000D01*
G01*
X106930000Y-90915000D01*
G75*
G02*
X107065000Y-90780000I135000J0D01*
G01*
X107335000Y-90780000D01*
G75*
G02*
X107470000Y-90915000I0J-135000D01*
G01*
G37*
%TD*%
%TO.C,R103*%
G36*
G01*
X115750000Y-125515000D02*
X115750000Y-125885000D01*
G75*
G02*
X115615000Y-126020000I-135000J0D01*
G01*
X115345000Y-126020000D01*
G75*
G02*
X115210000Y-125885000I0J135000D01*
G01*
X115210000Y-125515000D01*
G75*
G02*
X115345000Y-125380000I135000J0D01*
G01*
X115615000Y-125380000D01*
G75*
G02*
X115750000Y-125515000I0J-135000D01*
G01*
G37*
G36*
G01*
X116770000Y-125515000D02*
X116770000Y-125885000D01*
G75*
G02*
X116635000Y-126020000I-135000J0D01*
G01*
X116365000Y-126020000D01*
G75*
G02*
X116230000Y-125885000I0J135000D01*
G01*
X116230000Y-125515000D01*
G75*
G02*
X116365000Y-125380000I135000J0D01*
G01*
X116635000Y-125380000D01*
G75*
G02*
X116770000Y-125515000I0J-135000D01*
G01*
G37*
%TD*%
%TO.C,R102*%
G36*
G01*
X129230000Y-145385000D02*
X129230000Y-145015000D01*
G75*
G02*
X129365000Y-144880000I135000J0D01*
G01*
X129635000Y-144880000D01*
G75*
G02*
X129770000Y-145015000I0J-135000D01*
G01*
X129770000Y-145385000D01*
G75*
G02*
X129635000Y-145520000I-135000J0D01*
G01*
X129365000Y-145520000D01*
G75*
G02*
X129230000Y-145385000I0J135000D01*
G01*
G37*
G36*
G01*
X128210000Y-145385000D02*
X128210000Y-145015000D01*
G75*
G02*
X128345000Y-144880000I135000J0D01*
G01*
X128615000Y-144880000D01*
G75*
G02*
X128750000Y-145015000I0J-135000D01*
G01*
X128750000Y-145385000D01*
G75*
G02*
X128615000Y-145520000I-135000J0D01*
G01*
X128345000Y-145520000D01*
G75*
G02*
X128210000Y-145385000I0J135000D01*
G01*
G37*
%TD*%
%TO.C,R101*%
G36*
G01*
X129230000Y-143785000D02*
X129230000Y-143415000D01*
G75*
G02*
X129365000Y-143280000I135000J0D01*
G01*
X129635000Y-143280000D01*
G75*
G02*
X129770000Y-143415000I0J-135000D01*
G01*
X129770000Y-143785000D01*
G75*
G02*
X129635000Y-143920000I-135000J0D01*
G01*
X129365000Y-143920000D01*
G75*
G02*
X129230000Y-143785000I0J135000D01*
G01*
G37*
G36*
G01*
X128210000Y-143785000D02*
X128210000Y-143415000D01*
G75*
G02*
X128345000Y-143280000I135000J0D01*
G01*
X128615000Y-143280000D01*
G75*
G02*
X128750000Y-143415000I0J-135000D01*
G01*
X128750000Y-143785000D01*
G75*
G02*
X128615000Y-143920000I-135000J0D01*
G01*
X128345000Y-143920000D01*
G75*
G02*
X128210000Y-143785000I0J135000D01*
G01*
G37*
%TD*%
D10*
%TO.C,Q102*%
X127560000Y-116750000D03*
X127560000Y-117400000D03*
X127560000Y-118050000D03*
X124900000Y-118050000D03*
X124900000Y-117400000D03*
X124900000Y-116750000D03*
%TD*%
%TO.C,C117*%
G36*
G01*
X108020000Y-167330000D02*
X108020000Y-167670000D01*
G75*
G02*
X107880000Y-167810000I-140000J0D01*
G01*
X107600000Y-167810000D01*
G75*
G02*
X107460000Y-167670000I0J140000D01*
G01*
X107460000Y-167330000D01*
G75*
G02*
X107600000Y-167190000I140000J0D01*
G01*
X107880000Y-167190000D01*
G75*
G02*
X108020000Y-167330000I0J-140000D01*
G01*
G37*
G36*
G01*
X108980000Y-167330000D02*
X108980000Y-167670000D01*
G75*
G02*
X108840000Y-167810000I-140000J0D01*
G01*
X108560000Y-167810000D01*
G75*
G02*
X108420000Y-167670000I0J140000D01*
G01*
X108420000Y-167330000D01*
G75*
G02*
X108560000Y-167190000I140000J0D01*
G01*
X108840000Y-167190000D01*
G75*
G02*
X108980000Y-167330000I0J-140000D01*
G01*
G37*
%TD*%
%TO.C,C116*%
G36*
G01*
X106330000Y-120120000D02*
X106670000Y-120120000D01*
G75*
G02*
X106810000Y-120260000I0J-140000D01*
G01*
X106810000Y-120540000D01*
G75*
G02*
X106670000Y-120680000I-140000J0D01*
G01*
X106330000Y-120680000D01*
G75*
G02*
X106190000Y-120540000I0J140000D01*
G01*
X106190000Y-120260000D01*
G75*
G02*
X106330000Y-120120000I140000J0D01*
G01*
G37*
G36*
G01*
X106330000Y-119160000D02*
X106670000Y-119160000D01*
G75*
G02*
X106810000Y-119300000I0J-140000D01*
G01*
X106810000Y-119580000D01*
G75*
G02*
X106670000Y-119720000I-140000J0D01*
G01*
X106330000Y-119720000D01*
G75*
G02*
X106190000Y-119580000I0J140000D01*
G01*
X106190000Y-119300000D01*
G75*
G02*
X106330000Y-119160000I140000J0D01*
G01*
G37*
%TD*%
%TO.C,C115*%
G36*
G01*
X106330000Y-110980000D02*
X106670000Y-110980000D01*
G75*
G02*
X106810000Y-111120000I0J-140000D01*
G01*
X106810000Y-111400000D01*
G75*
G02*
X106670000Y-111540000I-140000J0D01*
G01*
X106330000Y-111540000D01*
G75*
G02*
X106190000Y-111400000I0J140000D01*
G01*
X106190000Y-111120000D01*
G75*
G02*
X106330000Y-110980000I140000J0D01*
G01*
G37*
G36*
G01*
X106330000Y-110020000D02*
X106670000Y-110020000D01*
G75*
G02*
X106810000Y-110160000I0J-140000D01*
G01*
X106810000Y-110440000D01*
G75*
G02*
X106670000Y-110580000I-140000J0D01*
G01*
X106330000Y-110580000D01*
G75*
G02*
X106190000Y-110440000I0J140000D01*
G01*
X106190000Y-110160000D01*
G75*
G02*
X106330000Y-110020000I140000J0D01*
G01*
G37*
%TD*%
%TO.C,C114*%
G36*
G01*
X124020000Y-107830000D02*
X124020000Y-108170000D01*
G75*
G02*
X123880000Y-108310000I-140000J0D01*
G01*
X123600000Y-108310000D01*
G75*
G02*
X123460000Y-108170000I0J140000D01*
G01*
X123460000Y-107830000D01*
G75*
G02*
X123600000Y-107690000I140000J0D01*
G01*
X123880000Y-107690000D01*
G75*
G02*
X124020000Y-107830000I0J-140000D01*
G01*
G37*
G36*
G01*
X124980000Y-107830000D02*
X124980000Y-108170000D01*
G75*
G02*
X124840000Y-108310000I-140000J0D01*
G01*
X124560000Y-108310000D01*
G75*
G02*
X124420000Y-108170000I0J140000D01*
G01*
X124420000Y-107830000D01*
G75*
G02*
X124560000Y-107690000I140000J0D01*
G01*
X124840000Y-107690000D01*
G75*
G02*
X124980000Y-107830000I0J-140000D01*
G01*
G37*
%TD*%
%TO.C,C113*%
G36*
G01*
X129420000Y-101230000D02*
X129420000Y-101570000D01*
G75*
G02*
X129280000Y-101710000I-140000J0D01*
G01*
X129000000Y-101710000D01*
G75*
G02*
X128860000Y-101570000I0J140000D01*
G01*
X128860000Y-101230000D01*
G75*
G02*
X129000000Y-101090000I140000J0D01*
G01*
X129280000Y-101090000D01*
G75*
G02*
X129420000Y-101230000I0J-140000D01*
G01*
G37*
G36*
G01*
X130380000Y-101230000D02*
X130380000Y-101570000D01*
G75*
G02*
X130240000Y-101710000I-140000J0D01*
G01*
X129960000Y-101710000D01*
G75*
G02*
X129820000Y-101570000I0J140000D01*
G01*
X129820000Y-101230000D01*
G75*
G02*
X129960000Y-101090000I140000J0D01*
G01*
X130240000Y-101090000D01*
G75*
G02*
X130380000Y-101230000I0J-140000D01*
G01*
G37*
%TD*%
%TO.C,C112*%
G36*
G01*
X110680000Y-101470000D02*
X110680000Y-101130000D01*
G75*
G02*
X110820000Y-100990000I140000J0D01*
G01*
X111100000Y-100990000D01*
G75*
G02*
X111240000Y-101130000I0J-140000D01*
G01*
X111240000Y-101470000D01*
G75*
G02*
X111100000Y-101610000I-140000J0D01*
G01*
X110820000Y-101610000D01*
G75*
G02*
X110680000Y-101470000I0J140000D01*
G01*
G37*
G36*
G01*
X109720000Y-101470000D02*
X109720000Y-101130000D01*
G75*
G02*
X109860000Y-100990000I140000J0D01*
G01*
X110140000Y-100990000D01*
G75*
G02*
X110280000Y-101130000I0J-140000D01*
G01*
X110280000Y-101470000D01*
G75*
G02*
X110140000Y-101610000I-140000J0D01*
G01*
X109860000Y-101610000D01*
G75*
G02*
X109720000Y-101470000I0J140000D01*
G01*
G37*
%TD*%
%TO.C,C111*%
G36*
G01*
X101020000Y-144330000D02*
X101020000Y-144670000D01*
G75*
G02*
X100880000Y-144810000I-140000J0D01*
G01*
X100600000Y-144810000D01*
G75*
G02*
X100460000Y-144670000I0J140000D01*
G01*
X100460000Y-144330000D01*
G75*
G02*
X100600000Y-144190000I140000J0D01*
G01*
X100880000Y-144190000D01*
G75*
G02*
X101020000Y-144330000I0J-140000D01*
G01*
G37*
G36*
G01*
X101980000Y-144330000D02*
X101980000Y-144670000D01*
G75*
G02*
X101840000Y-144810000I-140000J0D01*
G01*
X101560000Y-144810000D01*
G75*
G02*
X101420000Y-144670000I0J140000D01*
G01*
X101420000Y-144330000D01*
G75*
G02*
X101560000Y-144190000I140000J0D01*
G01*
X101840000Y-144190000D01*
G75*
G02*
X101980000Y-144330000I0J-140000D01*
G01*
G37*
%TD*%
%TO.C,C110*%
G36*
G01*
X108580000Y-139130000D02*
X108580000Y-139470000D01*
G75*
G02*
X108440000Y-139610000I-140000J0D01*
G01*
X108160000Y-139610000D01*
G75*
G02*
X108020000Y-139470000I0J140000D01*
G01*
X108020000Y-139130000D01*
G75*
G02*
X108160000Y-138990000I140000J0D01*
G01*
X108440000Y-138990000D01*
G75*
G02*
X108580000Y-139130000I0J-140000D01*
G01*
G37*
G36*
G01*
X109540000Y-139130000D02*
X109540000Y-139470000D01*
G75*
G02*
X109400000Y-139610000I-140000J0D01*
G01*
X109120000Y-139610000D01*
G75*
G02*
X108980000Y-139470000I0J140000D01*
G01*
X108980000Y-139130000D01*
G75*
G02*
X109120000Y-138990000I140000J0D01*
G01*
X109400000Y-138990000D01*
G75*
G02*
X109540000Y-139130000I0J-140000D01*
G01*
G37*
%TD*%
%TO.C,C109*%
G36*
G01*
X123820000Y-90730000D02*
X123820000Y-91070000D01*
G75*
G02*
X123680000Y-91210000I-140000J0D01*
G01*
X123400000Y-91210000D01*
G75*
G02*
X123260000Y-91070000I0J140000D01*
G01*
X123260000Y-90730000D01*
G75*
G02*
X123400000Y-90590000I140000J0D01*
G01*
X123680000Y-90590000D01*
G75*
G02*
X123820000Y-90730000I0J-140000D01*
G01*
G37*
G36*
G01*
X124780000Y-90730000D02*
X124780000Y-91070000D01*
G75*
G02*
X124640000Y-91210000I-140000J0D01*
G01*
X124360000Y-91210000D01*
G75*
G02*
X124220000Y-91070000I0J140000D01*
G01*
X124220000Y-90730000D01*
G75*
G02*
X124360000Y-90590000I140000J0D01*
G01*
X124640000Y-90590000D01*
G75*
G02*
X124780000Y-90730000I0J-140000D01*
G01*
G37*
%TD*%
%TO.C,C108*%
G36*
G01*
X129380000Y-84230000D02*
X129380000Y-84570000D01*
G75*
G02*
X129240000Y-84710000I-140000J0D01*
G01*
X128960000Y-84710000D01*
G75*
G02*
X128820000Y-84570000I0J140000D01*
G01*
X128820000Y-84230000D01*
G75*
G02*
X128960000Y-84090000I140000J0D01*
G01*
X129240000Y-84090000D01*
G75*
G02*
X129380000Y-84230000I0J-140000D01*
G01*
G37*
G36*
G01*
X130340000Y-84230000D02*
X130340000Y-84570000D01*
G75*
G02*
X130200000Y-84710000I-140000J0D01*
G01*
X129920000Y-84710000D01*
G75*
G02*
X129780000Y-84570000I0J140000D01*
G01*
X129780000Y-84230000D01*
G75*
G02*
X129920000Y-84090000I140000J0D01*
G01*
X130200000Y-84090000D01*
G75*
G02*
X130340000Y-84230000I0J-140000D01*
G01*
G37*
%TD*%
%TO.C,C107*%
G36*
G01*
X101320000Y-91270000D02*
X101320000Y-90930000D01*
G75*
G02*
X101460000Y-90790000I140000J0D01*
G01*
X101740000Y-90790000D01*
G75*
G02*
X101880000Y-90930000I0J-140000D01*
G01*
X101880000Y-91270000D01*
G75*
G02*
X101740000Y-91410000I-140000J0D01*
G01*
X101460000Y-91410000D01*
G75*
G02*
X101320000Y-91270000I0J140000D01*
G01*
G37*
G36*
G01*
X100360000Y-91270000D02*
X100360000Y-90930000D01*
G75*
G02*
X100500000Y-90790000I140000J0D01*
G01*
X100780000Y-90790000D01*
G75*
G02*
X100920000Y-90930000I0J-140000D01*
G01*
X100920000Y-91270000D01*
G75*
G02*
X100780000Y-91410000I-140000J0D01*
G01*
X100500000Y-91410000D01*
G75*
G02*
X100360000Y-91270000I0J140000D01*
G01*
G37*
%TD*%
%TO.C,C106*%
G36*
G01*
X106900000Y-84670000D02*
X106900000Y-84330000D01*
G75*
G02*
X107040000Y-84190000I140000J0D01*
G01*
X107320000Y-84190000D01*
G75*
G02*
X107460000Y-84330000I0J-140000D01*
G01*
X107460000Y-84670000D01*
G75*
G02*
X107320000Y-84810000I-140000J0D01*
G01*
X107040000Y-84810000D01*
G75*
G02*
X106900000Y-84670000I0J140000D01*
G01*
G37*
G36*
G01*
X105940000Y-84670000D02*
X105940000Y-84330000D01*
G75*
G02*
X106080000Y-84190000I140000J0D01*
G01*
X106360000Y-84190000D01*
G75*
G02*
X106500000Y-84330000I0J-140000D01*
G01*
X106500000Y-84670000D01*
G75*
G02*
X106360000Y-84810000I-140000J0D01*
G01*
X106080000Y-84810000D01*
G75*
G02*
X105940000Y-84670000I0J140000D01*
G01*
G37*
%TD*%
%TO.C,C105*%
G36*
G01*
X112100000Y-126650000D02*
X112100000Y-126990000D01*
G75*
G02*
X111960000Y-127130000I-140000J0D01*
G01*
X111680000Y-127130000D01*
G75*
G02*
X111540000Y-126990000I0J140000D01*
G01*
X111540000Y-126650000D01*
G75*
G02*
X111680000Y-126510000I140000J0D01*
G01*
X111960000Y-126510000D01*
G75*
G02*
X112100000Y-126650000I0J-140000D01*
G01*
G37*
G36*
G01*
X113060000Y-126650000D02*
X113060000Y-126990000D01*
G75*
G02*
X112920000Y-127130000I-140000J0D01*
G01*
X112640000Y-127130000D01*
G75*
G02*
X112500000Y-126990000I0J140000D01*
G01*
X112500000Y-126650000D01*
G75*
G02*
X112640000Y-126510000I140000J0D01*
G01*
X112920000Y-126510000D01*
G75*
G02*
X113060000Y-126650000I0J-140000D01*
G01*
G37*
%TD*%
%TO.C,C104*%
G36*
G01*
X112520000Y-138070000D02*
X112520000Y-137730000D01*
G75*
G02*
X112660000Y-137590000I140000J0D01*
G01*
X112940000Y-137590000D01*
G75*
G02*
X113080000Y-137730000I0J-140000D01*
G01*
X113080000Y-138070000D01*
G75*
G02*
X112940000Y-138210000I-140000J0D01*
G01*
X112660000Y-138210000D01*
G75*
G02*
X112520000Y-138070000I0J140000D01*
G01*
G37*
G36*
G01*
X111560000Y-138070000D02*
X111560000Y-137730000D01*
G75*
G02*
X111700000Y-137590000I140000J0D01*
G01*
X111980000Y-137590000D01*
G75*
G02*
X112120000Y-137730000I0J-140000D01*
G01*
X112120000Y-138070000D01*
G75*
G02*
X111980000Y-138210000I-140000J0D01*
G01*
X111700000Y-138210000D01*
G75*
G02*
X111560000Y-138070000I0J140000D01*
G01*
G37*
%TD*%
%TO.C,C103*%
G36*
G01*
X114720000Y-126630000D02*
X114720000Y-126970000D01*
G75*
G02*
X114580000Y-127110000I-140000J0D01*
G01*
X114300000Y-127110000D01*
G75*
G02*
X114160000Y-126970000I0J140000D01*
G01*
X114160000Y-126630000D01*
G75*
G02*
X114300000Y-126490000I140000J0D01*
G01*
X114580000Y-126490000D01*
G75*
G02*
X114720000Y-126630000I0J-140000D01*
G01*
G37*
G36*
G01*
X115680000Y-126630000D02*
X115680000Y-126970000D01*
G75*
G02*
X115540000Y-127110000I-140000J0D01*
G01*
X115260000Y-127110000D01*
G75*
G02*
X115120000Y-126970000I0J140000D01*
G01*
X115120000Y-126630000D01*
G75*
G02*
X115260000Y-126490000I140000J0D01*
G01*
X115540000Y-126490000D01*
G75*
G02*
X115680000Y-126630000I0J-140000D01*
G01*
G37*
%TD*%
%TO.C,C102*%
G36*
G01*
X104320000Y-146670000D02*
X104320000Y-146330000D01*
G75*
G02*
X104460000Y-146190000I140000J0D01*
G01*
X104740000Y-146190000D01*
G75*
G02*
X104880000Y-146330000I0J-140000D01*
G01*
X104880000Y-146670000D01*
G75*
G02*
X104740000Y-146810000I-140000J0D01*
G01*
X104460000Y-146810000D01*
G75*
G02*
X104320000Y-146670000I0J140000D01*
G01*
G37*
G36*
G01*
X103360000Y-146670000D02*
X103360000Y-146330000D01*
G75*
G02*
X103500000Y-146190000I140000J0D01*
G01*
X103780000Y-146190000D01*
G75*
G02*
X103920000Y-146330000I0J-140000D01*
G01*
X103920000Y-146670000D01*
G75*
G02*
X103780000Y-146810000I-140000J0D01*
G01*
X103500000Y-146810000D01*
G75*
G02*
X103360000Y-146670000I0J140000D01*
G01*
G37*
%TD*%
%TO.C,C101*%
G36*
G01*
X126180000Y-91070000D02*
X126180000Y-90730000D01*
G75*
G02*
X126320000Y-90590000I140000J0D01*
G01*
X126600000Y-90590000D01*
G75*
G02*
X126740000Y-90730000I0J-140000D01*
G01*
X126740000Y-91070000D01*
G75*
G02*
X126600000Y-91210000I-140000J0D01*
G01*
X126320000Y-91210000D01*
G75*
G02*
X126180000Y-91070000I0J140000D01*
G01*
G37*
G36*
G01*
X125220000Y-91070000D02*
X125220000Y-90730000D01*
G75*
G02*
X125360000Y-90590000I140000J0D01*
G01*
X125640000Y-90590000D01*
G75*
G02*
X125780000Y-90730000I0J-140000D01*
G01*
X125780000Y-91070000D01*
G75*
G02*
X125640000Y-91210000I-140000J0D01*
G01*
X125360000Y-91210000D01*
G75*
G02*
X125220000Y-91070000I0J140000D01*
G01*
G37*
%TD*%
M02*
