%TF.GenerationSoftware,KiCad,Pcbnew,(5.1.7-0-10_14)*%
%TF.CreationDate,2021-06-01T07:16:10-04:00*%
%TF.ProjectId,VCF,5643462e-6b69-4636-9164-5f7063625858,rev?*%
%TF.SameCoordinates,Original*%
%TF.FileFunction,Copper,L1,Top*%
%TF.FilePolarity,Positive*%
%FSLAX46Y46*%
G04 Gerber Fmt 4.6, Leading zero omitted, Abs format (unit mm)*
G04 Created by KiCad (PCBNEW (5.1.7-0-10_14)) date 2021-06-01 07:16:10*
%MOMM*%
%LPD*%
G01*
G04 APERTURE LIST*
%TA.AperFunction,ComponentPad*%
%ADD10O,1.600000X1.600000*%
%TD*%
%TA.AperFunction,ComponentPad*%
%ADD11R,1.600000X1.600000*%
%TD*%
%TA.AperFunction,ComponentPad*%
%ADD12O,2.800000X2.200000*%
%TD*%
%TA.AperFunction,ComponentPad*%
%ADD13C,1.800000*%
%TD*%
%TA.AperFunction,ComponentPad*%
%ADD14C,1.440000*%
%TD*%
%TA.AperFunction,ComponentPad*%
%ADD15R,1.500000X1.050000*%
%TD*%
%TA.AperFunction,ComponentPad*%
%ADD16O,1.500000X1.050000*%
%TD*%
%TA.AperFunction,ComponentPad*%
%ADD17R,1.050000X1.500000*%
%TD*%
%TA.AperFunction,ComponentPad*%
%ADD18O,1.050000X1.500000*%
%TD*%
%TA.AperFunction,SMDPad,CuDef*%
%ADD19R,1.500000X0.400000*%
%TD*%
%TA.AperFunction,ComponentPad*%
%ADD20O,1.500000X2.300000*%
%TD*%
%TA.AperFunction,ComponentPad*%
%ADD21O,1.700000X1.700000*%
%TD*%
%TA.AperFunction,ComponentPad*%
%ADD22R,1.700000X1.700000*%
%TD*%
%TA.AperFunction,ComponentPad*%
%ADD23O,2.300000X1.500000*%
%TD*%
%TA.AperFunction,ComponentPad*%
%ADD24R,1.800000X1.800000*%
%TD*%
%TA.AperFunction,ViaPad*%
%ADD25C,0.800000*%
%TD*%
%TA.AperFunction,Conductor*%
%ADD26C,0.250000*%
%TD*%
%TA.AperFunction,Conductor*%
%ADD27C,0.500000*%
%TD*%
G04 APERTURE END LIST*
%TO.P,U105,8*%
%TO.N,+12V*%
%TA.AperFunction,SMDPad,CuDef*%
G36*
G01*
X128400000Y-102945000D02*
X128400000Y-102645000D01*
G75*
G02*
X128550000Y-102495000I150000J0D01*
G01*
X130200000Y-102495000D01*
G75*
G02*
X130350000Y-102645000I0J-150000D01*
G01*
X130350000Y-102945000D01*
G75*
G02*
X130200000Y-103095000I-150000J0D01*
G01*
X128550000Y-103095000D01*
G75*
G02*
X128400000Y-102945000I0J150000D01*
G01*
G37*
%TD.AperFunction*%
%TO.P,U105,7*%
%TO.N,N/C*%
%TA.AperFunction,SMDPad,CuDef*%
G36*
G01*
X128400000Y-104215000D02*
X128400000Y-103915000D01*
G75*
G02*
X128550000Y-103765000I150000J0D01*
G01*
X130200000Y-103765000D01*
G75*
G02*
X130350000Y-103915000I0J-150000D01*
G01*
X130350000Y-104215000D01*
G75*
G02*
X130200000Y-104365000I-150000J0D01*
G01*
X128550000Y-104365000D01*
G75*
G02*
X128400000Y-104215000I0J150000D01*
G01*
G37*
%TD.AperFunction*%
%TO.P,U105,6*%
%TA.AperFunction,SMDPad,CuDef*%
G36*
G01*
X128400000Y-105485000D02*
X128400000Y-105185000D01*
G75*
G02*
X128550000Y-105035000I150000J0D01*
G01*
X130200000Y-105035000D01*
G75*
G02*
X130350000Y-105185000I0J-150000D01*
G01*
X130350000Y-105485000D01*
G75*
G02*
X130200000Y-105635000I-150000J0D01*
G01*
X128550000Y-105635000D01*
G75*
G02*
X128400000Y-105485000I0J150000D01*
G01*
G37*
%TD.AperFunction*%
%TO.P,U105,5*%
%TA.AperFunction,SMDPad,CuDef*%
G36*
G01*
X128400000Y-106755000D02*
X128400000Y-106455000D01*
G75*
G02*
X128550000Y-106305000I150000J0D01*
G01*
X130200000Y-106305000D01*
G75*
G02*
X130350000Y-106455000I0J-150000D01*
G01*
X130350000Y-106755000D01*
G75*
G02*
X130200000Y-106905000I-150000J0D01*
G01*
X128550000Y-106905000D01*
G75*
G02*
X128400000Y-106755000I0J150000D01*
G01*
G37*
%TD.AperFunction*%
%TO.P,U105,4*%
%TO.N,-12V*%
%TA.AperFunction,SMDPad,CuDef*%
G36*
G01*
X123450000Y-106755000D02*
X123450000Y-106455000D01*
G75*
G02*
X123600000Y-106305000I150000J0D01*
G01*
X125250000Y-106305000D01*
G75*
G02*
X125400000Y-106455000I0J-150000D01*
G01*
X125400000Y-106755000D01*
G75*
G02*
X125250000Y-106905000I-150000J0D01*
G01*
X123600000Y-106905000D01*
G75*
G02*
X123450000Y-106755000I0J150000D01*
G01*
G37*
%TD.AperFunction*%
%TO.P,U105,3*%
%TO.N,GND*%
%TA.AperFunction,SMDPad,CuDef*%
G36*
G01*
X123450000Y-105485000D02*
X123450000Y-105185000D01*
G75*
G02*
X123600000Y-105035000I150000J0D01*
G01*
X125250000Y-105035000D01*
G75*
G02*
X125400000Y-105185000I0J-150000D01*
G01*
X125400000Y-105485000D01*
G75*
G02*
X125250000Y-105635000I-150000J0D01*
G01*
X123600000Y-105635000D01*
G75*
G02*
X123450000Y-105485000I0J150000D01*
G01*
G37*
%TD.AperFunction*%
%TO.P,U105,2*%
%TO.N,Net-(R124-Pad2)*%
%TA.AperFunction,SMDPad,CuDef*%
G36*
G01*
X123450000Y-104215000D02*
X123450000Y-103915000D01*
G75*
G02*
X123600000Y-103765000I150000J0D01*
G01*
X125250000Y-103765000D01*
G75*
G02*
X125400000Y-103915000I0J-150000D01*
G01*
X125400000Y-104215000D01*
G75*
G02*
X125250000Y-104365000I-150000J0D01*
G01*
X123600000Y-104365000D01*
G75*
G02*
X123450000Y-104215000I0J150000D01*
G01*
G37*
%TD.AperFunction*%
%TO.P,U105,1*%
%TO.N,Net-(R126-Pad2)*%
%TA.AperFunction,SMDPad,CuDef*%
G36*
G01*
X123450000Y-102945000D02*
X123450000Y-102645000D01*
G75*
G02*
X123600000Y-102495000I150000J0D01*
G01*
X125250000Y-102495000D01*
G75*
G02*
X125400000Y-102645000I0J-150000D01*
G01*
X125400000Y-102945000D01*
G75*
G02*
X125250000Y-103095000I-150000J0D01*
G01*
X123600000Y-103095000D01*
G75*
G02*
X123450000Y-102945000I0J150000D01*
G01*
G37*
%TD.AperFunction*%
%TD*%
%TO.P,U104,8*%
%TO.N,+12V*%
%TA.AperFunction,SMDPad,CuDef*%
G36*
G01*
X105500000Y-139445000D02*
X105500000Y-139145000D01*
G75*
G02*
X105650000Y-138995000I150000J0D01*
G01*
X107300000Y-138995000D01*
G75*
G02*
X107450000Y-139145000I0J-150000D01*
G01*
X107450000Y-139445000D01*
G75*
G02*
X107300000Y-139595000I-150000J0D01*
G01*
X105650000Y-139595000D01*
G75*
G02*
X105500000Y-139445000I0J150000D01*
G01*
G37*
%TD.AperFunction*%
%TO.P,U104,7*%
%TO.N,Net-(C112-Pad2)*%
%TA.AperFunction,SMDPad,CuDef*%
G36*
G01*
X105500000Y-140715000D02*
X105500000Y-140415000D01*
G75*
G02*
X105650000Y-140265000I150000J0D01*
G01*
X107300000Y-140265000D01*
G75*
G02*
X107450000Y-140415000I0J-150000D01*
G01*
X107450000Y-140715000D01*
G75*
G02*
X107300000Y-140865000I-150000J0D01*
G01*
X105650000Y-140865000D01*
G75*
G02*
X105500000Y-140715000I0J150000D01*
G01*
G37*
%TD.AperFunction*%
%TO.P,U104,6*%
%TA.AperFunction,SMDPad,CuDef*%
G36*
G01*
X105500000Y-141985000D02*
X105500000Y-141685000D01*
G75*
G02*
X105650000Y-141535000I150000J0D01*
G01*
X107300000Y-141535000D01*
G75*
G02*
X107450000Y-141685000I0J-150000D01*
G01*
X107450000Y-141985000D01*
G75*
G02*
X107300000Y-142135000I-150000J0D01*
G01*
X105650000Y-142135000D01*
G75*
G02*
X105500000Y-141985000I0J150000D01*
G01*
G37*
%TD.AperFunction*%
%TO.P,U104,5*%
%TO.N,Net-(C103-Pad1)*%
%TA.AperFunction,SMDPad,CuDef*%
G36*
G01*
X105500000Y-143255000D02*
X105500000Y-142955000D01*
G75*
G02*
X105650000Y-142805000I150000J0D01*
G01*
X107300000Y-142805000D01*
G75*
G02*
X107450000Y-142955000I0J-150000D01*
G01*
X107450000Y-143255000D01*
G75*
G02*
X107300000Y-143405000I-150000J0D01*
G01*
X105650000Y-143405000D01*
G75*
G02*
X105500000Y-143255000I0J150000D01*
G01*
G37*
%TD.AperFunction*%
%TO.P,U104,4*%
%TO.N,-12V*%
%TA.AperFunction,SMDPad,CuDef*%
G36*
G01*
X100550000Y-143255000D02*
X100550000Y-142955000D01*
G75*
G02*
X100700000Y-142805000I150000J0D01*
G01*
X102350000Y-142805000D01*
G75*
G02*
X102500000Y-142955000I0J-150000D01*
G01*
X102500000Y-143255000D01*
G75*
G02*
X102350000Y-143405000I-150000J0D01*
G01*
X100700000Y-143405000D01*
G75*
G02*
X100550000Y-143255000I0J150000D01*
G01*
G37*
%TD.AperFunction*%
%TO.P,U104,3*%
%TO.N,Net-(C102-Pad1)*%
%TA.AperFunction,SMDPad,CuDef*%
G36*
G01*
X100550000Y-141985000D02*
X100550000Y-141685000D01*
G75*
G02*
X100700000Y-141535000I150000J0D01*
G01*
X102350000Y-141535000D01*
G75*
G02*
X102500000Y-141685000I0J-150000D01*
G01*
X102500000Y-141985000D01*
G75*
G02*
X102350000Y-142135000I-150000J0D01*
G01*
X100700000Y-142135000D01*
G75*
G02*
X100550000Y-141985000I0J150000D01*
G01*
G37*
%TD.AperFunction*%
%TO.P,U104,2*%
%TO.N,Net-(R114-Pad1)*%
%TA.AperFunction,SMDPad,CuDef*%
G36*
G01*
X100550000Y-140715000D02*
X100550000Y-140415000D01*
G75*
G02*
X100700000Y-140265000I150000J0D01*
G01*
X102350000Y-140265000D01*
G75*
G02*
X102500000Y-140415000I0J-150000D01*
G01*
X102500000Y-140715000D01*
G75*
G02*
X102350000Y-140865000I-150000J0D01*
G01*
X100700000Y-140865000D01*
G75*
G02*
X100550000Y-140715000I0J150000D01*
G01*
G37*
%TD.AperFunction*%
%TO.P,U104,1*%
%TA.AperFunction,SMDPad,CuDef*%
G36*
G01*
X100550000Y-139445000D02*
X100550000Y-139145000D01*
G75*
G02*
X100700000Y-138995000I150000J0D01*
G01*
X102350000Y-138995000D01*
G75*
G02*
X102500000Y-139145000I0J-150000D01*
G01*
X102500000Y-139445000D01*
G75*
G02*
X102350000Y-139595000I-150000J0D01*
G01*
X100700000Y-139595000D01*
G75*
G02*
X100550000Y-139445000I0J150000D01*
G01*
G37*
%TD.AperFunction*%
%TD*%
D10*
%TO.P,U103,16*%
%TO.N,Net-(R115-Pad1)*%
X125500000Y-136200000D03*
%TO.P,U103,8*%
%TO.N,N/C*%
X107720000Y-128580000D03*
%TO.P,U103,15*%
X122960000Y-136200000D03*
%TO.P,U103,7*%
X110260000Y-128580000D03*
%TO.P,U103,14*%
%TO.N,Net-(R113-Pad1)*%
X120420000Y-136200000D03*
%TO.P,U103,6*%
%TO.N,-12V*%
X112800000Y-128580000D03*
%TO.P,U103,13*%
%TO.N,Net-(R111-Pad1)*%
X117880000Y-136200000D03*
%TO.P,U103,5*%
%TO.N,Net-(C103-Pad1)*%
X115340000Y-128580000D03*
%TO.P,U103,12*%
%TO.N,Net-(C102-Pad1)*%
X115340000Y-136200000D03*
%TO.P,U103,4*%
%TO.N,Net-(R119-Pad1)*%
X117880000Y-128580000D03*
%TO.P,U103,11*%
%TO.N,+12V*%
X112800000Y-136200000D03*
%TO.P,U103,3*%
%TO.N,Net-(R118-Pad1)*%
X120420000Y-128580000D03*
%TO.P,U103,10*%
%TO.N,N/C*%
X110260000Y-136200000D03*
%TO.P,U103,2*%
X122960000Y-128580000D03*
%TO.P,U103,9*%
X107720000Y-136200000D03*
D11*
%TO.P,U103,1*%
%TO.N,Net-(R123-Pad1)*%
X125500000Y-128580000D03*
%TD*%
%TO.P,U102,8*%
%TO.N,+12V*%
%TA.AperFunction,SMDPad,CuDef*%
G36*
G01*
X128325000Y-85880000D02*
X128325000Y-85580000D01*
G75*
G02*
X128475000Y-85430000I150000J0D01*
G01*
X130125000Y-85430000D01*
G75*
G02*
X130275000Y-85580000I0J-150000D01*
G01*
X130275000Y-85880000D01*
G75*
G02*
X130125000Y-86030000I-150000J0D01*
G01*
X128475000Y-86030000D01*
G75*
G02*
X128325000Y-85880000I0J150000D01*
G01*
G37*
%TD.AperFunction*%
%TO.P,U102,7*%
%TO.N,Net-(C101-Pad1)*%
%TA.AperFunction,SMDPad,CuDef*%
G36*
G01*
X128325000Y-87150000D02*
X128325000Y-86850000D01*
G75*
G02*
X128475000Y-86700000I150000J0D01*
G01*
X130125000Y-86700000D01*
G75*
G02*
X130275000Y-86850000I0J-150000D01*
G01*
X130275000Y-87150000D01*
G75*
G02*
X130125000Y-87300000I-150000J0D01*
G01*
X128475000Y-87300000D01*
G75*
G02*
X128325000Y-87150000I0J150000D01*
G01*
G37*
%TD.AperFunction*%
%TO.P,U102,6*%
%TO.N,Net-(C101-Pad2)*%
%TA.AperFunction,SMDPad,CuDef*%
G36*
G01*
X128325000Y-88420000D02*
X128325000Y-88120000D01*
G75*
G02*
X128475000Y-87970000I150000J0D01*
G01*
X130125000Y-87970000D01*
G75*
G02*
X130275000Y-88120000I0J-150000D01*
G01*
X130275000Y-88420000D01*
G75*
G02*
X130125000Y-88570000I-150000J0D01*
G01*
X128475000Y-88570000D01*
G75*
G02*
X128325000Y-88420000I0J150000D01*
G01*
G37*
%TD.AperFunction*%
%TO.P,U102,5*%
%TO.N,GND*%
%TA.AperFunction,SMDPad,CuDef*%
G36*
G01*
X128325000Y-89690000D02*
X128325000Y-89390000D01*
G75*
G02*
X128475000Y-89240000I150000J0D01*
G01*
X130125000Y-89240000D01*
G75*
G02*
X130275000Y-89390000I0J-150000D01*
G01*
X130275000Y-89690000D01*
G75*
G02*
X130125000Y-89840000I-150000J0D01*
G01*
X128475000Y-89840000D01*
G75*
G02*
X128325000Y-89690000I0J150000D01*
G01*
G37*
%TD.AperFunction*%
%TO.P,U102,4*%
%TO.N,-12V*%
%TA.AperFunction,SMDPad,CuDef*%
G36*
G01*
X123375000Y-89690000D02*
X123375000Y-89390000D01*
G75*
G02*
X123525000Y-89240000I150000J0D01*
G01*
X125175000Y-89240000D01*
G75*
G02*
X125325000Y-89390000I0J-150000D01*
G01*
X125325000Y-89690000D01*
G75*
G02*
X125175000Y-89840000I-150000J0D01*
G01*
X123525000Y-89840000D01*
G75*
G02*
X123375000Y-89690000I0J150000D01*
G01*
G37*
%TD.AperFunction*%
%TO.P,U102,3*%
%TO.N,Net-(Q104-Pad1)*%
%TA.AperFunction,SMDPad,CuDef*%
G36*
G01*
X123375000Y-88420000D02*
X123375000Y-88120000D01*
G75*
G02*
X123525000Y-87970000I150000J0D01*
G01*
X125175000Y-87970000D01*
G75*
G02*
X125325000Y-88120000I0J-150000D01*
G01*
X125325000Y-88420000D01*
G75*
G02*
X125175000Y-88570000I-150000J0D01*
G01*
X123525000Y-88570000D01*
G75*
G02*
X123375000Y-88420000I0J150000D01*
G01*
G37*
%TD.AperFunction*%
%TO.P,U102,2*%
%TO.N,Net-(D101-Pad2)*%
%TA.AperFunction,SMDPad,CuDef*%
G36*
G01*
X123375000Y-87150000D02*
X123375000Y-86850000D01*
G75*
G02*
X123525000Y-86700000I150000J0D01*
G01*
X125175000Y-86700000D01*
G75*
G02*
X125325000Y-86850000I0J-150000D01*
G01*
X125325000Y-87150000D01*
G75*
G02*
X125175000Y-87300000I-150000J0D01*
G01*
X123525000Y-87300000D01*
G75*
G02*
X123375000Y-87150000I0J150000D01*
G01*
G37*
%TD.AperFunction*%
%TO.P,U102,1*%
%TO.N,Net-(C102-Pad2)*%
%TA.AperFunction,SMDPad,CuDef*%
G36*
G01*
X123375000Y-85880000D02*
X123375000Y-85580000D01*
G75*
G02*
X123525000Y-85430000I150000J0D01*
G01*
X125175000Y-85430000D01*
G75*
G02*
X125325000Y-85580000I0J-150000D01*
G01*
X125325000Y-85880000D01*
G75*
G02*
X125175000Y-86030000I-150000J0D01*
G01*
X123525000Y-86030000D01*
G75*
G02*
X123375000Y-85880000I0J150000D01*
G01*
G37*
%TD.AperFunction*%
%TD*%
%TO.P,U101,8*%
%TO.N,+12V*%
%TA.AperFunction,SMDPad,CuDef*%
G36*
G01*
X105425000Y-86050000D02*
X105425000Y-85750000D01*
G75*
G02*
X105575000Y-85600000I150000J0D01*
G01*
X107225000Y-85600000D01*
G75*
G02*
X107375000Y-85750000I0J-150000D01*
G01*
X107375000Y-86050000D01*
G75*
G02*
X107225000Y-86200000I-150000J0D01*
G01*
X105575000Y-86200000D01*
G75*
G02*
X105425000Y-86050000I0J150000D01*
G01*
G37*
%TD.AperFunction*%
%TO.P,U101,7*%
%TO.N,/HP_IN*%
%TA.AperFunction,SMDPad,CuDef*%
G36*
G01*
X105425000Y-87320000D02*
X105425000Y-87020000D01*
G75*
G02*
X105575000Y-86870000I150000J0D01*
G01*
X107225000Y-86870000D01*
G75*
G02*
X107375000Y-87020000I0J-150000D01*
G01*
X107375000Y-87320000D01*
G75*
G02*
X107225000Y-87470000I-150000J0D01*
G01*
X105575000Y-87470000D01*
G75*
G02*
X105425000Y-87320000I0J150000D01*
G01*
G37*
%TD.AperFunction*%
%TO.P,U101,6*%
%TO.N,Net-(R104-Pad1)*%
%TA.AperFunction,SMDPad,CuDef*%
G36*
G01*
X105425000Y-88590000D02*
X105425000Y-88290000D01*
G75*
G02*
X105575000Y-88140000I150000J0D01*
G01*
X107225000Y-88140000D01*
G75*
G02*
X107375000Y-88290000I0J-150000D01*
G01*
X107375000Y-88590000D01*
G75*
G02*
X107225000Y-88740000I-150000J0D01*
G01*
X105575000Y-88740000D01*
G75*
G02*
X105425000Y-88590000I0J150000D01*
G01*
G37*
%TD.AperFunction*%
%TO.P,U101,5*%
%TO.N,Net-(R106-Pad1)*%
%TA.AperFunction,SMDPad,CuDef*%
G36*
G01*
X105425000Y-89860000D02*
X105425000Y-89560000D01*
G75*
G02*
X105575000Y-89410000I150000J0D01*
G01*
X107225000Y-89410000D01*
G75*
G02*
X107375000Y-89560000I0J-150000D01*
G01*
X107375000Y-89860000D01*
G75*
G02*
X107225000Y-90010000I-150000J0D01*
G01*
X105575000Y-90010000D01*
G75*
G02*
X105425000Y-89860000I0J150000D01*
G01*
G37*
%TD.AperFunction*%
%TO.P,U101,4*%
%TO.N,-12V*%
%TA.AperFunction,SMDPad,CuDef*%
G36*
G01*
X100475000Y-89860000D02*
X100475000Y-89560000D01*
G75*
G02*
X100625000Y-89410000I150000J0D01*
G01*
X102275000Y-89410000D01*
G75*
G02*
X102425000Y-89560000I0J-150000D01*
G01*
X102425000Y-89860000D01*
G75*
G02*
X102275000Y-90010000I-150000J0D01*
G01*
X100625000Y-90010000D01*
G75*
G02*
X100475000Y-89860000I0J150000D01*
G01*
G37*
%TD.AperFunction*%
%TO.P,U101,3*%
%TO.N,Net-(R105-Pad1)*%
%TA.AperFunction,SMDPad,CuDef*%
G36*
G01*
X100475000Y-88590000D02*
X100475000Y-88290000D01*
G75*
G02*
X100625000Y-88140000I150000J0D01*
G01*
X102275000Y-88140000D01*
G75*
G02*
X102425000Y-88290000I0J-150000D01*
G01*
X102425000Y-88590000D01*
G75*
G02*
X102275000Y-88740000I-150000J0D01*
G01*
X100625000Y-88740000D01*
G75*
G02*
X100475000Y-88590000I0J150000D01*
G01*
G37*
%TD.AperFunction*%
%TO.P,U101,2*%
%TO.N,/LP_IN*%
%TA.AperFunction,SMDPad,CuDef*%
G36*
G01*
X100475000Y-87320000D02*
X100475000Y-87020000D01*
G75*
G02*
X100625000Y-86870000I150000J0D01*
G01*
X102275000Y-86870000D01*
G75*
G02*
X102425000Y-87020000I0J-150000D01*
G01*
X102425000Y-87320000D01*
G75*
G02*
X102275000Y-87470000I-150000J0D01*
G01*
X100625000Y-87470000D01*
G75*
G02*
X100475000Y-87320000I0J150000D01*
G01*
G37*
%TD.AperFunction*%
%TO.P,U101,1*%
%TA.AperFunction,SMDPad,CuDef*%
G36*
G01*
X100475000Y-86050000D02*
X100475000Y-85750000D01*
G75*
G02*
X100625000Y-85600000I150000J0D01*
G01*
X102275000Y-85600000D01*
G75*
G02*
X102425000Y-85750000I0J-150000D01*
G01*
X102425000Y-86050000D01*
G75*
G02*
X102275000Y-86200000I-150000J0D01*
G01*
X100625000Y-86200000D01*
G75*
G02*
X100475000Y-86050000I0J150000D01*
G01*
G37*
%TD.AperFunction*%
%TD*%
D12*
%TO.P,RV105,*%
%TO.N,*%
X121150000Y-89900000D03*
X109850000Y-89900000D03*
D13*
%TO.P,RV105,3*%
%TO.N,+12V*%
X118000000Y-97400000D03*
%TO.P,RV105,2*%
%TO.N,Net-(R124-Pad1)*%
X115500000Y-97400000D03*
%TO.P,RV105,1*%
%TO.N,GND*%
X113000000Y-97400000D03*
%TD*%
D14*
%TO.P,RV104,3*%
%TO.N,GND*%
X102800000Y-173880000D03*
%TO.P,RV104,2*%
X102800000Y-171340000D03*
%TO.P,RV104,1*%
%TO.N,Net-(R108-Pad2)*%
X102800000Y-168800000D03*
%TD*%
D12*
%TO.P,RV103,*%
%TO.N,*%
X129100000Y-75000000D03*
X117800000Y-75000000D03*
D13*
%TO.P,RV103,3*%
%TO.N,Net-(R105-Pad1)*%
X125950000Y-82500000D03*
%TO.P,RV103,2*%
%TO.N,GND*%
X123450000Y-82500000D03*
%TO.P,RV103,1*%
%TO.N,Net-(R106-Pad1)*%
X120950000Y-82500000D03*
%TD*%
D12*
%TO.P,RV102,*%
%TO.N,*%
X113200000Y-75000000D03*
X101900000Y-75000000D03*
D13*
%TO.P,RV102,3*%
%TO.N,Net-(J101-PadT)*%
X110050000Y-82500000D03*
%TO.P,RV102,2*%
%TO.N,Net-(R105-Pad2)*%
X107550000Y-82500000D03*
%TO.P,RV102,1*%
%TO.N,GND*%
X105050000Y-82500000D03*
%TD*%
D12*
%TO.P,RV101,*%
%TO.N,*%
X121150000Y-115500000D03*
X109850000Y-115500000D03*
D13*
%TO.P,RV101,3*%
%TO.N,+12V*%
X118000000Y-123000000D03*
%TO.P,RV101,2*%
%TO.N,Net-(R103-Pad2)*%
X115500000Y-123000000D03*
%TO.P,RV101,1*%
%TO.N,-12V*%
X113000000Y-123000000D03*
%TD*%
%TO.P,R130,2*%
%TO.N,/Out*%
%TA.AperFunction,SMDPad,CuDef*%
G36*
G01*
X108450000Y-166485000D02*
X108450000Y-166115000D01*
G75*
G02*
X108585000Y-165980000I135000J0D01*
G01*
X108855000Y-165980000D01*
G75*
G02*
X108990000Y-166115000I0J-135000D01*
G01*
X108990000Y-166485000D01*
G75*
G02*
X108855000Y-166620000I-135000J0D01*
G01*
X108585000Y-166620000D01*
G75*
G02*
X108450000Y-166485000I0J135000D01*
G01*
G37*
%TD.AperFunction*%
%TO.P,R130,1*%
%TO.N,Net-(C117-Pad2)*%
%TA.AperFunction,SMDPad,CuDef*%
G36*
G01*
X107430000Y-166485000D02*
X107430000Y-166115000D01*
G75*
G02*
X107565000Y-165980000I135000J0D01*
G01*
X107835000Y-165980000D01*
G75*
G02*
X107970000Y-166115000I0J-135000D01*
G01*
X107970000Y-166485000D01*
G75*
G02*
X107835000Y-166620000I-135000J0D01*
G01*
X107565000Y-166620000D01*
G75*
G02*
X107430000Y-166485000I0J135000D01*
G01*
G37*
%TD.AperFunction*%
%TD*%
%TO.P,R129,2*%
%TO.N,/Out*%
%TA.AperFunction,SMDPad,CuDef*%
G36*
G01*
X108630000Y-101485000D02*
X108630000Y-101115000D01*
G75*
G02*
X108765000Y-100980000I135000J0D01*
G01*
X109035000Y-100980000D01*
G75*
G02*
X109170000Y-101115000I0J-135000D01*
G01*
X109170000Y-101485000D01*
G75*
G02*
X109035000Y-101620000I-135000J0D01*
G01*
X108765000Y-101620000D01*
G75*
G02*
X108630000Y-101485000I0J135000D01*
G01*
G37*
%TD.AperFunction*%
%TO.P,R129,1*%
%TO.N,Net-(Q104-Pad1)*%
%TA.AperFunction,SMDPad,CuDef*%
G36*
G01*
X107610000Y-101485000D02*
X107610000Y-101115000D01*
G75*
G02*
X107745000Y-100980000I135000J0D01*
G01*
X108015000Y-100980000D01*
G75*
G02*
X108150000Y-101115000I0J-135000D01*
G01*
X108150000Y-101485000D01*
G75*
G02*
X108015000Y-101620000I-135000J0D01*
G01*
X107745000Y-101620000D01*
G75*
G02*
X107610000Y-101485000I0J135000D01*
G01*
G37*
%TD.AperFunction*%
%TD*%
%TO.P,R128,2*%
%TO.N,Net-(Q104-Pad3)*%
%TA.AperFunction,SMDPad,CuDef*%
G36*
G01*
X108170000Y-104015000D02*
X108170000Y-104385000D01*
G75*
G02*
X108035000Y-104520000I-135000J0D01*
G01*
X107765000Y-104520000D01*
G75*
G02*
X107630000Y-104385000I0J135000D01*
G01*
X107630000Y-104015000D01*
G75*
G02*
X107765000Y-103880000I135000J0D01*
G01*
X108035000Y-103880000D01*
G75*
G02*
X108170000Y-104015000I0J-135000D01*
G01*
G37*
%TD.AperFunction*%
%TO.P,R128,1*%
%TO.N,Net-(Q104-Pad1)*%
%TA.AperFunction,SMDPad,CuDef*%
G36*
G01*
X109190000Y-104015000D02*
X109190000Y-104385000D01*
G75*
G02*
X109055000Y-104520000I-135000J0D01*
G01*
X108785000Y-104520000D01*
G75*
G02*
X108650000Y-104385000I0J135000D01*
G01*
X108650000Y-104015000D01*
G75*
G02*
X108785000Y-103880000I135000J0D01*
G01*
X109055000Y-103880000D01*
G75*
G02*
X109190000Y-104015000I0J-135000D01*
G01*
G37*
%TD.AperFunction*%
%TD*%
%TO.P,R127,2*%
%TO.N,Net-(Q104-Pad3)*%
%TA.AperFunction,SMDPad,CuDef*%
G36*
G01*
X108170000Y-102715000D02*
X108170000Y-103085000D01*
G75*
G02*
X108035000Y-103220000I-135000J0D01*
G01*
X107765000Y-103220000D01*
G75*
G02*
X107630000Y-103085000I0J135000D01*
G01*
X107630000Y-102715000D01*
G75*
G02*
X107765000Y-102580000I135000J0D01*
G01*
X108035000Y-102580000D01*
G75*
G02*
X108170000Y-102715000I0J-135000D01*
G01*
G37*
%TD.AperFunction*%
%TO.P,R127,1*%
%TO.N,Net-(R126-Pad2)*%
%TA.AperFunction,SMDPad,CuDef*%
G36*
G01*
X109190000Y-102715000D02*
X109190000Y-103085000D01*
G75*
G02*
X109055000Y-103220000I-135000J0D01*
G01*
X108785000Y-103220000D01*
G75*
G02*
X108650000Y-103085000I0J135000D01*
G01*
X108650000Y-102715000D01*
G75*
G02*
X108785000Y-102580000I135000J0D01*
G01*
X109055000Y-102580000D01*
G75*
G02*
X109190000Y-102715000I0J-135000D01*
G01*
G37*
%TD.AperFunction*%
%TD*%
%TO.P,R126,2*%
%TO.N,Net-(R126-Pad2)*%
%TA.AperFunction,SMDPad,CuDef*%
G36*
G01*
X115630000Y-100685000D02*
X115630000Y-100315000D01*
G75*
G02*
X115765000Y-100180000I135000J0D01*
G01*
X116035000Y-100180000D01*
G75*
G02*
X116170000Y-100315000I0J-135000D01*
G01*
X116170000Y-100685000D01*
G75*
G02*
X116035000Y-100820000I-135000J0D01*
G01*
X115765000Y-100820000D01*
G75*
G02*
X115630000Y-100685000I0J135000D01*
G01*
G37*
%TD.AperFunction*%
%TO.P,R126,1*%
%TO.N,Net-(R124-Pad2)*%
%TA.AperFunction,SMDPad,CuDef*%
G36*
G01*
X114610000Y-100685000D02*
X114610000Y-100315000D01*
G75*
G02*
X114745000Y-100180000I135000J0D01*
G01*
X115015000Y-100180000D01*
G75*
G02*
X115150000Y-100315000I0J-135000D01*
G01*
X115150000Y-100685000D01*
G75*
G02*
X115015000Y-100820000I-135000J0D01*
G01*
X114745000Y-100820000D01*
G75*
G02*
X114610000Y-100685000I0J135000D01*
G01*
G37*
%TD.AperFunction*%
%TD*%
%TO.P,R125,2*%
%TO.N,Net-(R124-Pad2)*%
%TA.AperFunction,SMDPad,CuDef*%
G36*
G01*
X129140000Y-146885000D02*
X129140000Y-146515000D01*
G75*
G02*
X129275000Y-146380000I135000J0D01*
G01*
X129545000Y-146380000D01*
G75*
G02*
X129680000Y-146515000I0J-135000D01*
G01*
X129680000Y-146885000D01*
G75*
G02*
X129545000Y-147020000I-135000J0D01*
G01*
X129275000Y-147020000D01*
G75*
G02*
X129140000Y-146885000I0J135000D01*
G01*
G37*
%TD.AperFunction*%
%TO.P,R125,1*%
%TO.N,Net-(J104-PadT)*%
%TA.AperFunction,SMDPad,CuDef*%
G36*
G01*
X128120000Y-146885000D02*
X128120000Y-146515000D01*
G75*
G02*
X128255000Y-146380000I135000J0D01*
G01*
X128525000Y-146380000D01*
G75*
G02*
X128660000Y-146515000I0J-135000D01*
G01*
X128660000Y-146885000D01*
G75*
G02*
X128525000Y-147020000I-135000J0D01*
G01*
X128255000Y-147020000D01*
G75*
G02*
X128120000Y-146885000I0J135000D01*
G01*
G37*
%TD.AperFunction*%
%TD*%
%TO.P,R124,2*%
%TO.N,Net-(R124-Pad2)*%
%TA.AperFunction,SMDPad,CuDef*%
G36*
G01*
X115630000Y-99485000D02*
X115630000Y-99115000D01*
G75*
G02*
X115765000Y-98980000I135000J0D01*
G01*
X116035000Y-98980000D01*
G75*
G02*
X116170000Y-99115000I0J-135000D01*
G01*
X116170000Y-99485000D01*
G75*
G02*
X116035000Y-99620000I-135000J0D01*
G01*
X115765000Y-99620000D01*
G75*
G02*
X115630000Y-99485000I0J135000D01*
G01*
G37*
%TD.AperFunction*%
%TO.P,R124,1*%
%TO.N,Net-(R124-Pad1)*%
%TA.AperFunction,SMDPad,CuDef*%
G36*
G01*
X114610000Y-99485000D02*
X114610000Y-99115000D01*
G75*
G02*
X114745000Y-98980000I135000J0D01*
G01*
X115015000Y-98980000D01*
G75*
G02*
X115150000Y-99115000I0J-135000D01*
G01*
X115150000Y-99485000D01*
G75*
G02*
X115015000Y-99620000I-135000J0D01*
G01*
X114745000Y-99620000D01*
G75*
G02*
X114610000Y-99485000I0J135000D01*
G01*
G37*
%TD.AperFunction*%
%TD*%
%TO.P,R123,2*%
%TO.N,/IABC*%
%TA.AperFunction,SMDPad,CuDef*%
G36*
G01*
X125530000Y-126985000D02*
X125530000Y-126615000D01*
G75*
G02*
X125665000Y-126480000I135000J0D01*
G01*
X125935000Y-126480000D01*
G75*
G02*
X126070000Y-126615000I0J-135000D01*
G01*
X126070000Y-126985000D01*
G75*
G02*
X125935000Y-127120000I-135000J0D01*
G01*
X125665000Y-127120000D01*
G75*
G02*
X125530000Y-126985000I0J135000D01*
G01*
G37*
%TD.AperFunction*%
%TO.P,R123,1*%
%TO.N,Net-(R123-Pad1)*%
%TA.AperFunction,SMDPad,CuDef*%
G36*
G01*
X124510000Y-126985000D02*
X124510000Y-126615000D01*
G75*
G02*
X124645000Y-126480000I135000J0D01*
G01*
X124915000Y-126480000D01*
G75*
G02*
X125050000Y-126615000I0J-135000D01*
G01*
X125050000Y-126985000D01*
G75*
G02*
X124915000Y-127120000I-135000J0D01*
G01*
X124645000Y-127120000D01*
G75*
G02*
X124510000Y-126985000I0J135000D01*
G01*
G37*
%TD.AperFunction*%
%TD*%
%TO.P,R122,2*%
%TO.N,Net-(R119-Pad1)*%
%TA.AperFunction,SMDPad,CuDef*%
G36*
G01*
X117230000Y-126985000D02*
X117230000Y-126615000D01*
G75*
G02*
X117365000Y-126480000I135000J0D01*
G01*
X117635000Y-126480000D01*
G75*
G02*
X117770000Y-126615000I0J-135000D01*
G01*
X117770000Y-126985000D01*
G75*
G02*
X117635000Y-127120000I-135000J0D01*
G01*
X117365000Y-127120000D01*
G75*
G02*
X117230000Y-126985000I0J135000D01*
G01*
G37*
%TD.AperFunction*%
%TO.P,R122,1*%
%TO.N,Net-(C112-Pad2)*%
%TA.AperFunction,SMDPad,CuDef*%
G36*
G01*
X116210000Y-126985000D02*
X116210000Y-126615000D01*
G75*
G02*
X116345000Y-126480000I135000J0D01*
G01*
X116615000Y-126480000D01*
G75*
G02*
X116750000Y-126615000I0J-135000D01*
G01*
X116750000Y-126985000D01*
G75*
G02*
X116615000Y-127120000I-135000J0D01*
G01*
X116345000Y-127120000D01*
G75*
G02*
X116210000Y-126985000I0J135000D01*
G01*
G37*
%TD.AperFunction*%
%TD*%
%TO.P,R121,2*%
%TO.N,Net-(Q104-Pad1)*%
%TA.AperFunction,SMDPad,CuDef*%
G36*
G01*
X119930000Y-84485000D02*
X119930000Y-84115000D01*
G75*
G02*
X120065000Y-83980000I135000J0D01*
G01*
X120335000Y-83980000D01*
G75*
G02*
X120470000Y-84115000I0J-135000D01*
G01*
X120470000Y-84485000D01*
G75*
G02*
X120335000Y-84620000I-135000J0D01*
G01*
X120065000Y-84620000D01*
G75*
G02*
X119930000Y-84485000I0J135000D01*
G01*
G37*
%TD.AperFunction*%
%TO.P,R121,1*%
%TO.N,GND*%
%TA.AperFunction,SMDPad,CuDef*%
G36*
G01*
X118910000Y-84485000D02*
X118910000Y-84115000D01*
G75*
G02*
X119045000Y-83980000I135000J0D01*
G01*
X119315000Y-83980000D01*
G75*
G02*
X119450000Y-84115000I0J-135000D01*
G01*
X119450000Y-84485000D01*
G75*
G02*
X119315000Y-84620000I-135000J0D01*
G01*
X119045000Y-84620000D01*
G75*
G02*
X118910000Y-84485000I0J135000D01*
G01*
G37*
%TD.AperFunction*%
%TD*%
%TO.P,R120,2*%
%TO.N,GND*%
%TA.AperFunction,SMDPad,CuDef*%
G36*
G01*
X121530000Y-126985000D02*
X121530000Y-126615000D01*
G75*
G02*
X121665000Y-126480000I135000J0D01*
G01*
X121935000Y-126480000D01*
G75*
G02*
X122070000Y-126615000I0J-135000D01*
G01*
X122070000Y-126985000D01*
G75*
G02*
X121935000Y-127120000I-135000J0D01*
G01*
X121665000Y-127120000D01*
G75*
G02*
X121530000Y-126985000I0J135000D01*
G01*
G37*
%TD.AperFunction*%
%TO.P,R120,1*%
%TO.N,Net-(R118-Pad1)*%
%TA.AperFunction,SMDPad,CuDef*%
G36*
G01*
X120510000Y-126985000D02*
X120510000Y-126615000D01*
G75*
G02*
X120645000Y-126480000I135000J0D01*
G01*
X120915000Y-126480000D01*
G75*
G02*
X121050000Y-126615000I0J-135000D01*
G01*
X121050000Y-126985000D01*
G75*
G02*
X120915000Y-127120000I-135000J0D01*
G01*
X120645000Y-127120000D01*
G75*
G02*
X120510000Y-126985000I0J135000D01*
G01*
G37*
%TD.AperFunction*%
%TD*%
%TO.P,R119,2*%
%TO.N,GND*%
%TA.AperFunction,SMDPad,CuDef*%
G36*
G01*
X119330000Y-126985000D02*
X119330000Y-126615000D01*
G75*
G02*
X119465000Y-126480000I135000J0D01*
G01*
X119735000Y-126480000D01*
G75*
G02*
X119870000Y-126615000I0J-135000D01*
G01*
X119870000Y-126985000D01*
G75*
G02*
X119735000Y-127120000I-135000J0D01*
G01*
X119465000Y-127120000D01*
G75*
G02*
X119330000Y-126985000I0J135000D01*
G01*
G37*
%TD.AperFunction*%
%TO.P,R119,1*%
%TO.N,Net-(R119-Pad1)*%
%TA.AperFunction,SMDPad,CuDef*%
G36*
G01*
X118310000Y-126985000D02*
X118310000Y-126615000D01*
G75*
G02*
X118445000Y-126480000I135000J0D01*
G01*
X118715000Y-126480000D01*
G75*
G02*
X118850000Y-126615000I0J-135000D01*
G01*
X118850000Y-126985000D01*
G75*
G02*
X118715000Y-127120000I-135000J0D01*
G01*
X118445000Y-127120000D01*
G75*
G02*
X118310000Y-126985000I0J135000D01*
G01*
G37*
%TD.AperFunction*%
%TD*%
%TO.P,R118,2*%
%TO.N,Net-(R114-Pad1)*%
%TA.AperFunction,SMDPad,CuDef*%
G36*
G01*
X101870000Y-128415000D02*
X101870000Y-128785000D01*
G75*
G02*
X101735000Y-128920000I-135000J0D01*
G01*
X101465000Y-128920000D01*
G75*
G02*
X101330000Y-128785000I0J135000D01*
G01*
X101330000Y-128415000D01*
G75*
G02*
X101465000Y-128280000I135000J0D01*
G01*
X101735000Y-128280000D01*
G75*
G02*
X101870000Y-128415000I0J-135000D01*
G01*
G37*
%TD.AperFunction*%
%TO.P,R118,1*%
%TO.N,Net-(R118-Pad1)*%
%TA.AperFunction,SMDPad,CuDef*%
G36*
G01*
X102890000Y-128415000D02*
X102890000Y-128785000D01*
G75*
G02*
X102755000Y-128920000I-135000J0D01*
G01*
X102485000Y-128920000D01*
G75*
G02*
X102350000Y-128785000I0J135000D01*
G01*
X102350000Y-128415000D01*
G75*
G02*
X102485000Y-128280000I135000J0D01*
G01*
X102755000Y-128280000D01*
G75*
G02*
X102890000Y-128415000I0J-135000D01*
G01*
G37*
%TD.AperFunction*%
%TD*%
%TO.P,R117,2*%
%TO.N,GND*%
%TA.AperFunction,SMDPad,CuDef*%
G36*
G01*
X117450000Y-84115000D02*
X117450000Y-84485000D01*
G75*
G02*
X117315000Y-84620000I-135000J0D01*
G01*
X117045000Y-84620000D01*
G75*
G02*
X116910000Y-84485000I0J135000D01*
G01*
X116910000Y-84115000D01*
G75*
G02*
X117045000Y-83980000I135000J0D01*
G01*
X117315000Y-83980000D01*
G75*
G02*
X117450000Y-84115000I0J-135000D01*
G01*
G37*
%TD.AperFunction*%
%TO.P,R117,1*%
%TO.N,Net-(D101-Pad2)*%
%TA.AperFunction,SMDPad,CuDef*%
G36*
G01*
X118470000Y-84115000D02*
X118470000Y-84485000D01*
G75*
G02*
X118335000Y-84620000I-135000J0D01*
G01*
X118065000Y-84620000D01*
G75*
G02*
X117930000Y-84485000I0J135000D01*
G01*
X117930000Y-84115000D01*
G75*
G02*
X118065000Y-83980000I135000J0D01*
G01*
X118335000Y-83980000D01*
G75*
G02*
X118470000Y-84115000I0J-135000D01*
G01*
G37*
%TD.AperFunction*%
%TD*%
%TO.P,R116,2*%
%TO.N,Net-(C102-Pad2)*%
%TA.AperFunction,SMDPad,CuDef*%
G36*
G01*
X115830000Y-84485000D02*
X115830000Y-84115000D01*
G75*
G02*
X115965000Y-83980000I135000J0D01*
G01*
X116235000Y-83980000D01*
G75*
G02*
X116370000Y-84115000I0J-135000D01*
G01*
X116370000Y-84485000D01*
G75*
G02*
X116235000Y-84620000I-135000J0D01*
G01*
X115965000Y-84620000D01*
G75*
G02*
X115830000Y-84485000I0J135000D01*
G01*
G37*
%TD.AperFunction*%
%TO.P,R116,1*%
%TO.N,Net-(D101-Pad2)*%
%TA.AperFunction,SMDPad,CuDef*%
G36*
G01*
X114810000Y-84485000D02*
X114810000Y-84115000D01*
G75*
G02*
X114945000Y-83980000I135000J0D01*
G01*
X115215000Y-83980000D01*
G75*
G02*
X115350000Y-84115000I0J-135000D01*
G01*
X115350000Y-84485000D01*
G75*
G02*
X115215000Y-84620000I-135000J0D01*
G01*
X114945000Y-84620000D01*
G75*
G02*
X114810000Y-84485000I0J135000D01*
G01*
G37*
%TD.AperFunction*%
%TD*%
%TO.P,R115,2*%
%TO.N,/IABC*%
%TA.AperFunction,SMDPad,CuDef*%
G36*
G01*
X125730000Y-138085000D02*
X125730000Y-137715000D01*
G75*
G02*
X125865000Y-137580000I135000J0D01*
G01*
X126135000Y-137580000D01*
G75*
G02*
X126270000Y-137715000I0J-135000D01*
G01*
X126270000Y-138085000D01*
G75*
G02*
X126135000Y-138220000I-135000J0D01*
G01*
X125865000Y-138220000D01*
G75*
G02*
X125730000Y-138085000I0J135000D01*
G01*
G37*
%TD.AperFunction*%
%TO.P,R115,1*%
%TO.N,Net-(R115-Pad1)*%
%TA.AperFunction,SMDPad,CuDef*%
G36*
G01*
X124710000Y-138085000D02*
X124710000Y-137715000D01*
G75*
G02*
X124845000Y-137580000I135000J0D01*
G01*
X125115000Y-137580000D01*
G75*
G02*
X125250000Y-137715000I0J-135000D01*
G01*
X125250000Y-138085000D01*
G75*
G02*
X125115000Y-138220000I-135000J0D01*
G01*
X124845000Y-138220000D01*
G75*
G02*
X124710000Y-138085000I0J135000D01*
G01*
G37*
%TD.AperFunction*%
%TD*%
%TO.P,R114,2*%
%TO.N,Net-(R111-Pad1)*%
%TA.AperFunction,SMDPad,CuDef*%
G36*
G01*
X102330000Y-127185000D02*
X102330000Y-126815000D01*
G75*
G02*
X102465000Y-126680000I135000J0D01*
G01*
X102735000Y-126680000D01*
G75*
G02*
X102870000Y-126815000I0J-135000D01*
G01*
X102870000Y-127185000D01*
G75*
G02*
X102735000Y-127320000I-135000J0D01*
G01*
X102465000Y-127320000D01*
G75*
G02*
X102330000Y-127185000I0J135000D01*
G01*
G37*
%TD.AperFunction*%
%TO.P,R114,1*%
%TO.N,Net-(R114-Pad1)*%
%TA.AperFunction,SMDPad,CuDef*%
G36*
G01*
X101310000Y-127185000D02*
X101310000Y-126815000D01*
G75*
G02*
X101445000Y-126680000I135000J0D01*
G01*
X101715000Y-126680000D01*
G75*
G02*
X101850000Y-126815000I0J-135000D01*
G01*
X101850000Y-127185000D01*
G75*
G02*
X101715000Y-127320000I-135000J0D01*
G01*
X101445000Y-127320000D01*
G75*
G02*
X101310000Y-127185000I0J135000D01*
G01*
G37*
%TD.AperFunction*%
%TD*%
%TO.P,R113,2*%
%TO.N,GND*%
%TA.AperFunction,SMDPad,CuDef*%
G36*
G01*
X129230000Y-141985000D02*
X129230000Y-141615000D01*
G75*
G02*
X129365000Y-141480000I135000J0D01*
G01*
X129635000Y-141480000D01*
G75*
G02*
X129770000Y-141615000I0J-135000D01*
G01*
X129770000Y-141985000D01*
G75*
G02*
X129635000Y-142120000I-135000J0D01*
G01*
X129365000Y-142120000D01*
G75*
G02*
X129230000Y-141985000I0J135000D01*
G01*
G37*
%TD.AperFunction*%
%TO.P,R113,1*%
%TO.N,Net-(R113-Pad1)*%
%TA.AperFunction,SMDPad,CuDef*%
G36*
G01*
X128210000Y-141985000D02*
X128210000Y-141615000D01*
G75*
G02*
X128345000Y-141480000I135000J0D01*
G01*
X128615000Y-141480000D01*
G75*
G02*
X128750000Y-141615000I0J-135000D01*
G01*
X128750000Y-141985000D01*
G75*
G02*
X128615000Y-142120000I-135000J0D01*
G01*
X128345000Y-142120000D01*
G75*
G02*
X128210000Y-141985000I0J135000D01*
G01*
G37*
%TD.AperFunction*%
%TD*%
%TO.P,R112,2*%
%TO.N,GND*%
%TA.AperFunction,SMDPad,CuDef*%
G36*
G01*
X101870000Y-130915000D02*
X101870000Y-131285000D01*
G75*
G02*
X101735000Y-131420000I-135000J0D01*
G01*
X101465000Y-131420000D01*
G75*
G02*
X101330000Y-131285000I0J135000D01*
G01*
X101330000Y-130915000D01*
G75*
G02*
X101465000Y-130780000I135000J0D01*
G01*
X101735000Y-130780000D01*
G75*
G02*
X101870000Y-130915000I0J-135000D01*
G01*
G37*
%TD.AperFunction*%
%TO.P,R112,1*%
%TO.N,Net-(R111-Pad1)*%
%TA.AperFunction,SMDPad,CuDef*%
G36*
G01*
X102890000Y-130915000D02*
X102890000Y-131285000D01*
G75*
G02*
X102755000Y-131420000I-135000J0D01*
G01*
X102485000Y-131420000D01*
G75*
G02*
X102350000Y-131285000I0J135000D01*
G01*
X102350000Y-130915000D01*
G75*
G02*
X102485000Y-130780000I135000J0D01*
G01*
X102755000Y-130780000D01*
G75*
G02*
X102890000Y-130915000I0J-135000D01*
G01*
G37*
%TD.AperFunction*%
%TD*%
%TO.P,R111,2*%
%TO.N,/LP_IN*%
%TA.AperFunction,SMDPad,CuDef*%
G36*
G01*
X100950000Y-84315000D02*
X100950000Y-84685000D01*
G75*
G02*
X100815000Y-84820000I-135000J0D01*
G01*
X100545000Y-84820000D01*
G75*
G02*
X100410000Y-84685000I0J135000D01*
G01*
X100410000Y-84315000D01*
G75*
G02*
X100545000Y-84180000I135000J0D01*
G01*
X100815000Y-84180000D01*
G75*
G02*
X100950000Y-84315000I0J-135000D01*
G01*
G37*
%TD.AperFunction*%
%TO.P,R111,1*%
%TO.N,Net-(R111-Pad1)*%
%TA.AperFunction,SMDPad,CuDef*%
G36*
G01*
X101970000Y-84315000D02*
X101970000Y-84685000D01*
G75*
G02*
X101835000Y-84820000I-135000J0D01*
G01*
X101565000Y-84820000D01*
G75*
G02*
X101430000Y-84685000I0J135000D01*
G01*
X101430000Y-84315000D01*
G75*
G02*
X101565000Y-84180000I135000J0D01*
G01*
X101835000Y-84180000D01*
G75*
G02*
X101970000Y-84315000I0J-135000D01*
G01*
G37*
%TD.AperFunction*%
%TD*%
%TO.P,R110,2*%
%TO.N,-12V*%
%TA.AperFunction,SMDPad,CuDef*%
G36*
G01*
X127670000Y-90715000D02*
X127670000Y-91085000D01*
G75*
G02*
X127535000Y-91220000I-135000J0D01*
G01*
X127265000Y-91220000D01*
G75*
G02*
X127130000Y-91085000I0J135000D01*
G01*
X127130000Y-90715000D01*
G75*
G02*
X127265000Y-90580000I135000J0D01*
G01*
X127535000Y-90580000D01*
G75*
G02*
X127670000Y-90715000I0J-135000D01*
G01*
G37*
%TD.AperFunction*%
%TO.P,R110,1*%
%TO.N,Net-(C101-Pad2)*%
%TA.AperFunction,SMDPad,CuDef*%
G36*
G01*
X128690000Y-90715000D02*
X128690000Y-91085000D01*
G75*
G02*
X128555000Y-91220000I-135000J0D01*
G01*
X128285000Y-91220000D01*
G75*
G02*
X128150000Y-91085000I0J135000D01*
G01*
X128150000Y-90715000D01*
G75*
G02*
X128285000Y-90580000I135000J0D01*
G01*
X128555000Y-90580000D01*
G75*
G02*
X128690000Y-90715000I0J-135000D01*
G01*
G37*
%TD.AperFunction*%
%TD*%
%TO.P,R109,2*%
%TO.N,Net-(C101-Pad1)*%
%TA.AperFunction,SMDPad,CuDef*%
G36*
G01*
X124085000Y-111270000D02*
X123715000Y-111270000D01*
G75*
G02*
X123580000Y-111135000I0J135000D01*
G01*
X123580000Y-110865000D01*
G75*
G02*
X123715000Y-110730000I135000J0D01*
G01*
X124085000Y-110730000D01*
G75*
G02*
X124220000Y-110865000I0J-135000D01*
G01*
X124220000Y-111135000D01*
G75*
G02*
X124085000Y-111270000I-135000J0D01*
G01*
G37*
%TD.AperFunction*%
%TO.P,R109,1*%
%TO.N,Net-(Q101-Pad1)*%
%TA.AperFunction,SMDPad,CuDef*%
G36*
G01*
X124085000Y-112290000D02*
X123715000Y-112290000D01*
G75*
G02*
X123580000Y-112155000I0J135000D01*
G01*
X123580000Y-111885000D01*
G75*
G02*
X123715000Y-111750000I135000J0D01*
G01*
X124085000Y-111750000D01*
G75*
G02*
X124220000Y-111885000I0J-135000D01*
G01*
X124220000Y-112155000D01*
G75*
G02*
X124085000Y-112290000I-135000J0D01*
G01*
G37*
%TD.AperFunction*%
%TD*%
%TO.P,R108,2*%
%TO.N,Net-(R108-Pad2)*%
%TA.AperFunction,SMDPad,CuDef*%
G36*
G01*
X108430000Y-168785000D02*
X108430000Y-168415000D01*
G75*
G02*
X108565000Y-168280000I135000J0D01*
G01*
X108835000Y-168280000D01*
G75*
G02*
X108970000Y-168415000I0J-135000D01*
G01*
X108970000Y-168785000D01*
G75*
G02*
X108835000Y-168920000I-135000J0D01*
G01*
X108565000Y-168920000D01*
G75*
G02*
X108430000Y-168785000I0J135000D01*
G01*
G37*
%TD.AperFunction*%
%TO.P,R108,1*%
%TO.N,Net-(Q101-Pad2)*%
%TA.AperFunction,SMDPad,CuDef*%
G36*
G01*
X107410000Y-168785000D02*
X107410000Y-168415000D01*
G75*
G02*
X107545000Y-168280000I135000J0D01*
G01*
X107815000Y-168280000D01*
G75*
G02*
X107950000Y-168415000I0J-135000D01*
G01*
X107950000Y-168785000D01*
G75*
G02*
X107815000Y-168920000I-135000J0D01*
G01*
X107545000Y-168920000D01*
G75*
G02*
X107410000Y-168785000I0J135000D01*
G01*
G37*
%TD.AperFunction*%
%TD*%
%TO.P,R107,2*%
%TO.N,Net-(R104-Pad1)*%
%TA.AperFunction,SMDPad,CuDef*%
G36*
G01*
X104850000Y-91285000D02*
X104850000Y-90915000D01*
G75*
G02*
X104985000Y-90780000I135000J0D01*
G01*
X105255000Y-90780000D01*
G75*
G02*
X105390000Y-90915000I0J-135000D01*
G01*
X105390000Y-91285000D01*
G75*
G02*
X105255000Y-91420000I-135000J0D01*
G01*
X104985000Y-91420000D01*
G75*
G02*
X104850000Y-91285000I0J135000D01*
G01*
G37*
%TD.AperFunction*%
%TO.P,R107,1*%
%TO.N,/HP_IN*%
%TA.AperFunction,SMDPad,CuDef*%
G36*
G01*
X103830000Y-91285000D02*
X103830000Y-90915000D01*
G75*
G02*
X103965000Y-90780000I135000J0D01*
G01*
X104235000Y-90780000D01*
G75*
G02*
X104370000Y-90915000I0J-135000D01*
G01*
X104370000Y-91285000D01*
G75*
G02*
X104235000Y-91420000I-135000J0D01*
G01*
X103965000Y-91420000D01*
G75*
G02*
X103830000Y-91285000I0J135000D01*
G01*
G37*
%TD.AperFunction*%
%TD*%
%TO.P,R106,2*%
%TO.N,Net-(R105-Pad2)*%
%TA.AperFunction,SMDPad,CuDef*%
G36*
G01*
X111350000Y-84115000D02*
X111350000Y-84485000D01*
G75*
G02*
X111215000Y-84620000I-135000J0D01*
G01*
X110945000Y-84620000D01*
G75*
G02*
X110810000Y-84485000I0J135000D01*
G01*
X110810000Y-84115000D01*
G75*
G02*
X110945000Y-83980000I135000J0D01*
G01*
X111215000Y-83980000D01*
G75*
G02*
X111350000Y-84115000I0J-135000D01*
G01*
G37*
%TD.AperFunction*%
%TO.P,R106,1*%
%TO.N,Net-(R106-Pad1)*%
%TA.AperFunction,SMDPad,CuDef*%
G36*
G01*
X112370000Y-84115000D02*
X112370000Y-84485000D01*
G75*
G02*
X112235000Y-84620000I-135000J0D01*
G01*
X111965000Y-84620000D01*
G75*
G02*
X111830000Y-84485000I0J135000D01*
G01*
X111830000Y-84115000D01*
G75*
G02*
X111965000Y-83980000I135000J0D01*
G01*
X112235000Y-83980000D01*
G75*
G02*
X112370000Y-84115000I0J-135000D01*
G01*
G37*
%TD.AperFunction*%
%TD*%
%TO.P,R105,2*%
%TO.N,Net-(R105-Pad2)*%
%TA.AperFunction,SMDPad,CuDef*%
G36*
G01*
X113350000Y-84115000D02*
X113350000Y-84485000D01*
G75*
G02*
X113215000Y-84620000I-135000J0D01*
G01*
X112945000Y-84620000D01*
G75*
G02*
X112810000Y-84485000I0J135000D01*
G01*
X112810000Y-84115000D01*
G75*
G02*
X112945000Y-83980000I135000J0D01*
G01*
X113215000Y-83980000D01*
G75*
G02*
X113350000Y-84115000I0J-135000D01*
G01*
G37*
%TD.AperFunction*%
%TO.P,R105,1*%
%TO.N,Net-(R105-Pad1)*%
%TA.AperFunction,SMDPad,CuDef*%
G36*
G01*
X114370000Y-84115000D02*
X114370000Y-84485000D01*
G75*
G02*
X114235000Y-84620000I-135000J0D01*
G01*
X113965000Y-84620000D01*
G75*
G02*
X113830000Y-84485000I0J135000D01*
G01*
X113830000Y-84115000D01*
G75*
G02*
X113965000Y-83980000I135000J0D01*
G01*
X114235000Y-83980000D01*
G75*
G02*
X114370000Y-84115000I0J-135000D01*
G01*
G37*
%TD.AperFunction*%
%TD*%
%TO.P,R104,2*%
%TO.N,GND*%
%TA.AperFunction,SMDPad,CuDef*%
G36*
G01*
X106450000Y-90915000D02*
X106450000Y-91285000D01*
G75*
G02*
X106315000Y-91420000I-135000J0D01*
G01*
X106045000Y-91420000D01*
G75*
G02*
X105910000Y-91285000I0J135000D01*
G01*
X105910000Y-90915000D01*
G75*
G02*
X106045000Y-90780000I135000J0D01*
G01*
X106315000Y-90780000D01*
G75*
G02*
X106450000Y-90915000I0J-135000D01*
G01*
G37*
%TD.AperFunction*%
%TO.P,R104,1*%
%TO.N,Net-(R104-Pad1)*%
%TA.AperFunction,SMDPad,CuDef*%
G36*
G01*
X107470000Y-90915000D02*
X107470000Y-91285000D01*
G75*
G02*
X107335000Y-91420000I-135000J0D01*
G01*
X107065000Y-91420000D01*
G75*
G02*
X106930000Y-91285000I0J135000D01*
G01*
X106930000Y-90915000D01*
G75*
G02*
X107065000Y-90780000I135000J0D01*
G01*
X107335000Y-90780000D01*
G75*
G02*
X107470000Y-90915000I0J-135000D01*
G01*
G37*
%TD.AperFunction*%
%TD*%
%TO.P,R103,2*%
%TO.N,Net-(R103-Pad2)*%
%TA.AperFunction,SMDPad,CuDef*%
G36*
G01*
X115750000Y-125515000D02*
X115750000Y-125885000D01*
G75*
G02*
X115615000Y-126020000I-135000J0D01*
G01*
X115345000Y-126020000D01*
G75*
G02*
X115210000Y-125885000I0J135000D01*
G01*
X115210000Y-125515000D01*
G75*
G02*
X115345000Y-125380000I135000J0D01*
G01*
X115615000Y-125380000D01*
G75*
G02*
X115750000Y-125515000I0J-135000D01*
G01*
G37*
%TD.AperFunction*%
%TO.P,R103,1*%
%TO.N,Net-(Q101-Pad2)*%
%TA.AperFunction,SMDPad,CuDef*%
G36*
G01*
X116770000Y-125515000D02*
X116770000Y-125885000D01*
G75*
G02*
X116635000Y-126020000I-135000J0D01*
G01*
X116365000Y-126020000D01*
G75*
G02*
X116230000Y-125885000I0J135000D01*
G01*
X116230000Y-125515000D01*
G75*
G02*
X116365000Y-125380000I135000J0D01*
G01*
X116635000Y-125380000D01*
G75*
G02*
X116770000Y-125515000I0J-135000D01*
G01*
G37*
%TD.AperFunction*%
%TD*%
%TO.P,R102,2*%
%TO.N,Net-(J103-PadT)*%
%TA.AperFunction,SMDPad,CuDef*%
G36*
G01*
X129230000Y-145385000D02*
X129230000Y-145015000D01*
G75*
G02*
X129365000Y-144880000I135000J0D01*
G01*
X129635000Y-144880000D01*
G75*
G02*
X129770000Y-145015000I0J-135000D01*
G01*
X129770000Y-145385000D01*
G75*
G02*
X129635000Y-145520000I-135000J0D01*
G01*
X129365000Y-145520000D01*
G75*
G02*
X129230000Y-145385000I0J135000D01*
G01*
G37*
%TD.AperFunction*%
%TO.P,R102,1*%
%TO.N,Net-(Q101-Pad2)*%
%TA.AperFunction,SMDPad,CuDef*%
G36*
G01*
X128210000Y-145385000D02*
X128210000Y-145015000D01*
G75*
G02*
X128345000Y-144880000I135000J0D01*
G01*
X128615000Y-144880000D01*
G75*
G02*
X128750000Y-145015000I0J-135000D01*
G01*
X128750000Y-145385000D01*
G75*
G02*
X128615000Y-145520000I-135000J0D01*
G01*
X128345000Y-145520000D01*
G75*
G02*
X128210000Y-145385000I0J135000D01*
G01*
G37*
%TD.AperFunction*%
%TD*%
%TO.P,R101,2*%
%TO.N,Net-(J102-PadT)*%
%TA.AperFunction,SMDPad,CuDef*%
G36*
G01*
X129230000Y-143785000D02*
X129230000Y-143415000D01*
G75*
G02*
X129365000Y-143280000I135000J0D01*
G01*
X129635000Y-143280000D01*
G75*
G02*
X129770000Y-143415000I0J-135000D01*
G01*
X129770000Y-143785000D01*
G75*
G02*
X129635000Y-143920000I-135000J0D01*
G01*
X129365000Y-143920000D01*
G75*
G02*
X129230000Y-143785000I0J135000D01*
G01*
G37*
%TD.AperFunction*%
%TO.P,R101,1*%
%TO.N,Net-(Q101-Pad2)*%
%TA.AperFunction,SMDPad,CuDef*%
G36*
G01*
X128210000Y-143785000D02*
X128210000Y-143415000D01*
G75*
G02*
X128345000Y-143280000I135000J0D01*
G01*
X128615000Y-143280000D01*
G75*
G02*
X128750000Y-143415000I0J-135000D01*
G01*
X128750000Y-143785000D01*
G75*
G02*
X128615000Y-143920000I-135000J0D01*
G01*
X128345000Y-143920000D01*
G75*
G02*
X128210000Y-143785000I0J135000D01*
G01*
G37*
%TD.AperFunction*%
%TD*%
D15*
%TO.P,Q104,1*%
%TO.N,Net-(Q104-Pad1)*%
X104600000Y-101460000D03*
D16*
%TO.P,Q104,3*%
%TO.N,Net-(Q104-Pad3)*%
X104600000Y-104000000D03*
%TO.P,Q104,2*%
%TO.N,GND*%
X104600000Y-102730000D03*
%TD*%
D17*
%TO.P,Q103,1*%
%TO.N,Net-(Q101-Pad1)*%
X127500000Y-119500000D03*
D18*
%TO.P,Q103,3*%
%TO.N,/IABC*%
X124960000Y-119500000D03*
%TO.P,Q103,2*%
%TO.N,GND*%
X126230000Y-119500000D03*
%TD*%
D19*
%TO.P,Q102,6*%
%TO.N,/IABC*%
X127560000Y-116750000D03*
%TO.P,Q102,5*%
%TO.N,Net-(Q101-Pad2)*%
X127560000Y-117400000D03*
%TO.P,Q102,4*%
%TO.N,Net-(Q101-Pad1)*%
X127560000Y-118050000D03*
%TO.P,Q102,3*%
%TO.N,Net-(C101-Pad2)*%
X124900000Y-118050000D03*
%TO.P,Q102,2*%
%TO.N,GND*%
X124900000Y-117400000D03*
%TO.P,Q102,1*%
%TO.N,Net-(Q101-Pad1)*%
X124900000Y-116750000D03*
%TD*%
D17*
%TO.P,Q101,1*%
%TO.N,Net-(Q101-Pad1)*%
X124960000Y-115300000D03*
D18*
%TO.P,Q101,3*%
%TO.N,Net-(C101-Pad2)*%
X127500000Y-115300000D03*
%TO.P,Q101,2*%
%TO.N,Net-(Q101-Pad2)*%
X126230000Y-115300000D03*
%TD*%
D20*
%TO.P,J106,T*%
%TO.N,Net-(C117-Pad1)*%
X110800000Y-170100000D03*
X119000000Y-170100000D03*
%TO.P,J106,S*%
%TO.N,GND*%
X121200000Y-170100000D03*
%TD*%
D21*
%TO.P,J105,10*%
%TO.N,-12V*%
X101900000Y-120460000D03*
%TO.P,J105,9*%
X104440000Y-120460000D03*
%TO.P,J105,8*%
%TO.N,GND*%
X101900000Y-117920000D03*
%TO.P,J105,7*%
X104440000Y-117920000D03*
%TO.P,J105,6*%
X101900000Y-115380000D03*
%TO.P,J105,5*%
X104440000Y-115380000D03*
%TO.P,J105,4*%
X101900000Y-112840000D03*
%TO.P,J105,3*%
X104440000Y-112840000D03*
%TO.P,J105,2*%
%TO.N,+12V*%
X101900000Y-110300000D03*
D22*
%TO.P,J105,1*%
X104440000Y-110300000D03*
%TD*%
D23*
%TO.P,J104,T*%
%TO.N,Net-(J104-PadT)*%
X126200000Y-153400000D03*
X126200000Y-161600000D03*
%TO.P,J104,S*%
%TO.N,GND*%
X126200000Y-163800000D03*
%TD*%
%TO.P,J103,T*%
%TO.N,Net-(J103-PadT)*%
X115500000Y-153400000D03*
X115500000Y-161600000D03*
%TO.P,J103,S*%
%TO.N,GND*%
X115500000Y-163800000D03*
%TD*%
D20*
%TO.P,J102,T*%
%TO.N,Net-(J102-PadT)*%
X110700000Y-147400000D03*
X118900000Y-147400000D03*
%TO.P,J102,S*%
%TO.N,GND*%
X121100000Y-147400000D03*
%TD*%
D23*
%TO.P,J101,T*%
%TO.N,Net-(J101-PadT)*%
X104800000Y-153400000D03*
X104800000Y-161600000D03*
%TO.P,J101,S*%
%TO.N,GND*%
X104800000Y-163800000D03*
%TD*%
D13*
%TO.P,D102,2*%
%TO.N,Net-(C102-Pad2)*%
X128100000Y-95300000D03*
D24*
%TO.P,D102,1*%
%TO.N,Net-(D101-Pad2)*%
X125560000Y-95300000D03*
%TD*%
D13*
%TO.P,D101,2*%
%TO.N,Net-(D101-Pad2)*%
X105440000Y-95300000D03*
D24*
%TO.P,D101,1*%
%TO.N,Net-(C102-Pad2)*%
X102900000Y-95300000D03*
%TD*%
%TO.P,C117,2*%
%TO.N,Net-(C117-Pad2)*%
%TA.AperFunction,SMDPad,CuDef*%
G36*
G01*
X108020000Y-167330000D02*
X108020000Y-167670000D01*
G75*
G02*
X107880000Y-167810000I-140000J0D01*
G01*
X107600000Y-167810000D01*
G75*
G02*
X107460000Y-167670000I0J140000D01*
G01*
X107460000Y-167330000D01*
G75*
G02*
X107600000Y-167190000I140000J0D01*
G01*
X107880000Y-167190000D01*
G75*
G02*
X108020000Y-167330000I0J-140000D01*
G01*
G37*
%TD.AperFunction*%
%TO.P,C117,1*%
%TO.N,Net-(C117-Pad1)*%
%TA.AperFunction,SMDPad,CuDef*%
G36*
G01*
X108980000Y-167330000D02*
X108980000Y-167670000D01*
G75*
G02*
X108840000Y-167810000I-140000J0D01*
G01*
X108560000Y-167810000D01*
G75*
G02*
X108420000Y-167670000I0J140000D01*
G01*
X108420000Y-167330000D01*
G75*
G02*
X108560000Y-167190000I140000J0D01*
G01*
X108840000Y-167190000D01*
G75*
G02*
X108980000Y-167330000I0J-140000D01*
G01*
G37*
%TD.AperFunction*%
%TD*%
%TO.P,C116,2*%
%TO.N,-12V*%
%TA.AperFunction,SMDPad,CuDef*%
G36*
G01*
X106330000Y-120120000D02*
X106670000Y-120120000D01*
G75*
G02*
X106810000Y-120260000I0J-140000D01*
G01*
X106810000Y-120540000D01*
G75*
G02*
X106670000Y-120680000I-140000J0D01*
G01*
X106330000Y-120680000D01*
G75*
G02*
X106190000Y-120540000I0J140000D01*
G01*
X106190000Y-120260000D01*
G75*
G02*
X106330000Y-120120000I140000J0D01*
G01*
G37*
%TD.AperFunction*%
%TO.P,C116,1*%
%TO.N,GND*%
%TA.AperFunction,SMDPad,CuDef*%
G36*
G01*
X106330000Y-119160000D02*
X106670000Y-119160000D01*
G75*
G02*
X106810000Y-119300000I0J-140000D01*
G01*
X106810000Y-119580000D01*
G75*
G02*
X106670000Y-119720000I-140000J0D01*
G01*
X106330000Y-119720000D01*
G75*
G02*
X106190000Y-119580000I0J140000D01*
G01*
X106190000Y-119300000D01*
G75*
G02*
X106330000Y-119160000I140000J0D01*
G01*
G37*
%TD.AperFunction*%
%TD*%
%TO.P,C115,2*%
%TO.N,GND*%
%TA.AperFunction,SMDPad,CuDef*%
G36*
G01*
X106330000Y-110980000D02*
X106670000Y-110980000D01*
G75*
G02*
X106810000Y-111120000I0J-140000D01*
G01*
X106810000Y-111400000D01*
G75*
G02*
X106670000Y-111540000I-140000J0D01*
G01*
X106330000Y-111540000D01*
G75*
G02*
X106190000Y-111400000I0J140000D01*
G01*
X106190000Y-111120000D01*
G75*
G02*
X106330000Y-110980000I140000J0D01*
G01*
G37*
%TD.AperFunction*%
%TO.P,C115,1*%
%TO.N,+12V*%
%TA.AperFunction,SMDPad,CuDef*%
G36*
G01*
X106330000Y-110020000D02*
X106670000Y-110020000D01*
G75*
G02*
X106810000Y-110160000I0J-140000D01*
G01*
X106810000Y-110440000D01*
G75*
G02*
X106670000Y-110580000I-140000J0D01*
G01*
X106330000Y-110580000D01*
G75*
G02*
X106190000Y-110440000I0J140000D01*
G01*
X106190000Y-110160000D01*
G75*
G02*
X106330000Y-110020000I140000J0D01*
G01*
G37*
%TD.AperFunction*%
%TD*%
%TO.P,C114,2*%
%TO.N,GND*%
%TA.AperFunction,SMDPad,CuDef*%
G36*
G01*
X124020000Y-107830000D02*
X124020000Y-108170000D01*
G75*
G02*
X123880000Y-108310000I-140000J0D01*
G01*
X123600000Y-108310000D01*
G75*
G02*
X123460000Y-108170000I0J140000D01*
G01*
X123460000Y-107830000D01*
G75*
G02*
X123600000Y-107690000I140000J0D01*
G01*
X123880000Y-107690000D01*
G75*
G02*
X124020000Y-107830000I0J-140000D01*
G01*
G37*
%TD.AperFunction*%
%TO.P,C114,1*%
%TO.N,-12V*%
%TA.AperFunction,SMDPad,CuDef*%
G36*
G01*
X124980000Y-107830000D02*
X124980000Y-108170000D01*
G75*
G02*
X124840000Y-108310000I-140000J0D01*
G01*
X124560000Y-108310000D01*
G75*
G02*
X124420000Y-108170000I0J140000D01*
G01*
X124420000Y-107830000D01*
G75*
G02*
X124560000Y-107690000I140000J0D01*
G01*
X124840000Y-107690000D01*
G75*
G02*
X124980000Y-107830000I0J-140000D01*
G01*
G37*
%TD.AperFunction*%
%TD*%
%TO.P,C113,2*%
%TO.N,+12V*%
%TA.AperFunction,SMDPad,CuDef*%
G36*
G01*
X129420000Y-101230000D02*
X129420000Y-101570000D01*
G75*
G02*
X129280000Y-101710000I-140000J0D01*
G01*
X129000000Y-101710000D01*
G75*
G02*
X128860000Y-101570000I0J140000D01*
G01*
X128860000Y-101230000D01*
G75*
G02*
X129000000Y-101090000I140000J0D01*
G01*
X129280000Y-101090000D01*
G75*
G02*
X129420000Y-101230000I0J-140000D01*
G01*
G37*
%TD.AperFunction*%
%TO.P,C113,1*%
%TO.N,GND*%
%TA.AperFunction,SMDPad,CuDef*%
G36*
G01*
X130380000Y-101230000D02*
X130380000Y-101570000D01*
G75*
G02*
X130240000Y-101710000I-140000J0D01*
G01*
X129960000Y-101710000D01*
G75*
G02*
X129820000Y-101570000I0J140000D01*
G01*
X129820000Y-101230000D01*
G75*
G02*
X129960000Y-101090000I140000J0D01*
G01*
X130240000Y-101090000D01*
G75*
G02*
X130380000Y-101230000I0J-140000D01*
G01*
G37*
%TD.AperFunction*%
%TD*%
%TO.P,C112,2*%
%TO.N,Net-(C112-Pad2)*%
%TA.AperFunction,SMDPad,CuDef*%
G36*
G01*
X110680000Y-101470000D02*
X110680000Y-101130000D01*
G75*
G02*
X110820000Y-100990000I140000J0D01*
G01*
X111100000Y-100990000D01*
G75*
G02*
X111240000Y-101130000I0J-140000D01*
G01*
X111240000Y-101470000D01*
G75*
G02*
X111100000Y-101610000I-140000J0D01*
G01*
X110820000Y-101610000D01*
G75*
G02*
X110680000Y-101470000I0J140000D01*
G01*
G37*
%TD.AperFunction*%
%TO.P,C112,1*%
%TO.N,/Out*%
%TA.AperFunction,SMDPad,CuDef*%
G36*
G01*
X109720000Y-101470000D02*
X109720000Y-101130000D01*
G75*
G02*
X109860000Y-100990000I140000J0D01*
G01*
X110140000Y-100990000D01*
G75*
G02*
X110280000Y-101130000I0J-140000D01*
G01*
X110280000Y-101470000D01*
G75*
G02*
X110140000Y-101610000I-140000J0D01*
G01*
X109860000Y-101610000D01*
G75*
G02*
X109720000Y-101470000I0J140000D01*
G01*
G37*
%TD.AperFunction*%
%TD*%
%TO.P,C111,2*%
%TO.N,GND*%
%TA.AperFunction,SMDPad,CuDef*%
G36*
G01*
X101020000Y-144330000D02*
X101020000Y-144670000D01*
G75*
G02*
X100880000Y-144810000I-140000J0D01*
G01*
X100600000Y-144810000D01*
G75*
G02*
X100460000Y-144670000I0J140000D01*
G01*
X100460000Y-144330000D01*
G75*
G02*
X100600000Y-144190000I140000J0D01*
G01*
X100880000Y-144190000D01*
G75*
G02*
X101020000Y-144330000I0J-140000D01*
G01*
G37*
%TD.AperFunction*%
%TO.P,C111,1*%
%TO.N,-12V*%
%TA.AperFunction,SMDPad,CuDef*%
G36*
G01*
X101980000Y-144330000D02*
X101980000Y-144670000D01*
G75*
G02*
X101840000Y-144810000I-140000J0D01*
G01*
X101560000Y-144810000D01*
G75*
G02*
X101420000Y-144670000I0J140000D01*
G01*
X101420000Y-144330000D01*
G75*
G02*
X101560000Y-144190000I140000J0D01*
G01*
X101840000Y-144190000D01*
G75*
G02*
X101980000Y-144330000I0J-140000D01*
G01*
G37*
%TD.AperFunction*%
%TD*%
%TO.P,C110,2*%
%TO.N,+12V*%
%TA.AperFunction,SMDPad,CuDef*%
G36*
G01*
X108580000Y-139130000D02*
X108580000Y-139470000D01*
G75*
G02*
X108440000Y-139610000I-140000J0D01*
G01*
X108160000Y-139610000D01*
G75*
G02*
X108020000Y-139470000I0J140000D01*
G01*
X108020000Y-139130000D01*
G75*
G02*
X108160000Y-138990000I140000J0D01*
G01*
X108440000Y-138990000D01*
G75*
G02*
X108580000Y-139130000I0J-140000D01*
G01*
G37*
%TD.AperFunction*%
%TO.P,C110,1*%
%TO.N,GND*%
%TA.AperFunction,SMDPad,CuDef*%
G36*
G01*
X109540000Y-139130000D02*
X109540000Y-139470000D01*
G75*
G02*
X109400000Y-139610000I-140000J0D01*
G01*
X109120000Y-139610000D01*
G75*
G02*
X108980000Y-139470000I0J140000D01*
G01*
X108980000Y-139130000D01*
G75*
G02*
X109120000Y-138990000I140000J0D01*
G01*
X109400000Y-138990000D01*
G75*
G02*
X109540000Y-139130000I0J-140000D01*
G01*
G37*
%TD.AperFunction*%
%TD*%
%TO.P,C109,2*%
%TO.N,GND*%
%TA.AperFunction,SMDPad,CuDef*%
G36*
G01*
X123820000Y-90730000D02*
X123820000Y-91070000D01*
G75*
G02*
X123680000Y-91210000I-140000J0D01*
G01*
X123400000Y-91210000D01*
G75*
G02*
X123260000Y-91070000I0J140000D01*
G01*
X123260000Y-90730000D01*
G75*
G02*
X123400000Y-90590000I140000J0D01*
G01*
X123680000Y-90590000D01*
G75*
G02*
X123820000Y-90730000I0J-140000D01*
G01*
G37*
%TD.AperFunction*%
%TO.P,C109,1*%
%TO.N,-12V*%
%TA.AperFunction,SMDPad,CuDef*%
G36*
G01*
X124780000Y-90730000D02*
X124780000Y-91070000D01*
G75*
G02*
X124640000Y-91210000I-140000J0D01*
G01*
X124360000Y-91210000D01*
G75*
G02*
X124220000Y-91070000I0J140000D01*
G01*
X124220000Y-90730000D01*
G75*
G02*
X124360000Y-90590000I140000J0D01*
G01*
X124640000Y-90590000D01*
G75*
G02*
X124780000Y-90730000I0J-140000D01*
G01*
G37*
%TD.AperFunction*%
%TD*%
%TO.P,C108,2*%
%TO.N,+12V*%
%TA.AperFunction,SMDPad,CuDef*%
G36*
G01*
X129380000Y-84230000D02*
X129380000Y-84570000D01*
G75*
G02*
X129240000Y-84710000I-140000J0D01*
G01*
X128960000Y-84710000D01*
G75*
G02*
X128820000Y-84570000I0J140000D01*
G01*
X128820000Y-84230000D01*
G75*
G02*
X128960000Y-84090000I140000J0D01*
G01*
X129240000Y-84090000D01*
G75*
G02*
X129380000Y-84230000I0J-140000D01*
G01*
G37*
%TD.AperFunction*%
%TO.P,C108,1*%
%TO.N,GND*%
%TA.AperFunction,SMDPad,CuDef*%
G36*
G01*
X130340000Y-84230000D02*
X130340000Y-84570000D01*
G75*
G02*
X130200000Y-84710000I-140000J0D01*
G01*
X129920000Y-84710000D01*
G75*
G02*
X129780000Y-84570000I0J140000D01*
G01*
X129780000Y-84230000D01*
G75*
G02*
X129920000Y-84090000I140000J0D01*
G01*
X130200000Y-84090000D01*
G75*
G02*
X130340000Y-84230000I0J-140000D01*
G01*
G37*
%TD.AperFunction*%
%TD*%
%TO.P,C107,2*%
%TO.N,GND*%
%TA.AperFunction,SMDPad,CuDef*%
G36*
G01*
X101320000Y-91270000D02*
X101320000Y-90930000D01*
G75*
G02*
X101460000Y-90790000I140000J0D01*
G01*
X101740000Y-90790000D01*
G75*
G02*
X101880000Y-90930000I0J-140000D01*
G01*
X101880000Y-91270000D01*
G75*
G02*
X101740000Y-91410000I-140000J0D01*
G01*
X101460000Y-91410000D01*
G75*
G02*
X101320000Y-91270000I0J140000D01*
G01*
G37*
%TD.AperFunction*%
%TO.P,C107,1*%
%TO.N,-12V*%
%TA.AperFunction,SMDPad,CuDef*%
G36*
G01*
X100360000Y-91270000D02*
X100360000Y-90930000D01*
G75*
G02*
X100500000Y-90790000I140000J0D01*
G01*
X100780000Y-90790000D01*
G75*
G02*
X100920000Y-90930000I0J-140000D01*
G01*
X100920000Y-91270000D01*
G75*
G02*
X100780000Y-91410000I-140000J0D01*
G01*
X100500000Y-91410000D01*
G75*
G02*
X100360000Y-91270000I0J140000D01*
G01*
G37*
%TD.AperFunction*%
%TD*%
%TO.P,C106,2*%
%TO.N,+12V*%
%TA.AperFunction,SMDPad,CuDef*%
G36*
G01*
X106900000Y-84670000D02*
X106900000Y-84330000D01*
G75*
G02*
X107040000Y-84190000I140000J0D01*
G01*
X107320000Y-84190000D01*
G75*
G02*
X107460000Y-84330000I0J-140000D01*
G01*
X107460000Y-84670000D01*
G75*
G02*
X107320000Y-84810000I-140000J0D01*
G01*
X107040000Y-84810000D01*
G75*
G02*
X106900000Y-84670000I0J140000D01*
G01*
G37*
%TD.AperFunction*%
%TO.P,C106,1*%
%TO.N,GND*%
%TA.AperFunction,SMDPad,CuDef*%
G36*
G01*
X105940000Y-84670000D02*
X105940000Y-84330000D01*
G75*
G02*
X106080000Y-84190000I140000J0D01*
G01*
X106360000Y-84190000D01*
G75*
G02*
X106500000Y-84330000I0J-140000D01*
G01*
X106500000Y-84670000D01*
G75*
G02*
X106360000Y-84810000I-140000J0D01*
G01*
X106080000Y-84810000D01*
G75*
G02*
X105940000Y-84670000I0J140000D01*
G01*
G37*
%TD.AperFunction*%
%TD*%
%TO.P,C105,2*%
%TO.N,GND*%
%TA.AperFunction,SMDPad,CuDef*%
G36*
G01*
X112100000Y-126650000D02*
X112100000Y-126990000D01*
G75*
G02*
X111960000Y-127130000I-140000J0D01*
G01*
X111680000Y-127130000D01*
G75*
G02*
X111540000Y-126990000I0J140000D01*
G01*
X111540000Y-126650000D01*
G75*
G02*
X111680000Y-126510000I140000J0D01*
G01*
X111960000Y-126510000D01*
G75*
G02*
X112100000Y-126650000I0J-140000D01*
G01*
G37*
%TD.AperFunction*%
%TO.P,C105,1*%
%TO.N,-12V*%
%TA.AperFunction,SMDPad,CuDef*%
G36*
G01*
X113060000Y-126650000D02*
X113060000Y-126990000D01*
G75*
G02*
X112920000Y-127130000I-140000J0D01*
G01*
X112640000Y-127130000D01*
G75*
G02*
X112500000Y-126990000I0J140000D01*
G01*
X112500000Y-126650000D01*
G75*
G02*
X112640000Y-126510000I140000J0D01*
G01*
X112920000Y-126510000D01*
G75*
G02*
X113060000Y-126650000I0J-140000D01*
G01*
G37*
%TD.AperFunction*%
%TD*%
%TO.P,C104,2*%
%TO.N,+12V*%
%TA.AperFunction,SMDPad,CuDef*%
G36*
G01*
X112520000Y-138070000D02*
X112520000Y-137730000D01*
G75*
G02*
X112660000Y-137590000I140000J0D01*
G01*
X112940000Y-137590000D01*
G75*
G02*
X113080000Y-137730000I0J-140000D01*
G01*
X113080000Y-138070000D01*
G75*
G02*
X112940000Y-138210000I-140000J0D01*
G01*
X112660000Y-138210000D01*
G75*
G02*
X112520000Y-138070000I0J140000D01*
G01*
G37*
%TD.AperFunction*%
%TO.P,C104,1*%
%TO.N,GND*%
%TA.AperFunction,SMDPad,CuDef*%
G36*
G01*
X111560000Y-138070000D02*
X111560000Y-137730000D01*
G75*
G02*
X111700000Y-137590000I140000J0D01*
G01*
X111980000Y-137590000D01*
G75*
G02*
X112120000Y-137730000I0J-140000D01*
G01*
X112120000Y-138070000D01*
G75*
G02*
X111980000Y-138210000I-140000J0D01*
G01*
X111700000Y-138210000D01*
G75*
G02*
X111560000Y-138070000I0J140000D01*
G01*
G37*
%TD.AperFunction*%
%TD*%
%TO.P,C103,2*%
%TO.N,/HP_IN*%
%TA.AperFunction,SMDPad,CuDef*%
G36*
G01*
X114720000Y-126630000D02*
X114720000Y-126970000D01*
G75*
G02*
X114580000Y-127110000I-140000J0D01*
G01*
X114300000Y-127110000D01*
G75*
G02*
X114160000Y-126970000I0J140000D01*
G01*
X114160000Y-126630000D01*
G75*
G02*
X114300000Y-126490000I140000J0D01*
G01*
X114580000Y-126490000D01*
G75*
G02*
X114720000Y-126630000I0J-140000D01*
G01*
G37*
%TD.AperFunction*%
%TO.P,C103,1*%
%TO.N,Net-(C103-Pad1)*%
%TA.AperFunction,SMDPad,CuDef*%
G36*
G01*
X115680000Y-126630000D02*
X115680000Y-126970000D01*
G75*
G02*
X115540000Y-127110000I-140000J0D01*
G01*
X115260000Y-127110000D01*
G75*
G02*
X115120000Y-126970000I0J140000D01*
G01*
X115120000Y-126630000D01*
G75*
G02*
X115260000Y-126490000I140000J0D01*
G01*
X115540000Y-126490000D01*
G75*
G02*
X115680000Y-126630000I0J-140000D01*
G01*
G37*
%TD.AperFunction*%
%TD*%
%TO.P,C102,2*%
%TO.N,Net-(C102-Pad2)*%
%TA.AperFunction,SMDPad,CuDef*%
G36*
G01*
X104320000Y-146670000D02*
X104320000Y-146330000D01*
G75*
G02*
X104460000Y-146190000I140000J0D01*
G01*
X104740000Y-146190000D01*
G75*
G02*
X104880000Y-146330000I0J-140000D01*
G01*
X104880000Y-146670000D01*
G75*
G02*
X104740000Y-146810000I-140000J0D01*
G01*
X104460000Y-146810000D01*
G75*
G02*
X104320000Y-146670000I0J140000D01*
G01*
G37*
%TD.AperFunction*%
%TO.P,C102,1*%
%TO.N,Net-(C102-Pad1)*%
%TA.AperFunction,SMDPad,CuDef*%
G36*
G01*
X103360000Y-146670000D02*
X103360000Y-146330000D01*
G75*
G02*
X103500000Y-146190000I140000J0D01*
G01*
X103780000Y-146190000D01*
G75*
G02*
X103920000Y-146330000I0J-140000D01*
G01*
X103920000Y-146670000D01*
G75*
G02*
X103780000Y-146810000I-140000J0D01*
G01*
X103500000Y-146810000D01*
G75*
G02*
X103360000Y-146670000I0J140000D01*
G01*
G37*
%TD.AperFunction*%
%TD*%
%TO.P,C101,2*%
%TO.N,Net-(C101-Pad2)*%
%TA.AperFunction,SMDPad,CuDef*%
G36*
G01*
X126180000Y-91070000D02*
X126180000Y-90730000D01*
G75*
G02*
X126320000Y-90590000I140000J0D01*
G01*
X126600000Y-90590000D01*
G75*
G02*
X126740000Y-90730000I0J-140000D01*
G01*
X126740000Y-91070000D01*
G75*
G02*
X126600000Y-91210000I-140000J0D01*
G01*
X126320000Y-91210000D01*
G75*
G02*
X126180000Y-91070000I0J140000D01*
G01*
G37*
%TD.AperFunction*%
%TO.P,C101,1*%
%TO.N,Net-(C101-Pad1)*%
%TA.AperFunction,SMDPad,CuDef*%
G36*
G01*
X125220000Y-91070000D02*
X125220000Y-90730000D01*
G75*
G02*
X125360000Y-90590000I140000J0D01*
G01*
X125640000Y-90590000D01*
G75*
G02*
X125780000Y-90730000I0J-140000D01*
G01*
X125780000Y-91070000D01*
G75*
G02*
X125640000Y-91210000I-140000J0D01*
G01*
X125360000Y-91210000D01*
G75*
G02*
X125220000Y-91070000I0J140000D01*
G01*
G37*
%TD.AperFunction*%
%TD*%
D25*
%TO.N,Net-(C101-Pad2)*%
X122706144Y-118613821D03*
X128800000Y-99800000D03*
X127600000Y-101300000D03*
X127600000Y-112875000D03*
%TO.N,Net-(C101-Pad1)*%
X123800000Y-98250000D03*
X123300000Y-96550000D03*
X124400000Y-93100000D03*
X125723541Y-91776459D03*
%TO.N,Net-(C102-Pad2)*%
X104653541Y-142153541D03*
X104100000Y-139500000D03*
X104100000Y-130725000D03*
X104100000Y-129000000D03*
X109156041Y-121543959D03*
X107898959Y-111301041D03*
X108000000Y-109400000D03*
X127300000Y-87300000D03*
X115900000Y-85500000D03*
X115853977Y-88653977D03*
X117213694Y-91713694D03*
X112200000Y-95000000D03*
X107700000Y-96500000D03*
X107600000Y-123000000D03*
%TO.N,Net-(C102-Pad1)*%
X103251459Y-141151459D03*
X103503541Y-143303541D03*
%TO.N,/HP_IN*%
X113671526Y-126151391D03*
X116101041Y-108701041D03*
X114700000Y-107500000D03*
X109500000Y-94150000D03*
X104600000Y-92000000D03*
X114900000Y-119400000D03*
%TO.N,Net-(C103-Pad1)*%
X110100000Y-142625000D03*
X112333359Y-142533359D03*
X115012653Y-132112653D03*
X113949847Y-131124847D03*
%TO.N,+12V*%
X114600000Y-90400000D03*
X109691041Y-132891041D03*
X108188959Y-131988959D03*
X117000000Y-106600000D03*
X118701048Y-105198952D03*
X117100000Y-92900002D03*
%TO.N,GND*%
X129500000Y-82600000D03*
X129700000Y-90800000D03*
X123200000Y-92100000D03*
X126200000Y-105400000D03*
X129800000Y-100200000D03*
X122600000Y-107800000D03*
X110600000Y-126800000D03*
X120200000Y-125900000D03*
X117200000Y-85400000D03*
X122200000Y-117700000D03*
X102500000Y-132100000D03*
X101800000Y-145800000D03*
X110200000Y-139200000D03*
X111303959Y-138503959D03*
X118600000Y-83400000D03*
X128600000Y-140100000D03*
X106800000Y-92400000D03*
X102800000Y-90700000D03*
%TO.N,+12V*%
X109089622Y-124013383D03*
X111000000Y-122800000D03*
%TO.N,-12V*%
X112800000Y-120700000D03*
%TO.N,Net-(C112-Pad2)*%
X115100000Y-106100000D03*
X118000000Y-108600000D03*
%TO.N,/Out*%
X114098809Y-108299108D03*
X115200000Y-109800000D03*
X120930253Y-124710127D03*
X109200000Y-156500000D03*
X109302505Y-158702507D03*
X115087340Y-117787340D03*
%TO.N,Net-(D101-Pad2)*%
X126200000Y-87800000D03*
X121173959Y-85423959D03*
X114568584Y-89166502D03*
X113448959Y-90451041D03*
X111280000Y-92450000D03*
%TO.N,Net-(J101-PadT)*%
X113861476Y-88459394D03*
X116369633Y-93583060D03*
X116600000Y-95900000D03*
X109200000Y-109700000D03*
X108623959Y-112813833D03*
X109906041Y-122293959D03*
X108100587Y-123865688D03*
X105100000Y-128900000D03*
X105100000Y-130725000D03*
X104838959Y-135338959D03*
X105400000Y-147899996D03*
X110737340Y-103962660D03*
%TO.N,Net-(Q101-Pad1)*%
X123899999Y-115299997D03*
%TO.N,Net-(Q101-Pad2)*%
X118902653Y-125402653D03*
X127500000Y-143679990D03*
X127467253Y-140833942D03*
X117274990Y-124800000D03*
%TO.N,/IABC*%
X128875000Y-114800000D03*
X128800000Y-122300000D03*
X126742253Y-123750001D03*
%TO.N,Net-(Q104-Pad1)*%
X119198639Y-85309316D03*
X120100000Y-87350010D03*
X118801041Y-89101041D03*
X111450000Y-94150000D03*
X108775000Y-95700000D03*
%TO.N,Net-(R103-Pad2)*%
X114600000Y-125779990D03*
%TO.N,Net-(R105-Pad1)*%
X110898959Y-87901041D03*
X113400000Y-86600000D03*
%TO.N,Net-(R106-Pad1)*%
X116500000Y-82929990D03*
X113249956Y-85339919D03*
X109600000Y-87315681D03*
%TO.N,Net-(R111-Pad1)*%
X103375000Y-133231906D03*
X110851041Y-132848959D03*
X113201014Y-131787608D03*
X116262653Y-132337347D03*
X102400000Y-130000000D03*
X102600000Y-125800000D03*
X101100000Y-93600000D03*
X101500000Y-83300000D03*
%TO.N,Net-(R118-Pad1)*%
X108159999Y-130000000D03*
%TO.N,Net-(R124-Pad2)*%
X117150000Y-99800000D03*
X118900000Y-100600000D03*
X120900000Y-105755000D03*
X120900000Y-107455000D03*
X120390000Y-122890000D03*
X121465306Y-123865306D03*
X126300000Y-140900000D03*
X129200000Y-147700000D03*
%TO.N,Net-(R126-Pad2)*%
X117150000Y-101000000D03*
X119800000Y-101500000D03*
X111900000Y-104100000D03*
%TD*%
D26*
%TO.N,Net-(C101-Pad2)*%
X127999990Y-90479990D02*
X128420000Y-90900000D01*
X128325000Y-88270000D02*
X127999990Y-88595010D01*
X129300000Y-88270000D02*
X128325000Y-88270000D01*
X127129456Y-90199990D02*
X127999990Y-90199990D01*
X126804990Y-90524456D02*
X127129456Y-90199990D01*
X126804990Y-90835010D02*
X126804990Y-90524456D01*
X126460000Y-90900000D02*
X126740000Y-90900000D01*
X126740000Y-90900000D02*
X126804990Y-90835010D01*
X127999990Y-90199990D02*
X127999990Y-90479990D01*
X127999990Y-88595010D02*
X127999990Y-90199990D01*
X123269965Y-118050000D02*
X122706144Y-118613821D01*
X124900000Y-118050000D02*
X123269965Y-118050000D01*
X129325001Y-99274999D02*
X128800000Y-99800000D01*
X129325001Y-91805001D02*
X129325001Y-99274999D01*
X128420000Y-90900000D02*
X129325001Y-91805001D01*
X127600000Y-101300000D02*
X127600000Y-112875000D01*
%TO.N,Net-(C101-Pad1)*%
X125500000Y-90423232D02*
X125500000Y-90900000D01*
X128923232Y-87000000D02*
X125500000Y-90423232D01*
X129300000Y-87000000D02*
X128923232Y-87000000D01*
X126925001Y-107974999D02*
X126925001Y-102725001D01*
X123900000Y-111000000D02*
X126925001Y-107974999D01*
X123800000Y-99600000D02*
X123800000Y-98250000D01*
X126925001Y-102725001D02*
X123800000Y-99600000D01*
X123300000Y-94200000D02*
X124400000Y-93100000D01*
X123300000Y-96550000D02*
X123300000Y-94200000D01*
X125723541Y-91123541D02*
X125500000Y-90900000D01*
X125723541Y-91776459D02*
X125723541Y-91123541D01*
%TO.N,Net-(C102-Pad2)*%
X104100000Y-139500000D02*
X104100000Y-130725000D01*
X102249990Y-95950010D02*
X102900000Y-95300000D01*
X102249990Y-104486400D02*
X102249990Y-95950010D01*
X103063609Y-105300019D02*
X102249990Y-104486400D01*
X104465705Y-105300020D02*
X103063609Y-105300019D01*
X108000000Y-108834315D02*
X104465705Y-105300020D01*
X108000000Y-109400000D02*
X108000000Y-108834315D01*
X125730000Y-85730000D02*
X127300000Y-87300000D01*
X124350000Y-85730000D02*
X125730000Y-85730000D01*
X115900000Y-84500000D02*
X116100000Y-84300000D01*
X115900000Y-85500000D02*
X115900000Y-84500000D01*
X115900000Y-88607954D02*
X115853977Y-88653977D01*
X115900000Y-85500000D02*
X115900000Y-88607954D01*
X113927388Y-95000000D02*
X112200000Y-95000000D01*
X117213694Y-91713694D02*
X113927388Y-95000000D01*
X104499999Y-96899999D02*
X102900000Y-95300000D01*
X107300001Y-96899999D02*
X104499999Y-96899999D01*
X107700000Y-96500000D02*
X107300001Y-96899999D01*
X106900000Y-112300000D02*
X107898959Y-111301041D01*
X106900000Y-118872374D02*
X106900000Y-112300000D01*
X107135010Y-119107384D02*
X106900000Y-118872374D01*
X107135010Y-119522928D02*
X107135010Y-119107384D01*
X109156041Y-121543959D02*
X107135010Y-119522928D01*
X104100000Y-129000000D02*
X104100000Y-126500000D01*
X104100000Y-126500000D02*
X107600000Y-123000000D01*
X104253542Y-146153542D02*
X104253542Y-142553540D01*
X104253542Y-142553540D02*
X104653541Y-142153541D01*
X104600000Y-146500000D02*
X104253542Y-146153542D01*
%TO.N,Net-(C102-Pad1)*%
X102567918Y-141835000D02*
X103251459Y-141151459D01*
X101525000Y-141835000D02*
X102567918Y-141835000D01*
X103503541Y-146363541D02*
X103640000Y-146500000D01*
X103503541Y-143303541D02*
X103503541Y-146363541D01*
X103640000Y-146810000D02*
X103640000Y-146500000D01*
X115340000Y-138501412D02*
X107266413Y-146574999D01*
X107266413Y-146574999D02*
X105492627Y-146574999D01*
X115340000Y-136200000D02*
X115340000Y-138501412D01*
X104917445Y-147150181D02*
X103980181Y-147150181D01*
X105492627Y-146574999D02*
X104917445Y-147150181D01*
X103980181Y-147150181D02*
X103640000Y-146810000D01*
%TO.N,/HP_IN*%
X104100000Y-88495000D02*
X104100000Y-91100000D01*
X105425000Y-87170000D02*
X104100000Y-88495000D01*
X106400000Y-87170000D02*
X105425000Y-87170000D01*
X114320135Y-126800000D02*
X113671526Y-126151391D01*
X114440000Y-126800000D02*
X114320135Y-126800000D01*
X115100000Y-107500000D02*
X115900000Y-106700000D01*
X114700000Y-107500000D02*
X115100000Y-107500000D01*
X109500000Y-98013186D02*
X109500000Y-94150000D01*
X115900000Y-104413186D02*
X109500000Y-98013186D01*
X115900000Y-106700000D02*
X115900000Y-104413186D01*
X104100000Y-91100000D02*
X104100000Y-91500000D01*
X104100000Y-91500000D02*
X104600000Y-92000000D01*
X116101041Y-118198959D02*
X114900000Y-119400000D01*
X116101041Y-108701041D02*
X116101041Y-118198959D01*
%TO.N,Net-(C103-Pad1)*%
X115400000Y-128520000D02*
X115340000Y-128580000D01*
X115400000Y-126800000D02*
X115400000Y-128520000D01*
X109620000Y-143105000D02*
X110100000Y-142625000D01*
X106475000Y-143105000D02*
X109620000Y-143105000D01*
X116465001Y-133565001D02*
X115012653Y-132112653D01*
X116465001Y-138401717D02*
X116465001Y-133565001D01*
X112333359Y-142533359D02*
X116465001Y-138401717D01*
X115340000Y-129734694D02*
X115340000Y-128580000D01*
X113949847Y-131124847D02*
X115340000Y-129734694D01*
D27*
%TO.N,+12V*%
X129100000Y-85530000D02*
X129300000Y-85730000D01*
X129100000Y-84400000D02*
X129100000Y-85530000D01*
X101900000Y-110300000D02*
X104440000Y-110300000D01*
X104440000Y-110300000D02*
X106500000Y-110300000D01*
X108100000Y-110300000D02*
X113000000Y-115200000D01*
X106500000Y-110300000D02*
X108100000Y-110300000D01*
X125140000Y-97400000D02*
X129140000Y-101400000D01*
X118000000Y-97400000D02*
X125140000Y-97400000D01*
X129140000Y-102560000D02*
X129375000Y-102795000D01*
X129140000Y-101400000D02*
X129140000Y-102560000D01*
X110100000Y-85900000D02*
X106400000Y-85900000D01*
X114600000Y-90400000D02*
X110100000Y-85900000D01*
X107180000Y-85120000D02*
X107180000Y-84500000D01*
X106400000Y-85900000D02*
X107180000Y-85120000D01*
X108295000Y-139295000D02*
X108300000Y-139300000D01*
X106475000Y-139295000D02*
X108295000Y-139295000D01*
X112800000Y-137900000D02*
X112800000Y-136200000D01*
X108300000Y-139610000D02*
X108300000Y-139300000D01*
X108750010Y-140060010D02*
X108300000Y-139610000D01*
X110949990Y-140060010D02*
X108750010Y-140060010D01*
X112800000Y-138210000D02*
X110949990Y-140060010D01*
X112800000Y-137900000D02*
X112800000Y-138210000D01*
X112800000Y-136000000D02*
X109691041Y-132891041D01*
X112800000Y-136200000D02*
X112800000Y-136000000D01*
X109009999Y-131167919D02*
X109009999Y-123990001D01*
X108188959Y-131988959D02*
X109009999Y-131167919D01*
X113000000Y-110600000D02*
X113000000Y-115200000D01*
X117000000Y-106600000D02*
X113000000Y-110600000D01*
X118000000Y-97400000D02*
X118000000Y-104497904D01*
X118000000Y-104497904D02*
X118701048Y-105198952D01*
X115310037Y-90400000D02*
X114600000Y-90400000D01*
X119210037Y-86500000D02*
X115310037Y-90400000D01*
X121300000Y-86500000D02*
X119210037Y-86500000D01*
X123400000Y-84400000D02*
X121300000Y-86500000D01*
X129100000Y-84400000D02*
X123400000Y-84400000D01*
X118000000Y-93800002D02*
X117100000Y-92900002D01*
X118000000Y-97400000D02*
X118000000Y-93800002D01*
D26*
%TO.N,GND*%
X130060000Y-83160000D02*
X129500000Y-82600000D01*
X130060000Y-84400000D02*
X130060000Y-83160000D01*
X129300000Y-90400000D02*
X129700000Y-90800000D01*
X129300000Y-89540000D02*
X129300000Y-90400000D01*
X123540000Y-91760000D02*
X123200000Y-92100000D01*
X123540000Y-90900000D02*
X123540000Y-91760000D01*
X106020000Y-111260000D02*
X104440000Y-112840000D01*
X106500000Y-111260000D02*
X106020000Y-111260000D01*
X105960000Y-119440000D02*
X104440000Y-117920000D01*
X106500000Y-119440000D02*
X105960000Y-119440000D01*
X126135000Y-105335000D02*
X126200000Y-105400000D01*
X124425000Y-105335000D02*
X126135000Y-105335000D01*
X130100000Y-100500000D02*
X129800000Y-100200000D01*
X130100000Y-101400000D02*
X130100000Y-100500000D01*
X122800000Y-108000000D02*
X122600000Y-107800000D01*
X123740000Y-108000000D02*
X122800000Y-108000000D01*
X110620000Y-126820000D02*
X110600000Y-126800000D01*
X111820000Y-126820000D02*
X110620000Y-126820000D01*
X119600000Y-126500000D02*
X120200000Y-125900000D01*
X119600000Y-126800000D02*
X119600000Y-126500000D01*
X117180000Y-85380000D02*
X117200000Y-85400000D01*
X117180000Y-84300000D02*
X117180000Y-85380000D01*
X120900000Y-125900000D02*
X120200000Y-125900000D01*
X121800000Y-126800000D02*
X120900000Y-125900000D01*
X122500000Y-117400000D02*
X122200000Y-117700000D01*
X124900000Y-117400000D02*
X122500000Y-117400000D01*
X101600000Y-131200000D02*
X102500000Y-132100000D01*
X101600000Y-131100000D02*
X101600000Y-131200000D01*
X100740000Y-144740000D02*
X101800000Y-145800000D01*
X100740000Y-144500000D02*
X100740000Y-144740000D01*
X110100000Y-139300000D02*
X110200000Y-139200000D01*
X109260000Y-139300000D02*
X110100000Y-139300000D01*
X111840000Y-137967918D02*
X111303959Y-138503959D01*
X111840000Y-137900000D02*
X111840000Y-137967918D01*
X119180000Y-83980000D02*
X118600000Y-83400000D01*
X119180000Y-84300000D02*
X119180000Y-83980000D01*
X129500000Y-141800000D02*
X129500000Y-141000000D01*
X129500000Y-141000000D02*
X128600000Y-140100000D01*
X106220000Y-83670000D02*
X105050000Y-82500000D01*
X106220000Y-84500000D02*
X106220000Y-83670000D01*
X106180000Y-91780000D02*
X106800000Y-92400000D01*
X106180000Y-91100000D02*
X106180000Y-91780000D01*
X102400000Y-91100000D02*
X102800000Y-90700000D01*
X101600000Y-91100000D02*
X102400000Y-91100000D01*
D27*
%TO.N,-12V*%
X124500000Y-89690000D02*
X124350000Y-89540000D01*
X124500000Y-90900000D02*
X124500000Y-89690000D01*
X100640000Y-90520000D02*
X100640000Y-91100000D01*
X101450000Y-89710000D02*
X100640000Y-90520000D01*
X124425000Y-106605000D02*
X118405000Y-106605000D01*
X101900000Y-120460000D02*
X104440000Y-120460000D01*
X104500000Y-120400000D02*
X104440000Y-120460000D01*
X106500000Y-120400000D02*
X104500000Y-120400000D01*
X112800000Y-126840000D02*
X112780000Y-126820000D01*
X112800000Y-128580000D02*
X112800000Y-126840000D01*
X101525000Y-144325000D02*
X101700000Y-144500000D01*
X101525000Y-143105000D02*
X101525000Y-144325000D01*
X105049990Y-140555010D02*
X105049990Y-136330010D01*
X102500000Y-143105000D02*
X105049990Y-140555010D01*
X105049990Y-136330010D02*
X112800000Y-128580000D01*
X101525000Y-143105000D02*
X102500000Y-143105000D01*
X106810000Y-120400000D02*
X112780000Y-126370000D01*
X112780000Y-126370000D02*
X112780000Y-126820000D01*
X106500000Y-120400000D02*
X106810000Y-120400000D01*
X124700000Y-106880000D02*
X124425000Y-106605000D01*
X124700000Y-108000000D02*
X124700000Y-106880000D01*
X110600000Y-98300000D02*
X110600000Y-93300000D01*
X118405000Y-106605000D02*
X118405000Y-106105000D01*
X118405000Y-106105000D02*
X110600000Y-98300000D01*
X113400000Y-93300000D02*
X110600000Y-93300000D01*
X121942056Y-88200011D02*
X118499989Y-88200011D01*
X124350000Y-89540000D02*
X123282045Y-89540000D01*
X123282045Y-89540000D02*
X121942056Y-88200011D01*
X118499989Y-88200011D02*
X113400000Y-93300000D01*
X124500000Y-91755000D02*
X124500000Y-90900000D01*
X125545000Y-92800000D02*
X124500000Y-91755000D01*
X126300000Y-92800000D02*
X125545000Y-92800000D01*
X127400000Y-91700000D02*
X126300000Y-92800000D01*
X127400000Y-90900000D02*
X127400000Y-91700000D01*
X117100001Y-107909999D02*
X118405000Y-106605000D01*
%TO.N,+12V*%
X117816988Y-123000000D02*
X118000000Y-123000000D01*
X109066240Y-123990001D02*
X109089622Y-124013383D01*
X109009999Y-123990001D02*
X109066240Y-123990001D01*
X116649999Y-121649999D02*
X118000000Y-123000000D01*
X112150001Y-121649999D02*
X116649999Y-121649999D01*
X111000000Y-122800000D02*
X112150001Y-121649999D01*
X111000000Y-117200000D02*
X113000000Y-115200000D01*
X111000000Y-122800000D02*
X111000000Y-117200000D01*
%TO.N,-12V*%
X102580002Y-93350002D02*
X100640000Y-91410000D01*
X110600000Y-93300000D02*
X104558004Y-93300000D01*
X100640000Y-91410000D02*
X100640000Y-91100000D01*
X104558004Y-93300000D02*
X104508002Y-93350002D01*
X104508002Y-93350002D02*
X102580002Y-93350002D01*
X112780000Y-123220000D02*
X113000000Y-123000000D01*
X112780000Y-126820000D02*
X112780000Y-123220000D01*
X114858002Y-120700000D02*
X117100001Y-118458001D01*
X117100001Y-118458001D02*
X117100001Y-107909999D01*
X112800000Y-120700000D02*
X114858002Y-120700000D01*
D26*
%TO.N,Net-(C112-Pad2)*%
X106475000Y-140565000D02*
X106475000Y-141835000D01*
X110960000Y-101300000D02*
X111240000Y-101300000D01*
X111240000Y-101300000D02*
X115100000Y-105160000D01*
X115100000Y-105160000D02*
X115100000Y-106100000D01*
X106540000Y-141900000D02*
X106475000Y-141835000D01*
X111305002Y-141900000D02*
X106540000Y-141900000D01*
X114100000Y-139105002D02*
X111305002Y-141900000D01*
X114100000Y-132000000D02*
X114100000Y-139105002D01*
X115850010Y-127454999D02*
X115880001Y-127454999D01*
X116465001Y-128039999D02*
X116465001Y-129634999D01*
X115880001Y-127454999D02*
X116465001Y-128039999D01*
X115850010Y-127429990D02*
X115850010Y-127454999D01*
X116465001Y-129634999D02*
X114100000Y-132000000D01*
X116480000Y-126800000D02*
X115850010Y-127429990D01*
X118000000Y-121774999D02*
X118000000Y-108600000D01*
X118588001Y-121774999D02*
X118000000Y-121774999D01*
X118588001Y-124225001D02*
X119225001Y-123588001D01*
X118000000Y-125280000D02*
X118000000Y-124225001D01*
X119225001Y-122411999D02*
X118588001Y-121774999D01*
X116480000Y-126800000D02*
X118000000Y-125280000D01*
X118000000Y-124225001D02*
X118588001Y-124225001D01*
X119225001Y-123588001D02*
X119225001Y-122411999D01*
%TO.N,/Out*%
X110000000Y-101300000D02*
X108900000Y-101300000D01*
X112625001Y-106825300D02*
X114098809Y-108299108D01*
X110000000Y-101610000D02*
X110839990Y-102449990D01*
X111322992Y-102449990D02*
X112625001Y-103751999D01*
X112625001Y-103751999D02*
X112625001Y-106825300D01*
X110839990Y-102449990D02*
X111322992Y-102449990D01*
X110000000Y-101300000D02*
X110000000Y-101610000D01*
X119005001Y-135949997D02*
X119005001Y-137094999D01*
X122395010Y-126174884D02*
X122395010Y-127479988D01*
X121545001Y-128329997D02*
X121545001Y-133409997D01*
X122395010Y-127479988D02*
X121545001Y-128329997D01*
X121545001Y-133409997D02*
X119005001Y-135949997D01*
X120930253Y-124710127D02*
X122395010Y-126174884D01*
X109200000Y-146900000D02*
X109200000Y-156500000D01*
X119005001Y-137094999D02*
X109200000Y-146900000D01*
X108720000Y-159285012D02*
X108720000Y-166300000D01*
X109302505Y-158702507D02*
X108720000Y-159285012D01*
X115200000Y-117674680D02*
X115087340Y-117787340D01*
X115200000Y-109800000D02*
X115200000Y-117674680D01*
%TO.N,Net-(C117-Pad2)*%
X107700000Y-167460000D02*
X107740000Y-167500000D01*
X107700000Y-166300000D02*
X107700000Y-167460000D01*
%TO.N,Net-(C117-Pad1)*%
X110800000Y-169600000D02*
X110800000Y-170100000D01*
X108700000Y-167500000D02*
X110800000Y-169600000D01*
X116874999Y-172225001D02*
X119000000Y-170100000D01*
X112925001Y-172225001D02*
X116874999Y-172225001D01*
X110800000Y-170100000D02*
X112925001Y-172225001D01*
%TO.N,Net-(D101-Pad2)*%
X117554990Y-83654990D02*
X118200000Y-84300000D01*
X115725010Y-83654990D02*
X117554990Y-83654990D01*
X115080000Y-84300000D02*
X115725010Y-83654990D01*
X125400000Y-87000000D02*
X126200000Y-87800000D01*
X124350000Y-87000000D02*
X125400000Y-87000000D01*
X117554990Y-83372008D02*
X117554990Y-83654990D01*
X118251999Y-82674999D02*
X117554990Y-83372008D01*
X118948001Y-82674999D02*
X118251999Y-82674999D01*
X120525544Y-83654990D02*
X119927992Y-83654990D01*
X121173959Y-84303405D02*
X120525544Y-83654990D01*
X119927992Y-83654990D02*
X118948001Y-82674999D01*
X121173959Y-85423959D02*
X121173959Y-84303405D01*
X115080000Y-88655086D02*
X114568584Y-89166502D01*
X115080000Y-84300000D02*
X115080000Y-88655086D01*
X111450000Y-92450000D02*
X111280000Y-92450000D01*
X113448959Y-90451041D02*
X111450000Y-92450000D01*
%TO.N,Net-(J101-PadT)*%
X106925001Y-159474999D02*
X104800000Y-161600000D01*
X106925001Y-155525001D02*
X106925001Y-159474999D01*
X104800000Y-153400000D02*
X106925001Y-155525001D01*
X110050000Y-84647918D02*
X113861476Y-88459394D01*
X110050000Y-82500000D02*
X110050000Y-84647918D01*
X116369633Y-95669633D02*
X116600000Y-95900000D01*
X116369633Y-93583060D02*
X116369633Y-95669633D01*
X109906041Y-117871309D02*
X109906041Y-122293959D01*
X108124990Y-116090258D02*
X109906041Y-117871309D01*
X108124990Y-113312802D02*
X108124990Y-116090258D01*
X108623959Y-112813833D02*
X108124990Y-113312802D01*
X108100587Y-123865688D02*
X105466275Y-126500000D01*
X105466275Y-128533725D02*
X105100000Y-128900000D01*
X105466275Y-126500000D02*
X105466275Y-128533725D01*
X105100000Y-135300000D02*
X104900000Y-135500000D01*
X105100000Y-130725000D02*
X105100000Y-135300000D01*
X105400000Y-152800000D02*
X104800000Y-153400000D01*
X105400000Y-147899996D02*
X105400000Y-152800000D01*
X109200000Y-109700000D02*
X109200000Y-105500000D01*
X109200000Y-105500000D02*
X110737340Y-103962660D01*
%TO.N,Net-(J102-PadT)*%
X116774999Y-149525001D02*
X118900000Y-147400000D01*
X112825001Y-149525001D02*
X116774999Y-149525001D01*
X110700000Y-147400000D02*
X112825001Y-149525001D01*
X123345010Y-142954990D02*
X118900000Y-147400000D01*
X128854990Y-142954990D02*
X123345010Y-142954990D01*
X129500000Y-143600000D02*
X128854990Y-142954990D01*
%TO.N,Net-(J103-PadT)*%
X117625001Y-159474999D02*
X115500000Y-161600000D01*
X117625001Y-155525001D02*
X117625001Y-159474999D01*
X115500000Y-153400000D02*
X117625001Y-155525001D01*
X118211409Y-155525001D02*
X117625001Y-155525001D01*
X128595564Y-146054990D02*
X127681420Y-146054990D01*
X129450554Y-145200000D02*
X128595564Y-146054990D01*
X127681420Y-146054990D02*
X118211409Y-155525001D01*
X129500000Y-145200000D02*
X129450554Y-145200000D01*
%TO.N,Net-(J104-PadT)*%
X128325001Y-159474999D02*
X126200000Y-161600000D01*
X128325001Y-155525001D02*
X128325001Y-159474999D01*
X126200000Y-153400000D02*
X128325001Y-155525001D01*
X128390000Y-151210000D02*
X126200000Y-153400000D01*
X128390000Y-146700000D02*
X128390000Y-151210000D01*
%TO.N,Net-(Q101-Pad1)*%
X124960000Y-115300000D02*
X123900002Y-115300000D01*
X123900000Y-112020000D02*
X123899999Y-115299997D01*
X123900002Y-115300000D02*
X123899999Y-115299997D01*
X123300003Y-115299997D02*
X123899999Y-115299997D01*
X123200000Y-115400000D02*
X123300003Y-115299997D01*
X123200000Y-116600000D02*
X123200000Y-115400000D01*
X123350000Y-116750000D02*
X123200000Y-116600000D01*
X124900000Y-116750000D02*
X123350000Y-116750000D01*
X127500000Y-119500000D02*
X129400000Y-119500000D01*
X129400000Y-119500000D02*
X129600000Y-119300000D01*
X129600000Y-119300000D02*
X129600000Y-118100000D01*
X129550000Y-118050000D02*
X127560000Y-118050000D01*
X129600000Y-118100000D02*
X129550000Y-118050000D01*
%TO.N,Net-(Q101-Pad2)*%
X128480000Y-143600000D02*
X128480000Y-145200000D01*
X127560000Y-117400000D02*
X129600000Y-117400000D01*
X129600000Y-117400000D02*
X129600000Y-114000000D01*
X129600000Y-114000000D02*
X129200000Y-113600000D01*
X126230000Y-114300000D02*
X126230000Y-115300000D01*
X126930000Y-113600000D02*
X126230000Y-114300000D01*
X129200000Y-113600000D02*
X126930000Y-113600000D01*
X121280305Y-123025001D02*
X118902653Y-125402653D01*
X130050010Y-117850010D02*
X130050010Y-122122992D01*
X130050010Y-122122992D02*
X129148001Y-123025001D01*
X129600000Y-117400000D02*
X130050010Y-117850010D01*
X107104990Y-168024990D02*
X107680000Y-168600000D01*
X107104990Y-165924456D02*
X107104990Y-168024990D01*
X107375011Y-165654435D02*
X107104990Y-165924456D01*
X107375011Y-159604696D02*
X107375011Y-165654435D01*
X128480000Y-145200000D02*
X127900000Y-145200000D01*
X120775010Y-152324990D02*
X114654717Y-152324990D01*
X114654717Y-152324990D02*
X107375011Y-159604696D01*
X127900000Y-145200000D02*
X120775010Y-152324990D01*
X127579990Y-143600000D02*
X127500000Y-143679990D01*
X128480000Y-143600000D02*
X127579990Y-143600000D01*
X127467253Y-140833942D02*
X127467253Y-123082749D01*
X127467253Y-123082749D02*
X127525001Y-123025001D01*
X127525001Y-123025001D02*
X121280305Y-123025001D01*
X129148001Y-123025001D02*
X127525001Y-123025001D01*
X116500000Y-125700000D02*
X117274990Y-124925010D01*
X117274990Y-124925010D02*
X117274990Y-124800000D01*
%TO.N,/IABC*%
X128560000Y-116750000D02*
X129100000Y-116210000D01*
X127560000Y-116750000D02*
X128560000Y-116750000D01*
X129100000Y-115025000D02*
X128875000Y-114800000D01*
X129100000Y-116210000D02*
X129100000Y-115025000D01*
X124960000Y-119500000D02*
X124960000Y-121025685D01*
X124960000Y-121025685D02*
X126234315Y-122300000D01*
X126234315Y-122300000D02*
X128800000Y-122300000D01*
X125800000Y-124692254D02*
X126742253Y-123750001D01*
X125800000Y-126800000D02*
X125800000Y-124692254D01*
X126625001Y-137274999D02*
X126000000Y-137900000D01*
X126625001Y-127225001D02*
X126625001Y-137274999D01*
X126200000Y-126800000D02*
X126625001Y-127225001D01*
X125800000Y-126800000D02*
X126200000Y-126800000D01*
%TO.N,Net-(Q104-Pad1)*%
X107720000Y-101460000D02*
X107880000Y-101300000D01*
X104600000Y-101460000D02*
X107720000Y-101460000D01*
X108269990Y-104850010D02*
X103250010Y-104850010D01*
X108920000Y-104200000D02*
X108269990Y-104850010D01*
X103250010Y-104850010D02*
X102700000Y-104300000D01*
X102700000Y-104300000D02*
X102700000Y-102100000D01*
X103340000Y-101460000D02*
X104600000Y-101460000D01*
X102700000Y-102100000D02*
X103340000Y-101460000D01*
X120200000Y-84307955D02*
X119198639Y-85309316D01*
X120200000Y-84300000D02*
X120200000Y-84307955D01*
X124350000Y-88270000D02*
X122825233Y-88270000D01*
X121905243Y-87350010D02*
X120100000Y-87350010D01*
X122825233Y-88270000D02*
X121905243Y-87350010D01*
X113752082Y-94150000D02*
X111450000Y-94150000D01*
X118801041Y-89101041D02*
X113752082Y-94150000D01*
X108775000Y-100405000D02*
X107880000Y-101300000D01*
X108775000Y-95700000D02*
X108775000Y-100405000D01*
%TO.N,Net-(Q104-Pad3)*%
X104800000Y-104200000D02*
X104600000Y-104000000D01*
X107900000Y-104200000D02*
X104800000Y-104200000D01*
X107900000Y-102900000D02*
X107900000Y-104200000D01*
%TO.N,Net-(R103-Pad2)*%
X114679990Y-125700000D02*
X114600000Y-125779990D01*
X115480000Y-125700000D02*
X114679990Y-125700000D01*
%TO.N,Net-(R104-Pad1)*%
X105765010Y-90454990D02*
X105120000Y-91100000D01*
X106554990Y-90454990D02*
X105765010Y-90454990D01*
X107200000Y-91100000D02*
X106554990Y-90454990D01*
X105425000Y-88440000D02*
X106400000Y-88440000D01*
X105099990Y-88765010D02*
X105425000Y-88440000D01*
X105120000Y-90076768D02*
X105099990Y-90056758D01*
X105099990Y-90056758D02*
X105099990Y-88765010D01*
X105120000Y-91100000D02*
X105120000Y-90076768D01*
%TO.N,Net-(R105-Pad2)*%
X112434990Y-83654990D02*
X113080000Y-84300000D01*
X111080000Y-84300000D02*
X111725010Y-83654990D01*
X108775001Y-81274999D02*
X107550000Y-82500000D01*
X110638001Y-81274999D02*
X108775001Y-81274999D01*
X112145010Y-82782008D02*
X110638001Y-81274999D01*
X111725010Y-83654990D02*
X112145010Y-83654990D01*
X112145010Y-83654990D02*
X112145010Y-82782008D01*
X112145010Y-83654990D02*
X112434990Y-83654990D01*
%TO.N,Net-(R105-Pad1)*%
X124724999Y-81274999D02*
X125950000Y-82500000D01*
X117125001Y-81274999D02*
X124724999Y-81274999D01*
X114100000Y-84300000D02*
X117125001Y-81274999D01*
X110898959Y-87541638D02*
X110898959Y-87901041D01*
X109902311Y-86544990D02*
X110898959Y-87541638D01*
X105378242Y-86544990D02*
X109902311Y-86544990D01*
X103483232Y-88440000D02*
X105378242Y-86544990D01*
X101450000Y-88440000D02*
X103483232Y-88440000D01*
X114100000Y-85900000D02*
X113400000Y-86600000D01*
X114100000Y-84300000D02*
X114100000Y-85900000D01*
%TO.N,Net-(R106-Pad1)*%
X113139919Y-85339919D02*
X112100000Y-84300000D01*
X113249956Y-85339919D02*
X113139919Y-85339919D01*
X106400000Y-89710000D02*
X106700000Y-90010000D01*
X106700000Y-90010000D02*
X106905681Y-90010000D01*
X106905681Y-90010000D02*
X109600000Y-87315681D01*
X117329990Y-82100000D02*
X116500000Y-82929990D01*
X120550000Y-82100000D02*
X117329990Y-82100000D01*
X120950000Y-82500000D02*
X120550000Y-82100000D01*
%TO.N,Net-(R108-Pad2)*%
X103245010Y-169245010D02*
X102800000Y-168800000D01*
X108054990Y-169245010D02*
X103245010Y-169245010D01*
X108700000Y-168600000D02*
X108054990Y-169245010D01*
%TO.N,/LP_IN*%
X100680000Y-85130000D02*
X101450000Y-85900000D01*
X100680000Y-84500000D02*
X100680000Y-85130000D01*
X101450000Y-87170000D02*
X101450000Y-85900000D01*
%TO.N,Net-(R111-Pad1)*%
X103375000Y-131855000D02*
X103375000Y-133231906D01*
X102620000Y-131100000D02*
X103375000Y-131855000D01*
X111912392Y-131787608D02*
X113201014Y-131787608D01*
X110851041Y-132848959D02*
X111912392Y-131787608D01*
X117880000Y-133954694D02*
X117880000Y-136200000D01*
X116262653Y-132337347D02*
X117880000Y-133954694D01*
X102620000Y-130220000D02*
X102400000Y-130000000D01*
X102620000Y-131100000D02*
X102620000Y-130220000D01*
X102600000Y-125800000D02*
X102600000Y-127000000D01*
X100724999Y-93975001D02*
X101100000Y-93600000D01*
X100724999Y-123924999D02*
X100724999Y-93975001D01*
X102600000Y-125800000D02*
X100724999Y-123924999D01*
X101500000Y-84300000D02*
X101700000Y-84500000D01*
X101500000Y-83300000D02*
X101500000Y-84300000D01*
%TO.N,Net-(R113-Pad1)*%
X126020000Y-141800000D02*
X120420000Y-136200000D01*
X128480000Y-141800000D02*
X126020000Y-141800000D01*
%TO.N,Net-(R114-Pad1)*%
X101580000Y-128580000D02*
X101600000Y-128600000D01*
X101580000Y-127000000D02*
X101580000Y-128580000D01*
X101525000Y-139295000D02*
X101525000Y-140565000D01*
X101004990Y-129195010D02*
X101600000Y-128600000D01*
X101004990Y-138774990D02*
X101004990Y-129195010D01*
X101525000Y-139295000D02*
X101004990Y-138774990D01*
%TO.N,Net-(R115-Pad1)*%
X125500000Y-137380000D02*
X124980000Y-137900000D01*
X125500000Y-136200000D02*
X125500000Y-137380000D01*
%TO.N,Net-(R118-Pad1)*%
X120780000Y-128220000D02*
X120420000Y-128580000D01*
X120780000Y-126800000D02*
X120780000Y-128220000D01*
X104020000Y-130000000D02*
X108159999Y-130000000D01*
X102620000Y-128600000D02*
X104020000Y-130000000D01*
%TO.N,Net-(R119-Pad1)*%
X118580000Y-126800000D02*
X117500000Y-126800000D01*
X117500000Y-128200000D02*
X117880000Y-128580000D01*
X117500000Y-126800000D02*
X117500000Y-128200000D01*
%TO.N,Net-(R123-Pad1)*%
X125500000Y-127520000D02*
X124780000Y-126800000D01*
X125500000Y-128580000D02*
X125500000Y-127520000D01*
%TO.N,Net-(R124-Pad2)*%
X115900000Y-99480000D02*
X114880000Y-100500000D01*
X115900000Y-99300000D02*
X115900000Y-99480000D01*
X116650000Y-99300000D02*
X117150000Y-99800000D01*
X115900000Y-99300000D02*
X116650000Y-99300000D01*
X124425000Y-104065000D02*
X120891998Y-104065000D01*
X120891998Y-104065000D02*
X118900000Y-102073002D01*
X118900000Y-102073002D02*
X118900000Y-100600000D01*
X120891998Y-105746998D02*
X120900000Y-105755000D01*
X120891998Y-104065000D02*
X120891998Y-105746998D01*
X120900000Y-107455000D02*
X118450010Y-109904990D01*
X118450010Y-121000598D02*
X120339412Y-122890000D01*
X120339412Y-122890000D02*
X120390000Y-122890000D01*
X118450010Y-109904990D02*
X118450010Y-121000598D01*
X124184990Y-138784990D02*
X126300000Y-140900000D01*
X124184990Y-126584990D02*
X124184990Y-138784990D01*
X121465306Y-123865306D02*
X124184990Y-126584990D01*
X129200000Y-146910000D02*
X129410000Y-146700000D01*
X129200000Y-147700000D02*
X129200000Y-146910000D01*
%TO.N,Net-(R124-Pad1)*%
X115500000Y-98680000D02*
X114880000Y-99300000D01*
X115500000Y-97400000D02*
X115500000Y-98680000D01*
%TO.N,Net-(R126-Pad2)*%
X117150000Y-101000000D02*
X116750000Y-100600000D01*
X116000000Y-100600000D02*
X115900000Y-100500000D01*
X116750000Y-100600000D02*
X116000000Y-100600000D01*
X121095000Y-102795000D02*
X119800000Y-101500000D01*
X124425000Y-102795000D02*
X121095000Y-102795000D01*
X110700000Y-102900000D02*
X111900000Y-104100000D01*
X108920000Y-102900000D02*
X110700000Y-102900000D01*
%TD*%
M02*
