M48
; DRILL file {KiCad (5.1.7-0-10_14)} date Wednesday, May 19, 2021 at 07:56:14 AM
; FORMAT={-:-/ absolute / inch / decimal}
; #@! TF.CreationDate,2021-05-19T07:56:14-04:00
; #@! TF.GenerationSoftware,Kicad,Pcbnew,(5.1.7-0-10_14)
FMAT,2
INCH
T1C0.0157
T2C0.0295
T3C0.0315
T4C0.0354
T5C0.0394
T6C0.0433
T7C0.0551
T8C0.1417
%
G90
G05
T1
X3.9803Y-3.685
X3.9961Y-3.2795
X4.0079Y-5.7402
X4.0315Y-5.1181
X4.0354Y-5.2008
X4.0394Y-4.9528
X4.0472Y-3.5709
X4.065Y-5.5571
X4.0699Y-5.2454
X4.0749Y-5.6419
X4.0984Y-5.0787
X4.0984Y-5.1467
X4.0984Y-5.4921
X4.1181Y-3.622
X4.1202Y-5.5966
X4.1275Y-5.3283
X4.1378Y-5.0748
X4.1378Y-5.1467
X4.1496Y-5.8228
X4.2047Y-3.6378
X4.2362Y-4.8425
X4.2402Y-3.7992
X4.248Y-4.3819
X4.252Y-4.3071
X4.2559Y-4.8766
X4.2583Y-5.1181
X4.2594Y-5.1964
X4.2765Y-4.4415
X4.2825Y-3.7677
X4.2953Y-4.878
X4.2975Y-4.7852
X4.2992Y-4.3189
X4.2992Y-6.1614
X4.3032Y-6.2481
X4.311Y-3.7067
X4.315Y-3.4376
X4.3185Y-5.2319
X4.327Y-4.8147
X4.3346Y-5.6152
X4.3386Y-5.4803
X4.3543Y-4.9921
X4.3597Y-4.093
X4.3642Y-5.2303
X4.3661Y-3.4607
X4.3811Y-3.6398
X4.382Y-5.4529
X4.3878Y-3.7067
X4.4055Y-4.0984
X4.4173Y-3.7402
X4.4226Y-5.6115
X4.4567Y-5.1885
X4.4587Y-3.3598
X4.4646Y-3.4094
X4.4665Y-3.5611
X4.4753Y-4.9666
X4.4827Y-3.4827
X4.4862Y-5.1624
X4.4921Y-4.2637
X4.5Y-4.7717
X4.5106Y-3.5105
X4.5118Y-3.5591
X4.5118Y-4.952
X4.5157Y-4.2323
X4.5281Y-5.2013
X4.5315Y-4.1772
X4.5354Y-4.3228
X4.5423Y-4.6889
X4.5612Y-3.4903
X4.563Y-3.3661
X4.5709Y-4.2796
X4.5773Y-5.2101
X4.5815Y-3.6844
X4.5866Y-3.265
X4.5906Y-3.7756
X4.6063Y-4.1969
X4.6102Y-3.6575
X4.6122Y-3.9291
X4.6122Y-3.9764
X4.6142Y-3.3622
X4.6147Y-3.6108
X4.6171Y-4.9134
X4.6457Y-4.2756
X4.6693Y-3.2835
X4.6733Y-4.1417
X4.6772Y-3.5079
X4.6811Y-3.9606
X4.6812Y-4.9371
X4.6929Y-3.3586
X4.7165Y-3.9961
X4.7283Y-3.439
X4.7323Y-4.9567
X4.7398Y-4.8382
X4.7598Y-4.1636
X4.7598Y-4.2305
X4.761Y-4.9098
X4.7706Y-3.3631
X4.7821Y-4.8766
X4.811Y-4.6339
X4.8268Y-4.2441
X4.831Y-4.6698
X4.8504Y-3.626
X4.8543Y-3.8012
X4.874Y-3.8681
X4.878Y-4.5394
X4.8976Y-3.6654
X4.9497Y-3.6132
X4.9685Y-3.4567
X4.9685Y-4.1496
X4.9724Y-5.5472
X4.9899Y-4.872
X5.0118Y-3.437
X5.0184Y-5.5446
X5.0197Y-5.6567
X5.0236Y-3.9882
X5.0236Y-4.4439
X5.063Y-5.5157
X5.0709Y-3.9291
X5.0709Y-4.815
X5.0738Y-4.5197
X5.0866Y-5.815
X5.0984Y-3.252
X5.1063Y-3.5748
X5.1102Y-3.9449
T2
X4.1181Y-3.9945
X4.1181Y-4.0445
X4.1181Y-4.0945
X4.9197Y-4.7047
X4.9697Y-4.7047
X5.0197Y-4.7047
X4.9197Y-4.5394
X4.9697Y-4.5394
X5.0197Y-4.5394
T3
X4.0472Y-6.6457
X4.0472Y-6.7457
X4.0472Y-6.8457
X4.2409Y-5.0622
X4.2409Y-5.3622
X4.3409Y-5.0622
X4.3409Y-5.3622
X4.4409Y-5.0622
X4.4409Y-5.3622
X4.5409Y-5.0622
X4.5409Y-5.3622
X4.6409Y-5.0622
X4.6409Y-5.3622
X4.7409Y-5.0622
X4.7409Y-5.3622
X4.8409Y-5.0622
X4.8409Y-5.3622
X4.9409Y-5.0622
X4.9409Y-5.3622
T4
X4.9433Y-3.752
X5.0433Y-3.752
X4.0512Y-3.752
X4.1512Y-3.752
T5
X4.0118Y-4.3425
X4.0118Y-4.4425
X4.0118Y-4.5425
X4.0118Y-4.6425
X4.0118Y-4.7425
X4.1118Y-4.3425
X4.1118Y-4.4425
X4.1118Y-4.5425
X4.1118Y-4.6425
X4.1118Y-4.7425
T6
X4.1358Y-3.248
X4.2343Y-3.248
X4.3327Y-3.248
X4.4488Y-3.8346
X4.5472Y-3.8346
X4.6457Y-3.8346
X4.4488Y-4.8425
X4.5472Y-4.8425
X4.6457Y-4.8425
X4.7618Y-3.248
X4.8602Y-3.248
X4.9587Y-3.248
T8
X4.126Y-6.2283
X4.5472Y-5.8031
X4.5512Y-6.6969
X4.5472Y-6.2283
X4.9685Y-6.2283
T3
G00X4.1122Y-6.0394
M15
G01X4.1398Y-6.0394
M16
G05
G00X4.1122Y-6.3622
M15
G01X4.1398Y-6.3622
M16
G05
G00X4.1122Y-6.4488
M15
G01X4.1398Y-6.4488
M16
G05
G00X4.3583Y-5.8169
M15
G01X4.3583Y-5.7894
M16
G05
G00X4.6811Y-5.8169
M15
G01X4.6811Y-5.7894
M16
G05
G00X4.7677Y-5.8169
M15
G01X4.7677Y-5.7894
M16
G05
G00X4.3622Y-6.7106
M15
G01X4.3622Y-6.6831
M16
G05
G00X4.685Y-6.7106
M15
G01X4.685Y-6.6831
M16
G05
G00X4.7717Y-6.7106
M15
G01X4.7717Y-6.6831
M16
G05
G00X4.5335Y-6.0394
M15
G01X4.561Y-6.0394
M16
G05
G00X4.5335Y-6.3622
M15
G01X4.561Y-6.3622
M16
G05
G00X4.5335Y-6.4488
M15
G01X4.561Y-6.4488
M16
G05
G00X4.9547Y-6.0394
M15
G01X4.9823Y-6.0394
M16
G05
G00X4.9547Y-6.3622
M15
G01X4.9823Y-6.3622
M16
G05
G00X4.9547Y-6.4488
M15
G01X4.9823Y-6.4488
M16
G05
T7
G00X4.6496Y-2.9528
M15
G01X4.626Y-2.9528
M16
G05
G00X5.0945Y-2.9528
M15
G01X5.0709Y-2.9528
M16
G05
G00X4.0236Y-2.9528
M15
G01X4.0Y-2.9528
M16
G05
G00X4.4685Y-2.9528
M15
G01X4.4449Y-2.9528
M16
G05
G00X4.3366Y-3.5394
M15
G01X4.313Y-3.5394
M16
G05
G00X4.7815Y-3.5394
M15
G01X4.7579Y-3.5394
M16
G05
G00X4.3366Y-4.5472
M15
G01X4.313Y-4.5472
M16
G05
G00X4.7815Y-4.5472
M15
G01X4.7579Y-4.5472
M16
G05
T0
M30
